{
.appVersion = "1286";
copyright = "Copyright 2014 The Comic Neue Angular Project Authors (https://github.com/crozynski/comicneue)";
customParameters = (
{
name = note;
value = "";
},
{
name = macintoshFONDName;
value = "Comic Neue Angular";
},
{
name = license;
value = "Licensed under the SIL Open Font License. Version 1.1.";
},
{
name = licenseURL;
value = "http://scripts.sil.org/OFL";
},
{
name = preferredFamilyName;
value = "Comic Neue Angular";
},
{
name = uniqueID;
value = "2.003;;Comic Neue Angular Light Oblique";
},
{
name = versionString;
value = "Version 2.003";
},
{
name = codePageRanges;
value = (
1252,
1250
);
},
{
name = openTypeOS2FamilyClass;
value = (
0,
0
);
},
{
name = openTypeOS2Panose;
value = (
2,
0,
0,
0,
0,
0,
0,
0,
0,
0
);
},
{
name = strikeoutPosition;
value = 298;
},
{
name = strikeoutSize;
value = 50;
},
{
name = openTypeOS2SubscriptXOffset;
value = -16;
},
{
name = openTypeOS2SubscriptXSize;
value = 650;
},
{
name = openTypeOS2SubscriptYOffset;
value = 75;
},
{
name = openTypeOS2SubscriptYSize;
value = 600;
},
{
name = openTypeOS2SuperscriptXOffset;
value = 74;
},
{
name = openTypeOS2SuperscriptXSize;
value = 650;
},
{
name = openTypeOS2SuperscriptYOffset;
value = 350;
},
{
name = openTypeOS2SuperscriptYSize;
value = 600;
},
{
name = fsType;
value = (
);
},
{
name = unicodeRanges;
value = (
0,
1,
2
);
},
{
name = vendorID;
value = "    ";
},
{
name = blueFuzz;
value = 1;
},
{
name = blueScale;
value = 0.03963;
},
{
name = blueShift;
value = 7;
},
{
name = postscriptForceBold;
value = 0;
},
{
name = trademark;
value = "-";
}
);
date = "2020-03-11 04:01:10 +0000";
designer = "Craig Rozynski";
designerURL = "http://www.craigrozynski.com";
disablesNiceNames = 1;
familyName = "Comic Neue Angular";
featurePrefixes = (
{
code = "languagesystem DFLT dflt;\012languagesystem latn dflt;\012";
name = Languagesystems;
},
{

glyphs = (
{
glyphname = A;
layers = (
{
layerId = master01;
paths = (
{
closed = 1;
nodes = (
"519 29 LINE",
"484 7 LINE",
"453 271 LINE",
"153 211 LINE",
"32 4 LINE",
"3 22 LINE",
"107 201 LINE",
"57 191 LINE",
"57 227 LINE",
"133 241 LINE",
"382 668 LINE",
"444 679 LINE"
);
},
{
closed = 1;
nodes = (
"448 304 LINE",
"409 646 LINE",
"178 251 LINE"
);
}
);
width = 613;
}
);
unicode = 0041;
},
{
glyphname = Aacute;
layers = (
{
layerId = master01;
paths = (
{
closed = 1;
nodes = (
"513 896 LINE",
"543 864 LINE",
"370 760 LINE",
"351 784 LINE"
);
},
{
closed = 1;
nodes = (
"519 29 LINE",
"484 7 LINE",
"453 271 LINE",
"153 211 LINE",
"32 4 LINE",
"3 22 LINE",
"107 201 LINE",
"57 191 LINE",
"57 227 LINE",
"133 241 LINE",
"382 668 LINE",
"444 679 LINE"
);
},
{
closed = 1;
nodes = (
"448 304 LINE",
"409 646 LINE",
"178 251 LINE"
);
}
);
width = 613;
}
);
unicode = 00C1;
},
{
glyphname = Abreve;
layers = (
{
layerId = master01;
paths = (
{
closed = 1;
nodes = (
"519 29 LINE",
"484 7 LINE",
"453 271 LINE",
"153 211 LINE",
"32 4 LINE",
"3 22 LINE",
"107 201 LINE",
"57 191 LINE",
"57 227 LINE",
"133 241 LINE",
"382 668 LINE",
"444 679 LINE"
);
},
{
closed = 1;
nodes = (
"448 304 LINE",
"409 646 LINE",
"178 251 LINE"
);
},
{
closed = 1;
nodes = (
"498 788 OFFCURVE",
"551 813 OFFCURVE",
"582 862 CURVE",
"596 845 LINE",
"565 796 OFFCURVE",
"500 761 OFFCURVE",
"441 761 CURVE SMOOTH",
"375 761 OFFCURVE",
"328 793 OFFCURVE",
"313 841 CURVE",
"333 858 LINE",
"359 800 OFFCURVE",
"406 788 OFFCURVE",
"445 788 CURVE SMOOTH"
);
}
);
userData = {
com.fontlab.hintData = {
hhints = (
{
position = 761;
width = 27;
}
);
vhints = (
{
position = 313;
width = 20;
}
);
};
};
width = 613;
}
);
unicode = 0102;
},
{
glyphname = Acircumflex;
layers = (
{
layerId = master01;
paths = (
{
closed = 1;
nodes = (
"303 771 LINE",
"467 884 LINE",
"562 771 LINE",
"534 745 LINE",
"454 833 LINE",
"319 743 LINE"
);
},
{
closed = 1;
nodes = (
"519 29 LINE",
"484 7 LINE",
"453 271 LINE",
"153 211 LINE",
"32 4 LINE",
"3 22 LINE",
"107 201 LINE",
"57 191 LINE",
"57 227 LINE",
"133 241 LINE",
"382 668 LINE",
"444 679 LINE"
);
},
{
closed = 1;
nodes = (
"448 304 LINE",
"409 646 LINE",
"178 251 LINE"
);
}
);
width = 613;
}
);
unicode = 00C2;
},
{
glyphname = Adieresis;
layers = (
{
layerId = master01;
paths = (
{
closed = 1;
nodes = (
"519 29 LINE",
"484 7 LINE",
"453 271 LINE",
"153 211 LINE",
"32 4 LINE",
"3 22 LINE",
"107 201 LINE",
"57 191 LINE",
"57 227 LINE",
"133 241 LINE",
"382 668 LINE",
"444 679 LINE"
);
},
{
closed = 1;
nodes = (
"448 304 LINE",
"409 646 LINE",
"178 251 LINE"
);
},
{
closed = 1;
nodes = (
"379 758 LINE",
"323 750 LINE",
"343 814 LINE",
"399 822 LINE"
);
},
{
closed = 1;
nodes = (
"544 758 LINE",
"489 750 LINE",
"509 814 LINE",
"565 822 LINE"
);
}
);
width = 613;
}
);
unicode = 00C4;
},
{
glyphname = Agrave;
layers = (
{
layerId = master01;
paths = (
{
closed = 1;
nodes = (
"477 750 LINE",
"376 879 LINE",
"423 904 LINE",
"510 770 LINE"
);
},
{
closed = 1;
nodes = (
"519 29 LINE",
"484 7 LINE",
"453 271 LINE",
"153 211 LINE",
"32 4 LINE",
"3 22 LINE",
"107 201 LINE",
"57 191 LINE",
"57 227 LINE",
"133 241 LINE",
"382 668 LINE",
"444 679 LINE"
);
},
{
closed = 1;
nodes = (
"448 304 LINE",
"409 646 LINE",
"178 251 LINE"
);
}
);
width = 613;
}
);
unicode = 00C0;
},
{
glyphname = Aogonek;
layers = (
{
layerId = master01;
paths = (
{
closed = 1;
nodes = (
"453 271 LINE",
"153 211 LINE",
"32 4 LINE",
"3 22 LINE",
"107 201 LINE",
"57 191 LINE",
"57 227 LINE",
"133 241 LINE",
"382 668 LINE",
"444 679 LINE",
"520 14 LINE",
"474 -15 LINE SMOOTH",
"441 -36 OFFCURVE",
"386 -71 OFFCURVE",
"385 -127 CURVE SMOOTH",
"385 -158 OFFCURVE",
"409 -177 OFFCURVE",
"442 -177 CURVE SMOOTH",
"477 -177 OFFCURVE",
"495 -166 OFFCURVE",
"523 -149 CURVE",
"535 -172 LINE",
"513 -191 OFFCURVE",
"472 -209 OFFCURVE",
"435 -209 CURVE SMOOTH",
"386 -209 OFFCURVE",
"354 -179 OFFCURVE",
"354 -134 CURVE SMOOTH",
"354 -64 OFFCURVE",
"427 -5 OFFCURVE",
"482 22 CURVE"
);
},
{
closed = 1;
nodes = (
"448 304 LINE",
"409 646 LINE",
"178 251 LINE"
);
}
);
userData = {
com.fontlab.hintData = {
hhints = (
{
position = -209;
width = 32;
}
);
vhints = (
{
position = 354;
width = 31;
}
);
};
};
width = 627;
}
);
unicode = 0104;
},
{
glyphname = Aring;
layers = (
{
layerId = master01;
paths = (
{
closed = 1;
nodes = (
"359 743 OFFCURVE",
"326 776 OFFCURVE",
"326 819 CURVE SMOOTH",
"326 886 OFFCURVE",
"400 948 OFFCURVE",
"478 948 CURVE SMOOTH",
"536 948 OFFCURVE",
"567 911 OFFCURVE",
"567 870 CURVE SMOOTH",
"567 790 OFFCURVE",
"474 743 OFFCURVE",
"414 743 CURVE SMOOTH"
);
},
{
closed = 1;
nodes = (
"427 923 OFFCURVE",
"351 884 OFFCURVE",
"351 823 CURVE SMOOTH",
"351 790 OFFCURVE",
"379 767 OFFCURVE",
"422 767 CURVE SMOOTH",
"475 767 OFFCURVE",
"540 812 OFFCURVE",
"540 864 CURVE SMOOTH",
"540 898 OFFCURVE",
"512 923 OFFCURVE",
"470 923 CURVE SMOOTH"
);
},
{
closed = 1;
nodes = (
"519 29 LINE",
"484 7 LINE",
"453 271 LINE",
"153 211 LINE",
"32 4 LINE",
"3 22 LINE",
"107 201 LINE",
"57 191 LINE",
"57 227 LINE",
"133 241 LINE",
"382 668 LINE",
"444 679 LINE"
);
},
{
closed = 1;
nodes = (
"448 304 LINE",
"409 646 LINE",
"178 251 LINE"
);
}
);
userData = {
com.fontlab.hintData = {
hhints = (
{
position = 743;
width = 24;
},
{
position = 923;
width = 25;
}
);
vhints = (
{
position = 326;
width = 25;
},
{
position = 540;
width = 27;
}
);
};
};
width = 613;
}
);
unicode = 00C5;
},
{
glyphname = Atilde;
layers = (
{
layerId = master01;
paths = (
{
closed = 1;
nodes = (
"519 29 LINE",
"484 7 LINE",
"453 271 LINE",
"153 211 LINE",
"32 4 LINE",
"3 22 LINE",
"107 201 LINE",
"57 191 LINE",
"57 227 LINE",
"133 241 LINE",
"382 668 LINE",
"444 679 LINE"
);
},
{
closed = 1;
nodes = (
"448 304 LINE",
"409 646 LINE",
"178 251 LINE"
);
},
{
closed = 1;
nodes = (
"470 781 OFFCURVE",
"479 774 OFFCURVE",
"500 774 CURVE SMOOTH",
"538 774 OFFCURVE",
"572 821 OFFCURVE",
"590 855 CURVE",
"619 845 LINE",
"590 789 OFFCURVE",
"537 743 OFFCURVE",
"493 743 CURVE SMOOTH",
"452 743 OFFCURVE",
"436 774 OFFCURVE",
"423 801 CURVE SMOOTH",
"405 838 OFFCURVE",
"395 844 OFFCURVE",
"375 844 CURVE SMOOTH",
"341 844 OFFCURVE",
"306 802 OFFCURVE",
"289 771 CURVE",
"262 781 LINE",
"287 825 OFFCURVE",
"330 876 OFFCURVE",
"382 876 CURVE SMOOTH",
"424 876 OFFCURVE",
"439 845 OFFCURVE",
"452 820 CURVE"
);
}
);
userData = {
com.fontlab.hintData = {
hhints = (
{
position = 743;
width = 31;
},
{
position = 844;
width = 32;
}
);
};
};
width = 613;
}
);
unicode = 00C3;
},
{
glyphname = AE;
layers = (
{
layerId = master01;
paths = (
{
closed = 1;
nodes = (
"945 37 LINE",
"923 0 LINE",
"461 0 LINE",
"528 318 LINE",
"272 268 LINE",
"30 3 LINE",
"3 21 LINE",
"222 260 LINE",
"163 246 LINE",
"163 280 LINE",
"260 300 LINE",
"610 681 LINE",
"1078 681 LINE",
"1062 644 LINE",
"634 644 LINE",
"577 373 LINE",
"969 373 LINE",
"950 336 LINE",
"569 336 LINE",
"505 37 LINE"
);
},
{
closed = 1;
nodes = (
"590 611 LINE",
"312 310 LINE",
"536 354 LINE"
);
}
);
userData = {
com.fontlab.hintData = {
hhints = (
{
position = 0;
width = 37;
},
{
position = 336;
width = 37;
},
{
position = 644;
width = 37;
}
);
};
};
width = 1039;
}
);
unicode = 00C6;
},
{
glyphname = B;
layers = (
{
layerId = master01;
paths = (
{
closed = 1;
nodes = (
"465 364 OFFCURVE",
"539 313 OFFCURVE",
"539 231 CURVE SMOOTH",
"539 24 OFFCURVE",
"198 0 OFFCURVE",
"71 0 CURVE SMOOTH",
"13 0 LINE",
"157 681 LINE",
"364 681 LINE SMOOTH",
"480 681 OFFCURVE",
"544 631 OFFCURVE",
"544 548 CURVE SMOOTH",
"544 486 OFFCURVE",
"518 393 OFFCURVE",
"369 364 CURVE"
);
},
{
closed = 1;
nodes = (
"55 35 LINE",
"68 34 OFFCURVE",
"70 34 OFFCURVE",
"79 34 CURVE SMOOTH",
"203 34 OFFCURVE",
"504 64 OFFCURVE",
"504 228 CURVE SMOOTH",
"504 323 OFFCURVE",
"391 342 OFFCURVE",
"320 342 CURVE SMOOTH",
"120 342 LINE"
);
},
{
closed = 1;
nodes = (
"127 376 LINE",
"281 376 LINE SMOOTH",
"372 376 OFFCURVE",
"509 409 OFFCURVE",
"509 543 CURVE SMOOTH",
"509 596 OFFCURVE",
"477 646 OFFCURVE",
"357 646 CURVE SMOOTH",
"185 646 LINE"
);
}
);
userData = {
com.fontlab.hintData = {
hhints = (
{
position = 0;
width = 34;
},
{
position = 342;
width = 34;
},
{
position = 646;
width = 35;
}
);
vhints = (
{
position = 504;
width = 35;
}
);
};
};
width = 592;
}
);
unicode = 0042;
},
{
glyphname = C;
layers = (
{
layerId = master01;
paths = (
{
closed = 1;
nodes = (
"145 -1 OFFCURVE",
"52 93 OFFCURVE",
"52 226 CURVE SMOOTH",
"52 381 OFFCURVE",
"230 681 OFFCURVE",
"436 681 CURVE SMOOTH",
"490 681 OFFCURVE",
"543 661 OFFCURVE",
"585 623 CURVE",
"592 657 LINE",
"619 657 LINE",
"597 555 LINE",
"570 555 LINE",
"575 575 LINE",
"553 609 OFFCURVE",
"510 647 OFFCURVE",
"423 647 CURVE SMOOTH",
"253 647 OFFCURVE",
"87 367 OFFCURVE",
"87 235 CURVE SMOOTH",
"87 120 OFFCURVE",
"167 33 OFFCURVE",
"286 33 CURVE SMOOTH",
"385 33 OFFCURVE",
"467 70 OFFCURVE",
"528 147 CURVE",
"546 124 LINE",
"479 45 OFFCURVE",
"379 -1 OFFCURVE",
"278 -1 CURVE SMOOTH"
);
}
);
userData = {
com.fontlab.hintData = {
hhints = (
{
position = -1;
width = 34;
},
{
position = 647;
width = 34;
}
);
vhints = (
{
position = 52;
width = 35;
}
);
};
};
width = 621;
}
);
unicode = 0043;
},
{
glyphname = Cacute;
layers = (
{
layerId = master01;
paths = (
{
closed = 1;
nodes = (
"539 896 LINE",
"570 864 LINE",
"397 760 LINE",
"377 784 LINE"
);
},
{
closed = 1;
nodes = (
"145 -1 OFFCURVE",
"52 93 OFFCURVE",
"52 226 CURVE SMOOTH",
"52 381 OFFCURVE",
"230 681 OFFCURVE",
"436 681 CURVE SMOOTH",
"490 681 OFFCURVE",
"543 661 OFFCURVE",
"585 623 CURVE",
"592 657 LINE",
"619 657 LINE",
"597 555 LINE",
"570 555 LINE",
"575 575 LINE",
"553 609 OFFCURVE",
"510 647 OFFCURVE",
"423 647 CURVE SMOOTH",
"253 647 OFFCURVE",
"87 367 OFFCURVE",
"87 235 CURVE SMOOTH",
"87 120 OFFCURVE",
"167 33 OFFCURVE",
"286 33 CURVE SMOOTH",
"385 33 OFFCURVE",
"467 70 OFFCURVE",
"528 147 CURVE",
"546 124 LINE",
"479 45 OFFCURVE",
"379 -1 OFFCURVE",
"278 -1 CURVE SMOOTH"
);
}
);
userData = {
com.fontlab.hintData = {
hhints = (
{
position = -1;
width = 34;
},
{
position = 647;
width = 34;
}
);
vhints = (
{
position = 52;
width = 35;
}
);
};
};
width = 621;
}
);
unicode = 0106;
},
{
glyphname = Ccaron;
layers = (
{
layerId = master01;
paths = (
{
closed = 1;
nodes = (
"607 854 LINE",
"442 743 LINE",
"347 855 LINE",
"377 883 LINE",
"456 792 LINE",
"591 884 LINE"
);
},
{
closed = 1;
nodes = (
"145 -1 OFFCURVE",
"52 93 OFFCURVE",
"52 226 CURVE SMOOTH",
"52 381 OFFCURVE",
"230 681 OFFCURVE",
"436 681 CURVE SMOOTH",
"490 681 OFFCURVE",
"543 661 OFFCURVE",
"585 623 CURVE",
"592 657 LINE",
"619 657 LINE",
"597 555 LINE",
"570 555 LINE",
"575 575 LINE",
"553 609 OFFCURVE",
"510 647 OFFCURVE",
"423 647 CURVE SMOOTH",
"253 647 OFFCURVE",
"87 367 OFFCURVE",
"87 235 CURVE SMOOTH",
"87 120 OFFCURVE",
"167 33 OFFCURVE",
"286 33 CURVE SMOOTH",
"385 33 OFFCURVE",
"467 70 OFFCURVE",
"528 147 CURVE",
"546 124 LINE",
"479 45 OFFCURVE",
"379 -1 OFFCURVE",
"278 -1 CURVE SMOOTH"
);
}
);
userData = {
com.fontlab.hintData = {
hhints = (
{
position = -1;
width = 34;
},
{
position = 647;
width = 34;
}
);
vhints = (
{
position = 52;
width = 35;
}
);
};
};
width = 621;
}
);
unicode = 010C;
},
{
glyphname = Ccedilla;
layers = (
{
layerId = master01;
paths = (
{
closed = 1;
nodes = (
"288 -184 OFFCURVE",
"322 -150 OFFCURVE",
"322 -110 CURVE SMOOTH",
"322 -83 OFFCURVE",
"305 -63 OFFCURVE",
"276 -63 CURVE SMOOTH",
"265 -63 OFFCURVE",
"252 -67 OFFCURVE",
"243 -71 CURVE",
"226 -52 LINE",
"255 -1 LINE",
"134 13 OFFCURVE",
"52 105 OFFCURVE",
"52 228 CURVE SMOOTH",
"52 384 OFFCURVE",
"232 681 OFFCURVE",
"436 681 CURVE SMOOTH",
"490 681 OFFCURVE",
"543 661 OFFCURVE",
"585 623 CURVE",
"592 657 LINE",
"619 657 LINE",
"597 555 LINE",
"570 555 LINE",
"575 575 LINE",
"553 609 OFFCURVE",
"510 647 OFFCURVE",
"423 647 CURVE SMOOTH",
"253 647 OFFCURVE",
"87 367 OFFCURVE",
"87 235 CURVE SMOOTH",
"87 120 OFFCURVE",
"167 33 OFFCURVE",
"286 33 CURVE SMOOTH",
"385 33 OFFCURVE",
"456 68 OFFCURVE",
"528 147 CURVE",
"546 124 LINE",
"479 47 OFFCURVE",
"372 -1 OFFCURVE",
"267 -1 CURVE",
"259 -40 LINE",
"273 -40 LINE SMOOTH",
"318 -40 OFFCURVE",
"348 -65 OFFCURVE",
"348 -105 CURVE SMOOTH",
"348 -159 OFFCURVE",
"298 -207 OFFCURVE",
"246 -207 CURVE SMOOTH",
"222 -207 OFFCURVE",
"201 -198 OFFCURVE",
"190 -182 CURVE",
"209 -166 LINE",
"219 -175 OFFCURVE",
"230 -184 OFFCURVE",
"250 -184 CURVE SMOOTH"
);
}
);
userData = {
com.fontlab.hintData = {
hhints = (
{
position = -207;
width = 23;
},
{
position = -63;
width = 23;
},
{
position = -1;
width = 34;
},
{
position = 647;
width = 34;
}
);
vhints = (
{
position = 52;
width = 35;
},
{
position = 322;
width = 26;
}
);
};
};
width = 621;
}
);
unicode = 00C7;
},
{
glyphname = Ccircumflex;
layers = (
{
layerId = master01;
paths = (
{
closed = 1;
nodes = (
"145 -1 OFFCURVE",
"52 93 OFFCURVE",
"52 226 CURVE SMOOTH",
"52 381 OFFCURVE",
"230 681 OFFCURVE",
"436 681 CURVE SMOOTH",
"490 681 OFFCURVE",
"543 661 OFFCURVE",
"585 623 CURVE",
"592 657 LINE",
"619 657 LINE",
"597 555 LINE",
"570 555 LINE",
"575 575 LINE",
"553 609 OFFCURVE",
"510 647 OFFCURVE",
"423 647 CURVE SMOOTH",
"253 647 OFFCURVE",
"87 367 OFFCURVE",
"87 235 CURVE SMOOTH",
"87 120 OFFCURVE",
"167 33 OFFCURVE",
"286 33 CURVE SMOOTH",
"385 33 OFFCURVE",
"467 70 OFFCURVE",
"528 147 CURVE",
"546 124 LINE",
"479 45 OFFCURVE",
"379 -1 OFFCURVE",
"278 -1 CURVE SMOOTH"
);
},
{
closed = 1;
nodes = (
"333 771 LINE",
"497 884 LINE",
"592 771 LINE",
"564 745 LINE",
"484 833 LINE",
"349 743 LINE"
);
}
);
userData = {
com.fontlab.hintData = {
hhints = (
{
position = -1;
width = 34;
},
{
position = 647;
width = 34;
}
);
vhints = (
{
position = 52;
width = 35;
}
);
};
};
width = 621;
}
);
unicode = 0108;
},
{
glyphname = D;
layers = (
{
layerId = master01;
paths = (
{
closed = 1;
nodes = (
"157 680 LINE",
"461 678 OFFCURVE",
"571 554 OFFCURVE",
"571 391 CURVE SMOOTH",
"571 139 OFFCURVE",
"398 -15 OFFCURVE",
"145 -15 CURVE SMOOTH",
"111 -15 OFFCURVE",
"51 -10 OFFCURVE",
"12 -1 CURVE"
);
},
{
closed = 1;
nodes = (
"53 27 LINE",
"74 23 OFFCURVE",
"111 20 OFFCURVE",
"153 20 CURVE SMOOTH",
"209 20 OFFCURVE",
"295 29 OFFCURVE",
"369 70 CURVE SMOOTH",
"466 125 OFFCURVE",
"536 241 OFFCURVE",
"536 384 CURVE SMOOTH",
"536 480 OFFCURVE",
"492 550 OFFCURVE",
"406 595 CURVE SMOOTH",
"329 635 OFFCURVE",
"232 645 OFFCURVE",
"185 646 CURVE"
);
}
);
userData = {
com.fontlab.hintData = {
hhints = (
{
position = -15;
width = 35;
},
{
position = 646;
width = 34;
}
);
vhints = (
{
position = 536;
width = 35;
}
);
};
};
width = 606;
}
);
unicode = 0044;
},
{
glyphname = Eth;
layers = (
{
layerId = master01;
paths = (
{
closed = 1;
nodes = (
"219 680 LINE",
"523 678 OFFCURVE",
"633 554 OFFCURVE",
"633 391 CURVE SMOOTH",
"633 142 OFFCURVE",
"460 -15 OFFCURVE",
"207 -15 CURVE SMOOTH",
"173 -15 OFFCURVE",
"113 -10 OFFCURVE",
"74 -1 CURVE",
"138 300 LINE",
"38 300 LINE",
"54 340 LINE",
"147 340 LINE"
);
},
{
closed = 1;
nodes = (
"115 27 LINE",
"136 23 OFFCURVE",
"173 20 OFFCURVE",
"215 20 CURVE SMOOTH",
"271 20 OFFCURVE",
"357 29 OFFCURVE",
"431 70 CURVE SMOOTH",
"528 125 OFFCURVE",
"598 241 OFFCURVE",
"598 384 CURVE SMOOTH",
"598 480 OFFCURVE",
"554 550 OFFCURVE",
"468 595 CURVE SMOOTH",
"391 635 OFFCURVE",
"294 645 OFFCURVE",
"247 646 CURVE",
"182 340 LINE",
"293 340 LINE",
"277 300 LINE",
"173 300 LINE"
);
}
);
userData = {
com.fontlab.hintData = {
hhints = (
{
position = -15;
width = 35;
},
{
position = 300;
width = 40;
},
{
position = 646;
width = 34;
}
);
vhints = (
{
position = 598;
width = 35;
}
);
};
};
width = 666;
}
);
unicode = 00D0;
},
{
glyphname = Dcaron;
layers = (
{
layerId = master01;
paths = (
{
closed = 1;
nodes = (
"532 854 LINE",
"367 743 LINE",
"273 855 LINE",
"303 883 LINE",
"381 792 LINE",
"516 884 LINE"
);
},
{
closed = 1;
nodes = (
"157 680 LINE",
"461 678 OFFCURVE",
"571 554 OFFCURVE",
"571 391 CURVE SMOOTH",
"571 139 OFFCURVE",
"398 -15 OFFCURVE",
"145 -15 CURVE SMOOTH",
"111 -15 OFFCURVE",
"51 -10 OFFCURVE",
"12 -1 CURVE"
);
},
{
closed = 1;
nodes = (
"53 27 LINE",
"74 23 OFFCURVE",
"111 20 OFFCURVE",
"153 20 CURVE SMOOTH",
"209 20 OFFCURVE",
"295 29 OFFCURVE",
"369 70 CURVE SMOOTH",
"466 125 OFFCURVE",
"536 241 OFFCURVE",
"536 384 CURVE SMOOTH",
"536 480 OFFCURVE",
"492 550 OFFCURVE",
"406 595 CURVE SMOOTH",
"329 635 OFFCURVE",
"232 645 OFFCURVE",
"185 646 CURVE"
);
}
);
userData = {
com.fontlab.hintData = {
hhints = (
{
position = -15;
width = 35;
},
{
position = 646;
width = 34;
}
);
vhints = (
{
position = 536;
width = 35;
}
);
};
};
width = 606;
}
);
unicode = 010E;
},
{
glyphname = Dcroat;
layers = (
{
layerId = master01;
paths = (
{
closed = 1;
nodes = (
"219 680 LINE",
"523 678 OFFCURVE",
"633 554 OFFCURVE",
"633 391 CURVE SMOOTH",
"633 142 OFFCURVE",
"460 -15 OFFCURVE",
"207 -15 CURVE SMOOTH",
"173 -15 OFFCURVE",
"113 -10 OFFCURVE",
"74 -1 CURVE",
"138 300 LINE",
"38 300 LINE",
"54 340 LINE",
"147 340 LINE"
);
},
{
closed = 1;
nodes = (
"115 27 LINE",
"136 23 OFFCURVE",
"173 20 OFFCURVE",
"215 20 CURVE SMOOTH",
"271 20 OFFCURVE",
"357 29 OFFCURVE",
"431 70 CURVE SMOOTH",
"528 125 OFFCURVE",
"598 241 OFFCURVE",
"598 384 CURVE SMOOTH",
"598 480 OFFCURVE",
"554 550 OFFCURVE",
"468 595 CURVE SMOOTH",
"391 635 OFFCURVE",
"294 645 OFFCURVE",
"247 646 CURVE",
"182 340 LINE",
"293 340 LINE",
"277 300 LINE",
"173 300 LINE"
);
}
);
userData = {
com.fontlab.hintData = {
hhints = (
{
position = -15;
width = 35;
},
{
position = 300;
width = 40;
},
{
position = 646;
width = 34;
}
);
vhints = (
{
position = 598;
width = 35;
}
);
};
};
width = 666;
}
);
unicode = 0110;
},
{
glyphname = E;
layers = (
{
layerId = master01;
paths = (
{
closed = 1;
nodes = (
"497 37 LINE",
"475 0 LINE",
"13 0 LINE",
"157 681 LINE",
"630 681 LINE",
"614 644 LINE",
"186 644 LINE",
"129 373 LINE",
"521 373 LINE",
"502 336 LINE",
"121 336 LINE",
"57 37 LINE"
);
}
);
userData = {
com.fontlab.hintData = {
hhints = (
{
position = 0;
width = 37;
},
{
position = 336;
width = 37;
},
{
position = 644;
width = 37;
}
);
};
};
width = 601;
}
);
unicode = 0045;
},
{
glyphname = Eacute;
layers = (
{
layerId = master01;
paths = (
{
closed = 1;
nodes = (
"484 896 LINE",
"515 864 LINE",
"343 760 LINE",
"322 784 LINE"
);
},
{
closed = 1;
nodes = (
"497 37 LINE",
"475 0 LINE",
"13 0 LINE",
"157 681 LINE",
"630 681 LINE",
"614 644 LINE",
"186 644 LINE",
"129 373 LINE",
"521 373 LINE",
"502 336 LINE",
"121 336 LINE",
"57 37 LINE"
);
}
);
userData = {
com.fontlab.hintData = {
hhints = (
{
position = 0;
width = 37;
},
{
position = 336;
width = 37;
},
{
position = 644;
width = 37;
}
);
};
};
width = 601;
}
);
unicode = 00C9;
},
{
glyphname = Ecaron;
layers = (
{
layerId = master01;
paths = (
{
closed = 1;
nodes = (
"562 854 LINE",
"397 743 LINE",
"303 855 LINE",
"333 883 LINE",
"411 792 LINE",
"547 884 LINE"
);
},
{
closed = 1;
nodes = (
"497 37 LINE",
"475 0 LINE",
"13 0 LINE",
"157 681 LINE",
"630 681 LINE",
"614 644 LINE",
"186 644 LINE",
"129 373 LINE",
"521 373 LINE",
"502 336 LINE",
"121 336 LINE",
"57 37 LINE"
);
}
);
userData = {
com.fontlab.hintData = {
hhints = (
{
position = 0;
width = 37;
},
{
position = 336;
width = 37;
},
{
position = 644;
width = 37;
}
);
};
};
width = 601;
}
);
unicode = 011A;
},
{
glyphname = Ecircumflex;
layers = (
{
layerId = master01;
paths = (
{
closed = 1;
nodes = (
"285 771 LINE",
"449 884 LINE",
"543 771 LINE",
"516 745 LINE",
"436 833 LINE",
"300 743 LINE"
);
},
{
closed = 1;
nodes = (
"497 37 LINE",
"475 0 LINE",
"13 0 LINE",
"157 681 LINE",
"630 681 LINE",
"614 644 LINE",
"186 644 LINE",
"129 373 LINE",
"521 373 LINE",
"502 336 LINE",
"121 336 LINE",
"57 37 LINE"
);
}
);
userData = {
com.fontlab.hintData = {
hhints = (
{
position = 0;
width = 37;
},
{
position = 336;
width = 37;
},
{
position = 644;
width = 37;
}
);
};
};
width = 601;
}
);
unicode = 00CA;
},
{
glyphname = Edieresis;
layers = (
{
layerId = master01;
paths = (
{
closed = 1;
nodes = (
"357 758 LINE",
"301 750 LINE",
"322 814 LINE",
"377 822 LINE"
);
},
{
closed = 1;
nodes = (
"523 758 LINE",
"467 750 LINE",
"488 814 LINE",
"543 822 LINE"
);
},
{
closed = 1;
nodes = (
"497 37 LINE",
"475 0 LINE",
"13 0 LINE",
"157 681 LINE",
"630 681 LINE",
"614 644 LINE",
"186 644 LINE",
"129 373 LINE",
"521 373 LINE",
"502 336 LINE",
"121 336 LINE",
"57 37 LINE"
);
}
);
userData = {
com.fontlab.hintData = {
hhints = (
{
position = 0;
width = 37;
},
{
position = 336;
width = 37;
},
{
position = 644;
width = 37;
}
);
};
};
width = 601;
}
);
unicode = 00CB;
},
{
glyphname = Egrave;
layers = (
{
layerId = master01;
paths = (
{
closed = 1;
nodes = (
"434 750 LINE",
"334 879 LINE",
"381 904 LINE",
"468 770 LINE"
);
},
{
closed = 1;
nodes = (
"497 37 LINE",
"475 0 LINE",
"13 0 LINE",
"157 681 LINE",
"630 681 LINE",
"614 644 LINE",
"186 644 LINE",
"129 373 LINE",
"521 373 LINE",
"502 336 LINE",
"121 336 LINE",
"57 37 LINE"
);
}
);
userData = {
com.fontlab.hintData = {
hhints = (
{
position = 0;
width = 37;
},
{
position = 336;
width = 37;
},
{
position = 644;
width = 37;
}
);
};
};
width = 601;
}
);
unicode = 00C8;
},
{
glyphname = Eogonek;
layers = (
{
layerId = master01;
paths = (
{
closed = 1;
nodes = (
"464 -172 LINE",
"442 -191 OFFCURVE",
"401 -209 OFFCURVE",
"364 -209 CURVE SMOOTH",
"315 -209 OFFCURVE",
"283 -179 OFFCURVE",
"283 -134 CURVE SMOOTH",
"283 -78 OFFCURVE",
"327 -32 OFFCURVE",
"374 0 CURVE",
"13 0 LINE",
"157 681 LINE",
"630 681 LINE",
"614 644 LINE",
"186 644 LINE",
"129 373 LINE",
"521 373 LINE",
"502 336 LINE",
"121 336 LINE",
"57 37 LINE",
"497 37 LINE",
"475 0 LINE",
"428 0 LINE",
"403 -15 LINE SMOOTH",
"371 -34 OFFCURVE",
"315 -71 OFFCURVE",
"314 -127 CURVE SMOOTH",
"314 -158 OFFCURVE",
"338 -177 OFFCURVE",
"371 -177 CURVE SMOOTH",
"406 -177 OFFCURVE",
"424 -166 OFFCURVE",
"452 -149 CURVE"
);
}
);
userData = {
com.fontlab.hintData = {
hhints = (
{
position = -209;
width = 32;
},
{
position = 0;
width = 37;
},
{
position = 336;
width = 37;
},
{
position = 644;
width = 37;
}
);
vhints = (
{
position = 283;
width = 31;
}
);
};
};
width = 601;
}
);
unicode = 0118;
},
{
glyphname = F;
layers = (
{
layerId = master01;
paths = (
{
closed = 1;
nodes = (
"181 644 LINE",
"122 365 LINE",
"468 365 LINE",
"453 327 LINE",
"114 327 LINE",
"46 9 LINE",
"8 2 LINE",
"152 681 LINE",
"588 681 LINE",
"572 644 LINE"
);
}
);
userData = {
com.fontlab.hintData = {
hhints = (
{
position = 327;
width = 38;
},
{
position = 644;
width = 37;
}
);
};
};
width = 495;
}
);
unicode = 0046;
},
{
glyphname = G;
layers = (
{
layerId = master01;
paths = (
{
closed = 1;
nodes = (
"617 178 OFFCURVE",
"529 -2 OFFCURVE",
"299 -2 CURVE SMOOTH",
"155 -2 OFFCURVE",
"68 104 OFFCURVE",
"68 252 CURVE SMOOTH",
"68 460 OFFCURVE",
"251 682 OFFCURVE",
"464 682 CURVE SMOOTH",
"605 682 OFFCURVE",
"683 597 OFFCURVE",
"695 489 CURVE",
"660 482 LINE",
"653 584 OFFCURVE",
"584 648 OFFCURVE",
"457 648 CURVE SMOOTH",
"268 648 OFFCURVE",
"105 447 OFFCURVE",
"105 260 CURVE SMOOTH",
"105 139 OFFCURVE",
"167 33 OFFCURVE",
"307 33 CURVE SMOOTH",
"443 33 OFFCURVE",
"549 110 OFFCURVE",
"611 241 CURVE",
"590 243 OFFCURVE",
"576 243 OFFCURVE",
"570 243 CURVE SMOOTH",
"512 243 OFFCURVE",
"452 235 OFFCURVE",
"409 219 CURVE",
"417 256 LINE",
"466 269 OFFCURVE",
"525 277 OFFCURVE",
"580 277 CURVE SMOOTH",
"617 277 OFFCURVE",
"655 273 OFFCURVE",
"685 267 CURVE",
"678 231 LINE",
"670 233 OFFCURVE",
"658 237 OFFCURVE",
"643 238 CURVE"
);
}
);
userData = {
com.fontlab.hintData = {
hhints = (
{
position = -2;
width = 35;
},
{
position = 243;
width = 34;
},
{
position = 648;
width = 34;
}
);
vhints = (
{
position = 68;
width = 37;
},
{
position = 660;
width = 35;
}
);
};
};
width = 734;
}
);
unicode = 0047;
},
{
glyphname = Gcircumflex;
layers = (
{
layerId = master01;
paths = (
{
closed = 1;
nodes = (
"617 178 OFFCURVE",
"529 -2 OFFCURVE",
"299 -2 CURVE SMOOTH",
"155 -2 OFFCURVE",
"68 104 OFFCURVE",
"68 252 CURVE SMOOTH",
"68 460 OFFCURVE",
"251 682 OFFCURVE",
"464 682 CURVE SMOOTH",
"605 682 OFFCURVE",
"683 597 OFFCURVE",
"695 489 CURVE",
"660 482 LINE",
"653 584 OFFCURVE",
"584 648 OFFCURVE",
"457 648 CURVE SMOOTH",
"268 648 OFFCURVE",
"105 447 OFFCURVE",
"105 260 CURVE SMOOTH",
"105 139 OFFCURVE",
"167 33 OFFCURVE",
"307 33 CURVE SMOOTH",
"443 33 OFFCURVE",
"549 110 OFFCURVE",
"611 241 CURVE",
"590 243 OFFCURVE",
"576 243 OFFCURVE",
"570 243 CURVE SMOOTH",
"512 243 OFFCURVE",
"452 235 OFFCURVE",
"409 219 CURVE",
"417 256 LINE",
"466 269 OFFCURVE",
"525 277 OFFCURVE",
"580 277 CURVE SMOOTH",
"617 277 OFFCURVE",
"655 273 OFFCURVE",
"685 267 CURVE",
"678 231 LINE",
"670 233 OFFCURVE",
"658 237 OFFCURVE",
"643 238 CURVE"
);
},
{
closed = 1;
nodes = (
"343 771 LINE",
"507 884 LINE",
"602 771 LINE",
"574 745 LINE",
"494 833 LINE",
"359 743 LINE"
);
}
);
userData = {
com.fontlab.hintData = {
hhints = (
{
position = -2;
width = 35;
},
{
position = 243;
width = 34;
},
{
position = 648;
width = 34;
}
);
vhints = (
{
position = 68;
width = 37;
},
{
position = 660;
width = 35;
}
);
};
};
width = 734;
}
);
unicode = 011C;
},
{
glyphname = H;
layers = (
{
layerId = master01;
paths = (
{
closed = 1;
nodes = (
"705 679 LINE",
"564 18 LINE",
"524 3 LINE",
"600 361 LINE",
"111 295 LINE",
"52 18 LINE",
"12 3 LINE",
"154 672 LINE",
"193 679 LINE",
"119 333 LINE",
"608 399 LINE",
"666 672 LINE"
);
}
);
width = 673;
}
);
unicode = 0048;
},
{
glyphname = Hcircumflex;
layers = (
{
layerId = master01;
paths = (
{
closed = 1;
nodes = (
"705 679 LINE",
"564 18 LINE",
"524 3 LINE",
"600 361 LINE",
"111 295 LINE",
"52 18 LINE",
"12 3 LINE",
"154 672 LINE",
"193 679 LINE",
"119 333 LINE",
"608 399 LINE",
"666 672 LINE"
);
},
{
closed = 1;
nodes = (
"308 771 LINE",
"472 884 LINE",
"567 771 LINE",
"539 745 LINE",
"459 833 LINE",
"324 743 LINE"
);
}
);
width = 673;
}
);
unicode = 0124;
},
{
glyphname = I;
layers = (
{
layerId = master01;
paths = (
{
closed = 1;
nodes = (
"319 644 LINE",
"190 37 LINE",
"320 37 LINE",
"306 0 LINE",
"11 0 LINE",
"25 37 LINE",
"153 37 LINE",
"282 644 LINE",
"147 644 LINE",
"162 681 LINE",
"457 681 LINE",
"442 644 LINE"
);
}
);
userData = {
com.fontlab.hintData = {
hhints = (
{
position = 0;
width = 37;
},
{
position = 644;
width = 37;
}
);
};
};
width = 427;
}
);
unicode = 0049;
},
{
glyphname = Iacute;
layers = (
{
layerId = master01;
paths = (
{
closed = 1;
nodes = (
"409 896 LINE",
"440 864 LINE",
"268 760 LINE",
"247 784 LINE"
);
},
{
closed = 1;
nodes = (
"319 644 LINE",
"190 37 LINE",
"320 37 LINE",
"306 0 LINE",
"11 0 LINE",
"25 37 LINE",
"153 37 LINE",
"282 644 LINE",
"147 644 LINE",
"162 681 LINE",
"457 681 LINE",
"442 644 LINE"
);
}
);
userData = {
com.fontlab.hintData = {
hhints = (
{
position = 0;
width = 37;
},
{
position = 644;
width = 37;
}
);
};
};
width = 427;
}
);
unicode = 00CD;
},
{
glyphname = Icircumflex;
layers = (
{
layerId = master01;
paths = (
{
closed = 1;
nodes = (
"198 771 LINE",
"362 884 LINE",
"456 771 LINE",
"429 745 LINE",
"349 833 LINE",
"213 743 LINE"
);
},
{
closed = 1;
nodes = (
"319 644 LINE",
"190 37 LINE",
"320 37 LINE",
"306 0 LINE",
"11 0 LINE",
"25 37 LINE",
"153 37 LINE",
"282 644 LINE",
"147 644 LINE",
"162 681 LINE",
"457 681 LINE",
"442 644 LINE"
);
}
);
userData = {
com.fontlab.hintData = {
hhints = (
{
position = 0;
width = 37;
},
{
position = 644;
width = 37;
}
);
};
};
width = 427;
}
);
unicode = 00CE;
},
{
glyphname = Idieresis;
layers = (
{
layerId = master01;
paths = (
{
closed = 1;
nodes = (
"270 758 LINE",
"214 750 LINE",
"234 814 LINE",
"290 822 LINE"
);
},
{
closed = 1;
nodes = (
"436 758 LINE",
"380 750 LINE",
"400 814 LINE",
"456 822 LINE"
);
},
{
closed = 1;
nodes = (
"319 644 LINE",
"190 37 LINE",
"320 37 LINE",
"306 0 LINE",
"11 0 LINE",
"25 37 LINE",
"153 37 LINE",
"282 644 LINE",
"147 644 LINE",
"162 681 LINE",
"457 681 LINE",
"442 644 LINE"
);
}
);
userData = {
com.fontlab.hintData = {
hhints = (
{
position = 0;
width = 37;
},
{
position = 644;
width = 37;
}
);
};
};
width = 427;
}
);
unicode = 00CF;
},
{
glyphname = Igrave;
layers = (
{
layerId = master01;
paths = (
{
closed = 1;
nodes = (
"363 750 LINE",
"262 879 LINE",
"309 904 LINE",
"396 770 LINE"
);
},
{
closed = 1;
nodes = (
"319 644 LINE",
"190 37 LINE",
"320 37 LINE",
"306 0 LINE",
"11 0 LINE",
"25 37 LINE",
"153 37 LINE",
"282 644 LINE",
"147 644 LINE",
"162 681 LINE",
"457 681 LINE",
"442 644 LINE"
);
}
);
userData = {
com.fontlab.hintData = {
hhints = (
{
position = 0;
width = 37;
},
{
position = 644;
width = 37;
}
);
};
};
width = 427;
}
);
unicode = 00CC;
},
{
glyphname = J;
layers = (
{
layerId = master01;
paths = (
{
closed = 1;
nodes = (
"533 679 LINE",
"525 641 LINE",
"472 641 LINE",
"369 157 LINE SMOOTH",
"349 65 OFFCURVE",
"267 1 OFFCURVE",
"167 1 CURVE SMOOTH",
"81 1 OFFCURVE",
"27 51 OFFCURVE",
"27 123 CURVE SMOOTH",
"27 134 OFFCURVE",
"28 145 OFFCURVE",
"31 157 CURVE SMOOTH",
"36 183 LINE",
"75 191 LINE",
"68 157 LINE SMOOTH",
"66 147 OFFCURVE",
"65 138 OFFCURVE",
"65 130 CURVE SMOOTH",
"65 73 OFFCURVE",
"106 33 OFFCURVE",
"174 33 CURVE SMOOTH",
"254 33 OFFCURVE",
"316 84 OFFCURVE",
"332 157 CURVE SMOOTH",
"435 641 LINE",
"276 641 LINE",
"284 679 LINE"
);
}
);
userData = {
com.fontlab.hintData = {
hhints = (
{
position = 1;
width = 32;
},
{
position = 641;
width = 38;
}
);
vhints = (
{
position = 27;
width = 38;
}
);
};
};
width = 459;
}
);
unicode = 004A;
},
{
glyphname = Jcircumflex;
layers = (
{
layerId = master01;
paths = (
{
closed = 1;
nodes = (
"533 679 LINE",
"525 641 LINE",
"472 641 LINE",
"369 157 LINE SMOOTH",
"349 65 OFFCURVE",
"267 1 OFFCURVE",
"167 1 CURVE SMOOTH",
"81 1 OFFCURVE",
"27 51 OFFCURVE",
"27 123 CURVE SMOOTH",
"27 134 OFFCURVE",
"28 145 OFFCURVE",
"31 157 CURVE SMOOTH",
"36 183 LINE",
"75 191 LINE",
"68 157 LINE SMOOTH",
"66 147 OFFCURVE",
"65 138 OFFCURVE",
"65 130 CURVE SMOOTH",
"65 73 OFFCURVE",
"106 33 OFFCURVE",
"174 33 CURVE SMOOTH",
"254 33 OFFCURVE",
"316 84 OFFCURVE",
"332 157 CURVE SMOOTH",
"435 641 LINE",
"276 641 LINE",
"284 679 LINE"
);
},
{
closed = 1;
nodes = (
"303 771 LINE",
"467 884 LINE",
"562 771 LINE",
"534 745 LINE",
"454 833 LINE",
"319 743 LINE"
);
}
);
userData = {
com.fontlab.hintData = {
hhints = (
{
position = 1;
width = 32;
},
{
position = 641;
width = 38;
}
);
vhints = (
{
position = 27;
width = 38;
}
);
};
};
width = 459;
}
);
unicode = 0134;
},
{
glyphname = K;
layers = (
{
layerId = master01;
paths = (
{
closed = 1;
nodes = (
"443 4 LINE",
"112 304 LINE",
"49 9 LINE",
"13 2 LINE",
"155 672 LINE",
"192 679 LINE",
"126 368 LINE",
"558 675 LINE",
"574 649 LINE",
"134 336 LINE",
"469 32 LINE"
);
}
);
width = 567;
}
);
unicode = 004B;
},
{
glyphname = L;
layers = (
{
layerId = master01;
paths = (
{
closed = 1;
nodes = (
"155 669 LINE",
"193 676 LINE",
"58 40 LINE",
"416 66 LINE",
"412 30 LINE",
"13 1 LINE"
);
}
);
userData = {
com.fontlab.hintData = {
hhints = (
{
position = 1;
width = 21;
}
);
};
};
width = 477;
}
);
unicode = 004C;
},
{
glyphname = Lacute;
layers = (
{
layerId = master01;
paths = (
{
closed = 1;
nodes = (
"397 896 LINE",
"427 864 LINE",
"255 760 LINE",
"235 784 LINE"
);
},
{
closed = 1;
nodes = (
"155 669 LINE",
"193 676 LINE",
"58 40 LINE",
"416 66 LINE",
"397 30 LINE",
"13 1 LINE"
);
}
);
userData = {
com.fontlab.hintData = {
hhints = (
{
position = 1;
width = 21;
}
);
};
};
width = 477;
}
);
unicode = 0139;
},
{
glyphname = Lcaron;
layers = (
{
layerId = master01;
paths = (
{
closed = 1;
nodes = (
"201 669 LINE",
"239 676 LINE",
"104 40 LINE",
"462 66 LINE",
"458 30 LINE",
"59 1 LINE"
);
},
{
closed = 1;
nodes = (
"457 854 LINE",
"292 743 LINE",
"198 855 LINE",
"228 883 LINE",
"307 792 LINE",
"441 884 LINE"
);
}
);
userData = {
com.fontlab.hintData = {
hhints = (
{
position = 1;
width = 21;
}
);
};
};
width = 522;
}
);
unicode = 013D;
},
{
glyphname = Lslash;
layers = (
{
layerId = master01;
paths = (
{
closed = 1;
nodes = (
"77 1 LINE",
"143 312 LINE",
"72 272 LINE",
"56 304 LINE",
"152 357 LINE",
"219 669 LINE",
"257 676 LINE",
"194 380 LINE",
"266 420 LINE",
"280 388 LINE",
"185 335 LINE",
"122 40 LINE",
"479 66 LINE",
"475 30 LINE"
);
}
);
userData = {
com.fontlab.hintData = {
hhints = (
{
position = 1;
width = 21;
}
);
};
};
width = 539;
}
);
unicode = 0141;
},
{
glyphname = M;
layers = (
{
layerId = master01;
paths = (
{
closed = 1;
nodes = (
"396 9 LINE",
"333 1 LINE",
"289 607 LINE",
"34 9 LINE",
"-3 2 LINE",
"280 672 LINE",
"320 679 LINE",
"367 20 LINE",
"714 672 LINE",
"758 680 LINE",
"762 9 LINE",
"723 1 LINE",
"723 622 LINE"
);
}
);
userData = {
com.fontlab.hintData = {
hhints = (
{
position = 1;
width = 21;
},
{
position = 660;
width = 20;
}
);
vhints = (
{
position = 723;
width = 39;
}
);
};
};
width = 855;
}
);
unicode = 004D;
},
{
glyphname = N;
layers = (
{
layerId = master01;
paths = (
{
closed = 1;
nodes = (
"636 679 LINE",
"494 12 LINE",
"440 1 LINE",
"182 631 LINE",
"50 11 LINE",
"14 3 LINE",
"154 666 LINE",
"203 680 LINE",
"467 45 LINE",
"600 672 LINE"
);
}
);
userData = {
com.fontlab.hintData = {
hhints = (
{
position = 1;
width = 21;
},
{
position = 660;
width = 20;
}
);
};
};
width = 605;
}
);
unicode = 004E;
},
{
glyphname = Nacute;
layers = (
{
layerId = master01;
paths = (
{
closed = 1;
nodes = (
"493 896 LINE",
"524 864 LINE",
"352 760 LINE",
"331 784 LINE"
);
},
{
closed = 1;
nodes = (
"636 679 LINE",
"494 12 LINE",
"440 1 LINE",
"182 631 LINE",
"50 11 LINE",
"14 3 LINE",
"154 666 LINE",
"203 680 LINE",
"467 45 LINE",
"600 672 LINE"
);
}
);
userData = {
com.fontlab.hintData = {
hhints = (
{
position = 1;
width = 21;
},
{
position = 660;
width = 20;
}
);
};
};
width = 605;
}
);
unicode = 0143;
},
{
glyphname = Ncaron;
layers = (
{
layerId = master01;
paths = (
{
closed = 1;
nodes = (
"574 854 LINE",
"409 743 LINE",
"314 855 LINE",
"344 883 LINE",
"423 792 LINE",
"558 884 LINE"
);
},
{
closed = 1;
nodes = (
"636 679 LINE",
"494 12 LINE",
"440 1 LINE",
"182 631 LINE",
"50 11 LINE",
"14 3 LINE",
"154 666 LINE",
"203 680 LINE",
"467 45 LINE",
"600 672 LINE"
);
}
);
userData = {
com.fontlab.hintData = {
hhints = (
{
position = 1;
width = 21;
},
{
position = 660;
width = 20;
}
);
};
};
width = 605;
}
);
unicode = 0147;
},
{
glyphname = Ntilde;
layers = (
{
layerId = master01;
paths = (
{
closed = 1;
nodes = (
"636 679 LINE",
"494 12 LINE",
"440 1 LINE",
"182 631 LINE",
"50 11 LINE",
"14 3 LINE",
"154 666 LINE",
"203 680 LINE",
"467 45 LINE",
"600 672 LINE"
);
},
{
closed = 1;
nodes = (
"460 781 OFFCURVE",
"469 774 OFFCURVE",
"490 774 CURVE SMOOTH",
"528 774 OFFCURVE",
"562 821 OFFCURVE",
"580 855 CURVE",
"609 845 LINE",
"580 789 OFFCURVE",
"527 743 OFFCURVE",
"483 743 CURVE SMOOTH",
"442 743 OFFCURVE",
"426 774 OFFCURVE",
"413 801 CURVE SMOOTH",
"395 838 OFFCURVE",
"385 844 OFFCURVE",
"365 844 CURVE SMOOTH",
"331 844 OFFCURVE",
"296 802 OFFCURVE",
"279 771 CURVE",
"252 781 LINE",
"277 825 OFFCURVE",
"320 876 OFFCURVE",
"372 876 CURVE SMOOTH",
"414 876 OFFCURVE",
"429 845 OFFCURVE",
"442 820 CURVE"
);
}
);
userData = {
com.fontlab.hintData = {
hhints = (
{
position = 1;
width = 21;
},
{
position = 660;
width = 20;
},
{
position = 743;
width = 31;
},
{
position = 844;
width = 32;
}
);
};
};
width = 605;
}
);
unicode = 00D1;
},
{
glyphname = O;
layers = (
{
layerId = master01;
paths = (
{
closed = 1;
nodes = (
"133 -2 OFFCURVE",
"64 98 OFFCURVE",
"64 229 CURVE SMOOTH",
"64 465 OFFCURVE",
"267 682 OFFCURVE",
"441 682 CURVE SMOOTH",
"559 682 OFFCURVE",
"630 584 OFFCURVE",
"630 452 CURVE SMOOTH",
"630 217 OFFCURVE",
"426 -2 OFFCURVE",
"252 -2 CURVE SMOOTH"
);
},
{
closed = 1;
nodes = (
"286 649 OFFCURVE",
"98 456 OFFCURVE",
"98 233 CURVE SMOOTH",
"98 117 OFFCURVE",
"158 31 OFFCURVE",
"259 31 CURVE SMOOTH",
"406 31 OFFCURVE",
"594 227 OFFCURVE",
"594 438 CURVE SMOOTH",
"594 553 OFFCURVE",
"536 649 OFFCURVE",
"430 649 CURVE SMOOTH"
);
}
);
userData = {
com.fontlab.hintData = {
hhints = (
{
position = -2;
width = 33;
},
{
position = 649;
width = 33;
}
);
vhints = (
{
position = 64;
width = 34;
},
{
position = 594;
width = 36;
}
);
};
};
width = 650;
}
);
unicode = 004F;
},
{
glyphname = Oacute;
layers = (
{
layerId = master01;
paths = (
{
closed = 1;
nodes = (
"549 896 LINE",
"581 864 LINE",
"408 760 LINE",
"387 784 LINE"
);
},
{
closed = 1;
nodes = (
"133 -2 OFFCURVE",
"64 98 OFFCURVE",
"64 229 CURVE SMOOTH",
"64 465 OFFCURVE",
"267 682 OFFCURVE",
"441 682 CURVE SMOOTH",
"559 682 OFFCURVE",
"630 584 OFFCURVE",
"630 452 CURVE SMOOTH",
"630 217 OFFCURVE",
"426 -2 OFFCURVE",
"252 -2 CURVE SMOOTH"
);
},
{
closed = 1;
nodes = (
"286 649 OFFCURVE",
"98 456 OFFCURVE",
"98 233 CURVE SMOOTH",
"98 117 OFFCURVE",
"158 31 OFFCURVE",
"259 31 CURVE SMOOTH",
"406 31 OFFCURVE",
"594 227 OFFCURVE",
"594 438 CURVE SMOOTH",
"594 553 OFFCURVE",
"536 649 OFFCURVE",
"430 649 CURVE SMOOTH"
);
}
);
userData = {
com.fontlab.hintData = {
hhints = (
{
position = -2;
width = 33;
},
{
position = 649;
width = 33;
}
);
vhints = (
{
position = 64;
width = 34;
},
{
position = 594;
width = 36;
}
);
};
};
width = 650;
}
);
unicode = 00D3;
},
{
glyphname = Ocircumflex;
layers = (
{
layerId = master01;
paths = (
{
closed = 1;
nodes = (
"336 771 LINE",
"501 884 LINE",
"596 771 LINE",
"568 745 LINE",
"488 833 LINE",
"352 743 LINE"
);
},
{
closed = 1;
nodes = (
"133 -2 OFFCURVE",
"64 98 OFFCURVE",
"64 229 CURVE SMOOTH",
"64 465 OFFCURVE",
"267 682 OFFCURVE",
"441 682 CURVE SMOOTH",
"559 682 OFFCURVE",
"630 584 OFFCURVE",
"630 452 CURVE SMOOTH",
"630 217 OFFCURVE",
"426 -2 OFFCURVE",
"252 -2 CURVE SMOOTH"
);
},
{
closed = 1;
nodes = (
"286 649 OFFCURVE",
"98 456 OFFCURVE",
"98 233 CURVE SMOOTH",
"98 117 OFFCURVE",
"158 31 OFFCURVE",
"259 31 CURVE SMOOTH",
"406 31 OFFCURVE",
"594 227 OFFCURVE",
"594 438 CURVE SMOOTH",
"594 553 OFFCURVE",
"536 649 OFFCURVE",
"430 649 CURVE SMOOTH"
);
}
);
userData = {
com.fontlab.hintData = {
hhints = (
{
position = -2;
width = 33;
},
{
position = 649;
width = 33;
}
);
vhints = (
{
position = 64;
width = 34;
},
{
position = 594;
width = 36;
}
);
};
};
width = 650;
}
);
unicode = 00D4;
},
{
glyphname = Odieresis;
layers = (
{
layerId = master01;
paths = (
{
closed = 1;
nodes = (
"400 758 LINE",
"344 750 LINE",
"365 814 LINE",
"420 822 LINE"
);
},
{
closed = 1;
nodes = (
"565 758 LINE",
"509 750 LINE",
"529 814 LINE",
"585 822 LINE"
);
},
{
closed = 1;
nodes = (
"133 -2 OFFCURVE",
"64 98 OFFCURVE",
"64 229 CURVE SMOOTH",
"64 465 OFFCURVE",
"267 682 OFFCURVE",
"441 682 CURVE SMOOTH",
"559 682 OFFCURVE",
"630 584 OFFCURVE",
"630 452 CURVE SMOOTH",
"630 217 OFFCURVE",
"426 -2 OFFCURVE",
"252 -2 CURVE SMOOTH"
);
},
{
closed = 1;
nodes = (
"286 649 OFFCURVE",
"98 456 OFFCURVE",
"98 233 CURVE SMOOTH",
"98 117 OFFCURVE",
"158 31 OFFCURVE",
"259 31 CURVE SMOOTH",
"406 31 OFFCURVE",
"594 227 OFFCURVE",
"594 438 CURVE SMOOTH",
"594 553 OFFCURVE",
"536 649 OFFCURVE",
"430 649 CURVE SMOOTH"
);
}
);
userData = {
com.fontlab.hintData = {
hhints = (
{
position = -2;
width = 33;
},
{
position = 649;
width = 33;
}
);
vhints = (
{
position = 64;
width = 34;
},
{
position = 594;
width = 36;
}
);
};
};
width = 650;
}
);
unicode = 00D6;
},
{
glyphname = Ograve;
layers = (
{
layerId = master01;
paths = (
{
closed = 1;
nodes = (
"494 750 LINE",
"393 879 LINE",
"440 904 LINE",
"528 770 LINE"
);
},
{
closed = 1;
nodes = (
"133 -2 OFFCURVE",
"64 98 OFFCURVE",
"64 229 CURVE SMOOTH",
"64 465 OFFCURVE",
"267 682 OFFCURVE",
"441 682 CURVE SMOOTH",
"559 682 OFFCURVE",
"630 584 OFFCURVE",
"630 452 CURVE SMOOTH",
"630 217 OFFCURVE",
"426 -2 OFFCURVE",
"252 -2 CURVE SMOOTH"
);
},
{
closed = 1;
nodes = (
"286 649 OFFCURVE",
"98 456 OFFCURVE",
"98 233 CURVE SMOOTH",
"98 117 OFFCURVE",
"158 31 OFFCURVE",
"259 31 CURVE SMOOTH",
"406 31 OFFCURVE",
"594 227 OFFCURVE",
"594 438 CURVE SMOOTH",
"594 553 OFFCURVE",
"536 649 OFFCURVE",
"430 649 CURVE SMOOTH"
);
}
);
userData = {
com.fontlab.hintData = {
hhints = (
{
position = -2;
width = 33;
},
{
position = 649;
width = 33;
}
);
vhints = (
{
position = 64;
width = 34;
},
{
position = 594;
width = 36;
}
);
};
};
width = 650;
}
);
unicode = 00D2;
},
{
glyphname = Ohungarumlaut;
layers = (
{
layerId = master01;
paths = (
{
closed = 1;
nodes = (
"458 896 LINE",
"488 864 LINE",
"315 760 LINE",
"296 784 LINE"
);
},
{
closed = 1;
nodes = (
"623 896 LINE",
"654 864 LINE",
"480 760 LINE",
"461 784 LINE"
);
},
{
closed = 1;
nodes = (
"133 -2 OFFCURVE",
"64 98 OFFCURVE",
"64 229 CURVE SMOOTH",
"64 465 OFFCURVE",
"267 682 OFFCURVE",
"441 682 CURVE SMOOTH",
"559 682 OFFCURVE",
"630 584 OFFCURVE",
"630 452 CURVE SMOOTH",
"630 217 OFFCURVE",
"426 -2 OFFCURVE",
"252 -2 CURVE SMOOTH"
);
},
{
closed = 1;
nodes = (
"286 649 OFFCURVE",
"98 456 OFFCURVE",
"98 233 CURVE SMOOTH",
"98 117 OFFCURVE",
"158 31 OFFCURVE",
"259 31 CURVE SMOOTH",
"406 31 OFFCURVE",
"594 227 OFFCURVE",
"594 438 CURVE SMOOTH",
"594 553 OFFCURVE",
"536 649 OFFCURVE",
"430 649 CURVE SMOOTH"
);
}
);
userData = {
com.fontlab.hintData = {
hhints = (
{
position = -2;
width = 33;
},
{
position = 649;
width = 33;
}
);
vhints = (
{
position = 64;
width = 34;
},
{
position = 594;
width = 36;
}
);
};
};
width = 650;
}
);
unicode = 0150;
},
{
glyphname = Oslash;
layers = (
{
layerId = master01;
paths = (
{
closed = 1;
nodes = (
"568 633 LINE",
"612 590 OFFCURVE",
"631 527 OFFCURVE",
"631 459 CURVE SMOOTH",
"631 221 OFFCURVE",
"429 -1 OFFCURVE",
"252 -1 CURVE SMOOTH",
"206 -1 OFFCURVE",
"161 19 OFFCURVE",
"123 53 CURVE",
"58 -31 LINE",
"34 -13 LINE",
"103 77 LINE",
"77 119 OFFCURVE",
"64 171 OFFCURVE",
"64 228 CURVE SMOOTH",
"64 473 OFFCURVE",
"265 683 OFFCURVE",
"442 683 CURVE SMOOTH",
"477 683 OFFCURVE",
"512 673 OFFCURVE",
"545 651 CURVE",
"610 738 LINE",
"636 721 LINE"
);
},
{
closed = 1;
nodes = (
"520 620 LINE",
"491 640 OFFCURVE",
"460 650 OFFCURVE",
"427 650 CURVE SMOOTH",
"283 650 OFFCURVE",
"98 455 OFFCURVE",
"98 232 CURVE SMOOTH",
"98 186 OFFCURVE",
"108 143 OFFCURVE",
"127 107 CURVE"
);
},
{
closed = 1;
nodes = (
"458 32 OFFCURVE",
"595 299 OFFCURVE",
"595 446 CURVE SMOOTH",
"595 504 OFFCURVE",
"580 561 OFFCURVE",
"543 600 CURVE",
"145 82 LINE",
"177 49 OFFCURVE",
"215 32 OFFCURVE",
"259 32 CURVE SMOOTH"
);
}
);
userData = {
com.fontlab.hintData = {
hhints = (
{
position = -1;
width = 33;
},
{
position = 650;
width = 33;
}
);
vhints = (
{
position = 64;
width = 34;
},
{
position = 595;
width = 36;
}
);
};
};
width = 650;
}
);
unicode = 00D8;
},
{
glyphname = Otilde;
layers = (
{
layerId = master01;
paths = (
{
closed = 1;
nodes = (
"133 -2 OFFCURVE",
"64 98 OFFCURVE",
"64 229 CURVE SMOOTH",
"64 465 OFFCURVE",
"267 682 OFFCURVE",
"441 682 CURVE SMOOTH",
"559 682 OFFCURVE",
"630 584 OFFCURVE",
"630 452 CURVE SMOOTH",
"630 217 OFFCURVE",
"426 -2 OFFCURVE",
"252 -2 CURVE SMOOTH"
);
},
{
closed = 1;
nodes = (
"286 649 OFFCURVE",
"98 456 OFFCURVE",
"98 233 CURVE SMOOTH",
"98 117 OFFCURVE",
"158 31 OFFCURVE",
"259 31 CURVE SMOOTH",
"406 31 OFFCURVE",
"594 227 OFFCURVE",
"594 438 CURVE SMOOTH",
"594 553 OFFCURVE",
"536 649 OFFCURVE",
"430 649 CURVE SMOOTH"
);
},
{
closed = 1;
nodes = (
"500 781 OFFCURVE",
"509 774 OFFCURVE",
"530 774 CURVE SMOOTH",
"568 774 OFFCURVE",
"602 821 OFFCURVE",
"620 855 CURVE",
"649 845 LINE",
"620 789 OFFCURVE",
"567 743 OFFCURVE",
"523 743 CURVE SMOOTH",
"482 743 OFFCURVE",
"466 774 OFFCURVE",
"453 801 CURVE SMOOTH",
"435 838 OFFCURVE",
"425 844 OFFCURVE",
"405 844 CURVE SMOOTH",
"371 844 OFFCURVE",
"336 802 OFFCURVE",
"319 771 CURVE",
"292 781 LINE",
"317 825 OFFCURVE",
"360 876 OFFCURVE",
"412 876 CURVE SMOOTH",
"454 876 OFFCURVE",
"469 845 OFFCURVE",
"482 820 CURVE"
);
}
);
userData = {
com.fontlab.hintData = {
hhints = (
{
position = -2;
width = 33;
},
{
position = 649;
width = 33;
},
{
position = 743;
width = 31;
},
{
position = 844;
width = 32;
}
);
vhints = (
{
position = 64;
width = 34;
},
{
position = 594;
width = 36;
}
);
};
};
width = 650;
}
);
unicode = 00D5;
},
{
glyphname = OE;
layers = (
{
layerId = master01;
paths = (
{
closed = 1;
nodes = (
"548 202 LINE",
"467 77 OFFCURVE",
"359 0 OFFCURVE",
"250 0 CURVE SMOOTH",
"131 0 OFFCURVE",
"61 99 OFFCURVE",
"61 230 CURVE SMOOTH",
"61 465 OFFCURVE",
"260 684 OFFCURVE",
"438 684 CURVE SMOOTH",
"512 684 OFFCURVE",
"596 635 OFFCURVE",
"618 529 CURVE",
"650 681 LINE",
"1122 681 LINE",
"1107 644 LINE",
"679 644 LINE",
"622 373 LINE",
"1014 373 LINE",
"995 336 LINE",
"614 336 LINE",
"550 37 LINE",
"990 37 LINE",
"968 0 LINE",
"506 0 LINE"
);
},
{
closed = 1;
nodes = (
"587.34 385.379 OFFCURVE",
"589.722 408.251 OFFCURVE",
"589.722 431.949 CURVE SMOOTH",
"589.722 533.838 OFFCURVE",
"545.695 651 OFFCURVE",
"424 651 CURVE SMOOTH",
"280 651 OFFCURVE",
"95 458 OFFCURVE",
"95 236 CURVE SMOOTH",
"95 120 OFFCURVE",
"155 33 OFFCURVE",
"257 33 CURVE SMOOTH",
"386 33 OFFCURVE",
"526 161 OFFCURVE",
"583 365 CURVE"
);
}
);
userData = {
com.fontlab.hintData = {
hhints = (
{
position = 0;
width = 33;
},
{
position = 336;
width = 37;
},
{
position = 644;
width = 37;
},
{
position = 651;
width = 33;
}
);
vhints = (
{
position = 61;
width = 34;
}
);
};
};
width = 1083;
}
);
unicode = 0152;
},
{
glyphname = P;
layers = (
{
layerId = master01;
paths = (
{
closed = 1;
nodes = (
"50 9 LINE",
"13 2 LINE",
"156 675 LINE",
"180 677 OFFCURVE",
"227 679 OFFCURVE",
"262 679 CURVE SMOOTH",
"389 679 OFFCURVE",
"561 655 OFFCURVE",
"561 517 CURVE SMOOTH",
"561 323 OFFCURVE",
"295 251 OFFCURVE",
"101 245 CURVE"
);
},
{
closed = 1;
nodes = (
"108 281 LINE",
"373 292 OFFCURVE",
"523 388 OFFCURVE",
"523 507 CURVE SMOOTH",
"523 584 OFFCURVE",
"458 642 OFFCURVE",
"243 642 CURVE SMOOTH",
"185 642 LINE"
);
}
);
userData = {
com.fontlab.hintData = {
hhints = (
{
position = 245;
width = 36;
},
{
position = 642;
width = 37;
}
);
vhints = (
{
position = 523;
width = 38;
}
);
};
};
width = 535;
}
);
unicode = 0050;
},
{
glyphname = Thorn;
layers = (
{
layerId = master01;
paths = (
{
closed = 1;
nodes = (
"194 683 LINE",
"170 573 LINE",
"301 573 OFFCURVE",
"500 559 OFFCURVE",
"500 416 CURVE SMOOTH",
"500 210 OFFCURVE",
"233 156 OFFCURVE",
"78 146 CURVE",
"49 10 LINE",
"13 3 LINE",
"156 676 LINE"
);
},
{
closed = 1;
nodes = (
"87 187 LINE",
"293 193 OFFCURVE",
"462 272 OFFCURVE",
"462 408 CURVE SMOOTH",
"462 503 OFFCURVE",
"340 535 OFFCURVE",
"162 535 CURVE"
);
}
);
userData = {
com.fontlab.hintData = {
hhints = (
{
position = 146;
width = 41;
},
{
position = 535;
width = 38;
},
{
position = 663;
width = 20;
}
);
vhints = (
{
position = 462;
width = 38;
}
);
};
};
width = 496;
}
);
unicode = 00DE;
},
{
glyphname = Q;
layers = (
{
layerId = master01;
paths = (
{
closed = 1;
nodes = (
"611 -1 LINE",
"589 -33 LINE",
"467 61 LINE",
"404 22 OFFCURVE",
"337 -1 OFFCURVE",
"277 -1 CURVE SMOOTH",
"140 -1 OFFCURVE",
"55 103 OFFCURVE",
"55 240 CURVE SMOOTH",
"55 472 OFFCURVE",
"274 679 OFFCURVE",
"468 679 CURVE SMOOTH",
"606 679 OFFCURVE",
"692 576 OFFCURVE",
"692 440 CURVE SMOOTH",
"692 306 OFFCURVE",
"612 174 OFFCURVE",
"500 83 CURVE"
);
},
{
closed = 1;
nodes = (
"476 107 LINE",
"576 184 OFFCURVE",
"648 308 OFFCURVE",
"648 427 CURVE SMOOTH",
"648 544 OFFCURVE",
"579 644 OFFCURVE",
"458 644 CURVE SMOOTH",
"293 644 OFFCURVE",
"97 454 OFFCURVE",
"97 242 CURVE SMOOTH",
"97 121 OFFCURVE",
"169 33 OFFCURVE",
"285 33 CURVE SMOOTH",
"333 33 OFFCURVE",
"390 53 OFFCURVE",
"444 84 CURVE",
"344 158 LINE",
"381 177 LINE"
);
}
);
userData = {
com.fontlab.hintData = {
hhints = (
{
position = -1;
width = 34;
},
{
position = 644;
width = 35;
}
);
vhints = (
{
position = 55;
width = 42;
},
{
position = 648;
width = 44;
}
);
};
};
width = 711;
}
);
unicode = 0051;
},
{
glyphname = R;
layers = (
{
layerId = master01;
paths = (
{
closed = 1;
nodes = (
"110 283 LINE",
"356 292 OFFCURVE",
"532 389 OFFCURVE",
"532 510 CURVE SMOOTH",
"532 589 OFFCURVE",
"463 649 OFFCURVE",
"240 649 CURVE SMOOTH",
"187 649 LINE"
);
},
{
closed = 1;
nodes = (
"50 9 LINE",
"13 2 LINE",
"158 683 LINE",
"180 685 OFFCURVE",
"226 687 OFFCURVE",
"261 687 CURVE SMOOTH",
"391 687 OFFCURVE",
"569 663 OFFCURVE",
"569 521 CURVE SMOOTH",
"569 423 OFFCURVE",
"478 326 OFFCURVE",
"314 278 CURVE",
"371 238 OFFCURVE",
"443 162 OFFCURVE",
"488 31 CURVE",
"456 6 LINE",
"408 156 OFFCURVE",
"332 218 OFFCURVE",
"287 244 CURVE SMOOTH",
"272 253 OFFCURVE",
"243 257 OFFCURVE",
"220 257 CURVE SMOOTH",
"195 257 OFFCURVE",
"143 250 OFFCURVE",
"100 242 CURVE"
);
}
);
userData = {
com.fontlab.hintData = {
hhints = (
{
position = 257;
width = 26;
},
{
position = 649;
width = 38;
}
);
vhints = (
{
position = 532;
width = 37;
}
);
};
};
width = 584;
}
);
unicode = 0052;
},
{
glyphname = Racute;
layers = (
{
layerId = master01;
paths = (
{
closed = 1;
nodes = (
"443 896 LINE",
"474 864 LINE",
"300 760 LINE",
"281 784 LINE"
);
},
{
closed = 1;
nodes = (
"110 283 LINE",
"356 292 OFFCURVE",
"532 389 OFFCURVE",
"532 510 CURVE SMOOTH",
"532 589 OFFCURVE",
"463 649 OFFCURVE",
"240 649 CURVE SMOOTH",
"187 649 LINE"
);
},
{
closed = 1;
nodes = (
"50 9 LINE",
"13 2 LINE",
"158 683 LINE",
"180 685 OFFCURVE",
"226 687 OFFCURVE",
"261 687 CURVE SMOOTH",
"391 687 OFFCURVE",
"569 663 OFFCURVE",
"569 521 CURVE SMOOTH",
"569 423 OFFCURVE",
"478 326 OFFCURVE",
"314 278 CURVE",
"371 238 OFFCURVE",
"443 162 OFFCURVE",
"488 31 CURVE",
"456 6 LINE",
"408 156 OFFCURVE",
"332 218 OFFCURVE",
"287 244 CURVE SMOOTH",
"272 253 OFFCURVE",
"243 257 OFFCURVE",
"220 257 CURVE SMOOTH",
"195 257 OFFCURVE",
"143 250 OFFCURVE",
"100 242 CURVE"
);
}
);
userData = {
com.fontlab.hintData = {
hhints = (
{
position = 257;
width = 26;
},
{
position = 649;
width = 38;
}
);
vhints = (
{
position = 532;
width = 37;
}
);
};
};
width = 584;
}
);
unicode = 0154;
},
{
glyphname = Rcaron;
layers = (
{
layerId = master01;
paths = (
{
closed = 1;
nodes = (
"538 854 LINE",
"373 743 LINE",
"278 855 LINE",
"308 883 LINE",
"387 792 LINE",
"522 884 LINE"
);
},
{
closed = 1;
nodes = (
"110 283 LINE",
"356 292 OFFCURVE",
"532 389 OFFCURVE",
"532 510 CURVE SMOOTH",
"532 589 OFFCURVE",
"463 649 OFFCURVE",
"240 649 CURVE SMOOTH",
"187 649 LINE"
);
},
{
closed = 1;
nodes = (
"50 9 LINE",
"13 2 LINE",
"158 683 LINE",
"180 685 OFFCURVE",
"226 687 OFFCURVE",
"261 687 CURVE SMOOTH",
"391 687 OFFCURVE",
"569 663 OFFCURVE",
"569 521 CURVE SMOOTH",
"569 423 OFFCURVE",
"478 326 OFFCURVE",
"314 278 CURVE",
"371 238 OFFCURVE",
"443 162 OFFCURVE",
"488 31 CURVE",
"456 6 LINE",
"408 156 OFFCURVE",
"332 218 OFFCURVE",
"287 244 CURVE SMOOTH",
"272 253 OFFCURVE",
"243 257 OFFCURVE",
"220 257 CURVE SMOOTH",
"195 257 OFFCURVE",
"143 250 OFFCURVE",
"100 242 CURVE"
);
}
);
userData = {
com.fontlab.hintData = {
hhints = (
{
position = 257;
width = 26;
},
{
position = 649;
width = 38;
}
);
vhints = (
{
position = 532;
width = 37;
}
);
};
};
width = 584;
}
);
unicode = 0158;
},
{
glyphname = S;
layers = (
{
layerId = master01;
paths = (
{
closed = 1;
nodes = (
"321 646 OFFCURVE",
"194 614 OFFCURVE",
"194 498 CURVE SMOOTH",
"194 440 OFFCURVE",
"248 406 OFFCURVE",
"341 378 CURVE SMOOTH",
"458 342 OFFCURVE",
"521 289 OFFCURVE",
"521 215 CURVE SMOOTH",
"521 67 OFFCURVE",
"354 -1 OFFCURVE",
"251 -1 CURVE SMOOTH",
"139 -1 OFFCURVE",
"57 54 OFFCURVE",
"41 138 CURVE",
"84 145 LINE",
"101 67 OFFCURVE",
"178 33 OFFCURVE",
"254 33 CURVE SMOOTH",
"356 33 OFFCURVE",
"481 99 OFFCURVE",
"481 206 CURVE SMOOTH",
"481 244 OFFCURVE",
"457 303 OFFCURVE",
"326 340 CURVE SMOOTH",
"243 364 OFFCURVE",
"152 406 OFFCURVE",
"152 491 CURVE SMOOTH",
"152 630 OFFCURVE",
"294 681 OFFCURVE",
"418 681 CURVE SMOOTH",
"499 681 OFFCURVE",
"594 655 OFFCURVE",
"594 572 CURVE SMOOTH",
"594 564 OFFCURVE",
"593 555 OFFCURVE",
"591 545 CURVE SMOOTH",
"589 536 LINE",
"555 527 LINE",
"556 532 LINE SMOOTH",
"557 540 OFFCURVE",
"558 547 OFFCURVE",
"558 554 CURVE SMOOTH",
"558 628 OFFCURVE",
"469 646 OFFCURVE",
"411 646 CURVE SMOOTH"
);
}
);
userData = {
com.fontlab.hintData = {
hhints = (
{
position = -1;
width = 34;
},
{
position = 646;
width = 35;
}
);
vhints = (
{
position = 41;
width = 43;
},
{
position = 152;
width = 42;
},
{
position = 481;
width = 40;
},
{
position = 558;
width = 36;
}
);
};
};
width = 589;
}
);
unicode = 0053;
},
{
glyphname = Sacute;
layers = (
{
layerId = master01;
paths = (
{
closed = 1;
nodes = (
"501 896 LINE",
"533 864 LINE",
"359 760 LINE",
"339 784 LINE"
);
},
{
closed = 1;
nodes = (
"321 646 OFFCURVE",
"194 614 OFFCURVE",
"194 498 CURVE SMOOTH",
"194 440 OFFCURVE",
"248 406 OFFCURVE",
"341 378 CURVE SMOOTH",
"458 342 OFFCURVE",
"521 289 OFFCURVE",
"521 215 CURVE SMOOTH",
"521 67 OFFCURVE",
"354 -1 OFFCURVE",
"251 -1 CURVE SMOOTH",
"139 -1 OFFCURVE",
"57 54 OFFCURVE",
"41 138 CURVE",
"84 145 LINE",
"101 67 OFFCURVE",
"178 33 OFFCURVE",
"254 33 CURVE SMOOTH",
"356 33 OFFCURVE",
"481 99 OFFCURVE",
"481 206 CURVE SMOOTH",
"481 244 OFFCURVE",
"457 303 OFFCURVE",
"326 340 CURVE SMOOTH",
"243 364 OFFCURVE",
"152 406 OFFCURVE",
"152 491 CURVE SMOOTH",
"152 630 OFFCURVE",
"294 681 OFFCURVE",
"418 681 CURVE SMOOTH",
"499 681 OFFCURVE",
"594 655 OFFCURVE",
"594 572 CURVE SMOOTH",
"594 564 OFFCURVE",
"593 555 OFFCURVE",
"591 545 CURVE SMOOTH",
"589 536 LINE",
"555 527 LINE",
"556 532 LINE SMOOTH",
"557 540 OFFCURVE",
"558 547 OFFCURVE",
"558 554 CURVE SMOOTH",
"558 628 OFFCURVE",
"469 646 OFFCURVE",
"411 646 CURVE SMOOTH"
);
}
);
userData = {
com.fontlab.hintData = {
hhints = (
{
position = -1;
width = 34;
},
{
position = 646;
width = 35;
}
);
vhints = (
{
position = 41;
width = 43;
},
{
position = 152;
width = 42;
},
{
position = 481;
width = 40;
},
{
position = 558;
width = 36;
}
);
};
};
width = 589;
}
);
unicode = 015A;
},
{
glyphname = Scaron;
layers = (
{
layerId = master01;
paths = (
{
closed = 1;
nodes = (
"587 854 LINE",
"423 743 LINE",
"329 855 LINE",
"358 883 LINE",
"437 792 LINE",
"572 884 LINE"
);
},
{
closed = 1;
nodes = (
"321 646 OFFCURVE",
"194 614 OFFCURVE",
"194 498 CURVE SMOOTH",
"194 440 OFFCURVE",
"248 406 OFFCURVE",
"341 378 CURVE SMOOTH",
"458 342 OFFCURVE",
"521 289 OFFCURVE",
"521 215 CURVE SMOOTH",
"521 67 OFFCURVE",
"354 -1 OFFCURVE",
"251 -1 CURVE SMOOTH",
"139 -1 OFFCURVE",
"57 54 OFFCURVE",
"41 138 CURVE",
"84 145 LINE",
"101 67 OFFCURVE",
"178 33 OFFCURVE",
"254 33 CURVE SMOOTH",
"356 33 OFFCURVE",
"481 99 OFFCURVE",
"481 206 CURVE SMOOTH",
"481 244 OFFCURVE",
"457 303 OFFCURVE",
"326 340 CURVE SMOOTH",
"243 364 OFFCURVE",
"152 406 OFFCURVE",
"152 491 CURVE SMOOTH",
"152 630 OFFCURVE",
"294 681 OFFCURVE",
"418 681 CURVE SMOOTH",
"499 681 OFFCURVE",
"594 655 OFFCURVE",
"594 572 CURVE SMOOTH",
"594 564 OFFCURVE",
"593 555 OFFCURVE",
"591 545 CURVE SMOOTH",
"589 536 LINE",
"555 527 LINE",
"556 532 LINE SMOOTH",
"557 540 OFFCURVE",
"558 547 OFFCURVE",
"558 554 CURVE SMOOTH",
"558 628 OFFCURVE",
"469 646 OFFCURVE",
"411 646 CURVE SMOOTH"
);
}
);
userData = {
com.fontlab.hintData = {
hhints = (
{
position = -1;
width = 34;
},
{
position = 646;
width = 35;
}
);
vhints = (
{
position = 41;
width = 43;
},
{
position = 152;
width = 42;
},
{
position = 481;
width = 40;
},
{
position = 558;
width = 36;
}
);
};
};
width = 589;
}
);
unicode = 0160;
},
{
glyphname = Scedilla;
layers = (
{
layerId = master01;
paths = (
{
closed = 1;
nodes = (
"321 646 OFFCURVE",
"194 614 OFFCURVE",
"194 498 CURVE SMOOTH",
"194 440 OFFCURVE",
"248 406 OFFCURVE",
"341 378 CURVE SMOOTH",
"458 342 OFFCURVE",
"521 289 OFFCURVE",
"521 215 CURVE SMOOTH",
"521 67 OFFCURVE",
"354 -1 OFFCURVE",
"251 -1 CURVE SMOOTH",
"240 -1 OFFCURVE",
"231 0 OFFCURVE",
"221 0 CURVE",
"211 -39 LINE",
"225 -39 LINE SMOOTH",
"271 -39 OFFCURVE",
"302 -64 OFFCURVE",
"302 -104 CURVE SMOOTH",
"302 -159 OFFCURVE",
"250 -207 OFFCURVE",
"198 -207 CURVE SMOOTH",
"174 -207 OFFCURVE",
"153 -198 OFFCURVE",
"141 -182 CURVE",
"161 -166 LINE",
"171 -178 OFFCURVE",
"188 -184 OFFCURVE",
"202 -184 CURVE SMOOTH",
"240 -184 OFFCURVE",
"277 -149 OFFCURVE",
"277 -109 CURVE SMOOTH",
"277 -82 OFFCURVE",
"257 -62 OFFCURVE",
"228 -62 CURVE SMOOTH",
"222 -62 OFFCURVE",
"206 -64 OFFCURVE",
"196 -70 CURVE",
"179 -50 LINE",
"208 2 LINE",
"118 14 OFFCURVE",
"55 65 OFFCURVE",
"41 138 CURVE",
"84 145 LINE",
"101 67 OFFCURVE",
"178 33 OFFCURVE",
"254 33 CURVE SMOOTH",
"356 33 OFFCURVE",
"481 99 OFFCURVE",
"481 206 CURVE SMOOTH",
"481 244 OFFCURVE",
"457 303 OFFCURVE",
"326 340 CURVE SMOOTH",
"243 364 OFFCURVE",
"152 406 OFFCURVE",
"152 491 CURVE SMOOTH",
"152 630 OFFCURVE",
"294 681 OFFCURVE",
"418 681 CURVE SMOOTH",
"499 681 OFFCURVE",
"594 655 OFFCURVE",
"594 572 CURVE SMOOTH",
"594 564 OFFCURVE",
"593 555 OFFCURVE",
"591 545 CURVE SMOOTH",
"589 536 LINE",
"555 527 LINE",
"556 532 LINE SMOOTH",
"557 540 OFFCURVE",
"558 547 OFFCURVE",
"558 554 CURVE SMOOTH",
"558 628 OFFCURVE",
"469 646 OFFCURVE",
"411 646 CURVE SMOOTH"
);
}
);
userData = {
com.fontlab.hintData = {
hhints = (
{
position = -207;
width = 23;
},
{
position = -62;
width = 23;
},
{
position = -1;
width = 34;
},
{
position = 646;
width = 35;
}
);
vhints = (
{
position = 41;
width = 43;
},
{
position = 152;
width = 42;
},
{
position = 277;
width = 25;
},
{
position = 481;
width = 40;
},
{
position = 558;
width = 36;
}
);
};
};
width = 589;
}
);
unicode = 015E;
},
{
glyphname = Scircumflex;
layers = (
{
layerId = master01;
paths = (
{
closed = 1;
nodes = (
"321 646 OFFCURVE",
"194 614 OFFCURVE",
"194 498 CURVE SMOOTH",
"194 440 OFFCURVE",
"248 406 OFFCURVE",
"341 378 CURVE SMOOTH",
"458 342 OFFCURVE",
"521 289 OFFCURVE",
"521 215 CURVE SMOOTH",
"521 67 OFFCURVE",
"354 -1 OFFCURVE",
"251 -1 CURVE SMOOTH",
"139 -1 OFFCURVE",
"57 54 OFFCURVE",
"41 138 CURVE",
"84 145 LINE",
"101 67 OFFCURVE",
"178 33 OFFCURVE",
"254 33 CURVE SMOOTH",
"356 33 OFFCURVE",
"481 99 OFFCURVE",
"481 206 CURVE SMOOTH",
"481 244 OFFCURVE",
"457 303 OFFCURVE",
"326 340 CURVE SMOOTH",
"243 364 OFFCURVE",
"152 406 OFFCURVE",
"152 491 CURVE SMOOTH",
"152 630 OFFCURVE",
"294 681 OFFCURVE",
"418 681 CURVE SMOOTH",
"499 681 OFFCURVE",
"594 655 OFFCURVE",
"594 572 CURVE SMOOTH",
"594 564 OFFCURVE",
"593 555 OFFCURVE",
"591 545 CURVE SMOOTH",
"589 536 LINE",
"555 527 LINE",
"556 532 LINE SMOOTH",
"557 540 OFFCURVE",
"558 547 OFFCURVE",
"558 554 CURVE SMOOTH",
"558 628 OFFCURVE",
"469 646 OFFCURVE",
"411 646 CURVE SMOOTH"
);
},
{
closed = 1;
nodes = (
"293 771 LINE",
"457 884 LINE",
"552 771 LINE",
"524 745 LINE",
"444 833 LINE",
"309 743 LINE"
);
}
);
userData = {
com.fontlab.hintData = {
hhints = (
{
position = -1;
width = 34;
},
{
position = 646;
width = 35;
}
);
vhints = (
{
position = 41;
width = 43;
},
{
position = 152;
width = 42;
},
{
position = 481;
width = 40;
},
{
position = 558;
width = 36;
}
);
};
};
width = 589;
}
);
unicode = 015C;
},
{
glyphname = T;
layers = (
{
layerId = master01;
paths = (
{
closed = 1;
nodes = (
"314 644 LINE",
"92 644 LINE",
"100 681 LINE",
"598 681 LINE",
"590 644 LINE",
"352 644 LINE",
"217 9 LINE",
"178 2 LINE"
);
}
);
userData = {
com.fontlab.hintData = {
hhints = (
{
position = 644;
width = 37;
}
);
};
};
width = 512;
}
);
unicode = 0054;
},
{
glyphname = Tcaron;
layers = (
{
layerId = master01;
paths = (
{
closed = 1;
nodes = (
"521 854 LINE",
"357 743 LINE",
"262 855 LINE",
"292 883 LINE",
"371 792 LINE",
"505 884 LINE"
);
},
{
closed = 1;
nodes = (
"314 644 LINE",
"92 644 LINE",
"100 681 LINE",
"598 681 LINE",
"590 644 LINE",
"352 644 LINE",
"217 9 LINE",
"178 2 LINE"
);
}
);
userData = {
com.fontlab.hintData = {
hhints = (
{
position = 644;
width = 37;
}
);
};
};
width = 512;
}
);
unicode = 0164;
},
{
glyphname = U;
layers = (
{
layerId = master01;
paths = (
{
closed = 1;
nodes = (
"130 0 OFFCURVE",
"79 88 OFFCURVE",
"79 225 CURVE SMOOTH",
"79 346 OFFCURVE",
"130 565 OFFCURVE",
"157 671 CURVE",
"196 678 LINE",
"179 613 OFFCURVE",
"116 363 OFFCURVE",
"116 230 CURVE SMOOTH",
"116 113 OFFCURVE",
"157 30 OFFCURVE",
"293 30 CURVE SMOOTH",
"513 30 OFFCURVE",
"577 253 OFFCURVE",
"616 434 CURVE SMOOTH",
"633 513 OFFCURVE",
"655 624 OFFCURVE",
"664 670 CURVE",
"704 678 LINE",
"699 653 OFFCURVE",
"679 556 OFFCURVE",
"663 480 CURVE SMOOTH",
"613 247 OFFCURVE",
"542 0 OFFCURVE",
"287 0 CURVE SMOOTH"
);
}
);
userData = {
com.fontlab.hintData = {
hhints = (
{
position = 0;
width = 30;
}
);
vhints = (
{
position = 79;
width = 37;
}
);
};
};
width = 674;
}
);
unicode = 0055;
},
{
glyphname = Uacute;
layers = (
{
layerId = master01;
paths = (
{
closed = 1;
nodes = (
"551 896 LINE",
"582 864 LINE",
"410 760 LINE",
"389 784 LINE"
);
},
{
closed = 1;
nodes = (
"130 0 OFFCURVE",
"79 88 OFFCURVE",
"79 225 CURVE SMOOTH",
"79 346 OFFCURVE",
"130 565 OFFCURVE",
"157 671 CURVE",
"196 678 LINE",
"179 613 OFFCURVE",
"116 363 OFFCURVE",
"116 230 CURVE SMOOTH",
"116 113 OFFCURVE",
"157 30 OFFCURVE",
"293 30 CURVE SMOOTH",
"513 30 OFFCURVE",
"577 253 OFFCURVE",
"616 434 CURVE SMOOTH",
"633 513 OFFCURVE",
"655 624 OFFCURVE",
"664 670 CURVE",
"704 678 LINE",
"699 653 OFFCURVE",
"679 556 OFFCURVE",
"663 480 CURVE SMOOTH",
"613 247 OFFCURVE",
"542 0 OFFCURVE",
"287 0 CURVE SMOOTH"
);
}
);
userData = {
com.fontlab.hintData = {
hhints = (
{
position = 0;
width = 30;
}
);
vhints = (
{
position = 79;
width = 37;
}
);
};
};
width = 674;
}
);
unicode = 00DA;
},
{
glyphname = Ubreve;
layers = (
{
layerId = master01;
paths = (
{
closed = 1;
nodes = (
"130 0 OFFCURVE",
"79 88 OFFCURVE",
"79 225 CURVE SMOOTH",
"79 346 OFFCURVE",
"130 565 OFFCURVE",
"157 671 CURVE",
"196 678 LINE",
"179 613 OFFCURVE",
"116 363 OFFCURVE",
"116 230 CURVE SMOOTH",
"116 113 OFFCURVE",
"157 30 OFFCURVE",
"293 30 CURVE SMOOTH",
"513 30 OFFCURVE",
"577 253 OFFCURVE",
"616 434 CURVE SMOOTH",
"633 513 OFFCURVE",
"655 624 OFFCURVE",
"664 670 CURVE",
"704 678 LINE",
"699 653 OFFCURVE",
"679 556 OFFCURVE",
"663 480 CURVE SMOOTH",
"613 247 OFFCURVE",
"542 0 OFFCURVE",
"287 0 CURVE SMOOTH"
);
},
{
closed = 1;
nodes = (
"494 788 OFFCURVE",
"547 813 OFFCURVE",
"578 862 CURVE",
"592 845 LINE",
"561 796 OFFCURVE",
"496 761 OFFCURVE",
"437 761 CURVE SMOOTH",
"371 761 OFFCURVE",
"324 793 OFFCURVE",
"309 841 CURVE",
"329 858 LINE",
"355 800 OFFCURVE",
"402 788 OFFCURVE",
"441 788 CURVE SMOOTH"
);
}
);
userData = {
com.fontlab.hintData = {
hhints = (
{
position = 0;
width = 30;
},
{
position = 761;
width = 27;
}
);
vhints = (
{
position = 79;
width = 37;
},
{
position = 309;
width = 20;
}
);
};
};
width = 674;
}
);
unicode = 016C;
},
{
glyphname = Ucircumflex;
layers = (
{
layerId = master01;
paths = (
{
closed = 1;
nodes = (
"324 771 LINE",
"489 884 LINE",
"583 771 LINE",
"555 745 LINE",
"478 833 LINE",
"341 744 LINE"
);
},
{
closed = 1;
nodes = (
"130 0 OFFCURVE",
"79 88 OFFCURVE",
"79 225 CURVE SMOOTH",
"79 346 OFFCURVE",
"130 565 OFFCURVE",
"157 671 CURVE",
"196 678 LINE",
"179 613 OFFCURVE",
"116 363 OFFCURVE",
"116 230 CURVE SMOOTH",
"116 113 OFFCURVE",
"157 30 OFFCURVE",
"293 30 CURVE SMOOTH",
"513 30 OFFCURVE",
"577 253 OFFCURVE",
"616 434 CURVE SMOOTH",
"633 513 OFFCURVE",
"655 624 OFFCURVE",
"664 670 CURVE",
"704 678 LINE",
"699 653 OFFCURVE",
"679 556 OFFCURVE",
"663 480 CURVE SMOOTH",
"613 247 OFFCURVE",
"542 0 OFFCURVE",
"287 0 CURVE SMOOTH"
);
}
);
userData = {
com.fontlab.hintData = {
hhints = (
{
position = 0;
width = 30;
}
);
vhints = (
{
position = 79;
width = 37;
}
);
};
};
width = 674;
}
);
unicode = 00DB;
},
{
glyphname = Udieresis;
layers = (
{
layerId = master01;
paths = (
{
closed = 1;
nodes = (
"400 758 LINE",
"344 750 LINE",
"364 814 LINE",
"420 822 LINE"
);
},
{
closed = 1;
nodes = (
"565 758 LINE",
"509 750 LINE",
"529 814 LINE",
"585 822 LINE"
);
},
{
closed = 1;
nodes = (
"130 0 OFFCURVE",
"79 88 OFFCURVE",
"79 225 CURVE SMOOTH",
"79 346 OFFCURVE",
"130 565 OFFCURVE",
"157 671 CURVE",
"196 678 LINE",
"179 613 OFFCURVE",
"116 363 OFFCURVE",
"116 230 CURVE SMOOTH",
"116 113 OFFCURVE",
"157 30 OFFCURVE",
"293 30 CURVE SMOOTH",
"513 30 OFFCURVE",
"577 253 OFFCURVE",
"616 434 CURVE SMOOTH",
"633 513 OFFCURVE",
"655 624 OFFCURVE",
"664 670 CURVE",
"704 678 LINE",
"699 653 OFFCURVE",
"679 556 OFFCURVE",
"663 480 CURVE SMOOTH",
"613 247 OFFCURVE",
"542 0 OFFCURVE",
"287 0 CURVE SMOOTH"
);
}
);
userData = {
com.fontlab.hintData = {
hhints = (
{
position = 0;
width = 30;
}
);
vhints = (
{
position = 79;
width = 37;
}
);
};
};
width = 674;
}
);
unicode = 00DC;
},
{
glyphname = Ugrave;
layers = (
{
layerId = master01;
paths = (
{
closed = 1;
nodes = (
"500 750 LINE",
"399 879 LINE",
"446 904 LINE",
"534 770 LINE"
);
},
{
closed = 1;
nodes = (
"130 0 OFFCURVE",
"79 88 OFFCURVE",
"79 225 CURVE SMOOTH",
"79 346 OFFCURVE",
"130 565 OFFCURVE",
"157 671 CURVE",
"196 678 LINE",
"179 613 OFFCURVE",
"116 363 OFFCURVE",
"116 230 CURVE SMOOTH",
"116 113 OFFCURVE",
"157 30 OFFCURVE",
"293 30 CURVE SMOOTH",
"513 30 OFFCURVE",
"577 253 OFFCURVE",
"616 434 CURVE SMOOTH",
"633 513 OFFCURVE",
"655 624 OFFCURVE",
"664 670 CURVE",
"704 678 LINE",
"699 653 OFFCURVE",
"679 556 OFFCURVE",
"663 480 CURVE SMOOTH",
"613 247 OFFCURVE",
"542 0 OFFCURVE",
"287 0 CURVE SMOOTH"
);
}
);
userData = {
com.fontlab.hintData = {
hhints = (
{
position = 0;
width = 30;
}
);
vhints = (
{
position = 79;
width = 37;
}
);
};
};
width = 674;
}
);
unicode = 00D9;
},
{
glyphname = Uhungarumlaut;
layers = (
{
layerId = master01;
paths = (
{
closed = 1;
nodes = (
"472 896 LINE",
"503 864 LINE",
"331 760 LINE",
"310 784 LINE"
);
},
{
closed = 1;
nodes = (
"638 896 LINE",
"668 864 LINE",
"496 760 LINE",
"476 784 LINE"
);
},
{
closed = 1;
nodes = (
"130 0 OFFCURVE",
"79 88 OFFCURVE",
"79 225 CURVE SMOOTH",
"79 346 OFFCURVE",
"130 565 OFFCURVE",
"157 671 CURVE",
"196 678 LINE",
"179 613 OFFCURVE",
"116 363 OFFCURVE",
"116 230 CURVE SMOOTH",
"116 113 OFFCURVE",
"157 30 OFFCURVE",
"293 30 CURVE SMOOTH",
"513 30 OFFCURVE",
"577 253 OFFCURVE",
"616 434 CURVE SMOOTH",
"633 513 OFFCURVE",
"655 624 OFFCURVE",
"664 670 CURVE",
"704 678 LINE",
"699 653 OFFCURVE",
"679 556 OFFCURVE",
"663 480 CURVE SMOOTH",
"613 247 OFFCURVE",
"542 0 OFFCURVE",
"287 0 CURVE SMOOTH"
);
}
);
userData = {
com.fontlab.hintData = {
hhints = (
{
position = 0;
width = 30;
}
);
vhints = (
{
position = 79;
width = 37;
}
);
};
};
width = 674;
}
);
unicode = 0170;
},
{
glyphname = Uring;
layers = (
{
layerId = master01;
paths = (
{
closed = 1;
nodes = (
"130 0 OFFCURVE",
"79 88 OFFCURVE",
"79 225 CURVE SMOOTH",
"79 346 OFFCURVE",
"130 565 OFFCURVE",
"157 671 CURVE",
"196 678 LINE",
"179 613 OFFCURVE",
"116 363 OFFCURVE",
"116 230 CURVE SMOOTH",
"116 113 OFFCURVE",
"157 30 OFFCURVE",
"293 30 CURVE SMOOTH",
"513 30 OFFCURVE",
"577 253 OFFCURVE",
"616 434 CURVE SMOOTH",
"633 513 OFFCURVE",
"655 624 OFFCURVE",
"664 670 CURVE",
"704 678 LINE",
"699 653 OFFCURVE",
"679 556 OFFCURVE",
"663 480 CURVE SMOOTH",
"613 247 OFFCURVE",
"542 0 OFFCURVE",
"287 0 CURVE SMOOTH"
);
},
{
closed = 1;
nodes = (
"390 743 OFFCURVE",
"357 776 OFFCURVE",
"357 819 CURVE SMOOTH",
"357 886 OFFCURVE",
"431 948 OFFCURVE",
"509 948 CURVE SMOOTH",
"567 948 OFFCURVE",
"598 911 OFFCURVE",
"598 870 CURVE SMOOTH",
"598 790 OFFCURVE",
"505 743 OFFCURVE",
"445 743 CURVE SMOOTH"
);
},
{
closed = 1;
nodes = (
"458 923 OFFCURVE",
"382 884 OFFCURVE",
"382 823 CURVE SMOOTH",
"382 790 OFFCURVE",
"410 767 OFFCURVE",
"453 767 CURVE SMOOTH",
"506 767 OFFCURVE",
"571 812 OFFCURVE",
"571 864 CURVE SMOOTH",
"571 898 OFFCURVE",
"543 923 OFFCURVE",
"501 923 CURVE SMOOTH"
);
}
);
userData = {
com.fontlab.hintData = {
hhints = (
{
position = 0;
width = 30;
},
{
position = 743;
width = 24;
},
{
position = 923;
width = 25;
}
);
vhints = (
{
position = 79;
width = 37;
},
{
position = 357;
width = 25;
},
{
position = 571;
width = 27;
}
);
};
};
width = 674;
}
);
unicode = 016E;
},
{
glyphname = V;
layers = (
{
layerId = master01;
paths = (
{
closed = 1;
nodes = (
"577 677 LINE",
"610 663 LINE",
"224 10 LINE",
"172 1 LINE",
"100 662 LINE",
"137 677 LINE",
"205 46 LINE"
);
}
);
userData = {
com.fontlab.hintData = {
hhints = (
{
position = 1;
width = 21;
}
);
};
};
width = 530;
}
);
unicode = 0056;
},
{
glyphname = W;
layers = (
{
layerId = master01;
paths = (
{
closed = 1;
nodes = (
"588 10 LINE",
"537 1 LINE",
"514 626 LINE",
"198 10 LINE",
"155 1 LINE",
"100 673 LINE",
"136 680 LINE",
"186 55 LINE",
"501 671 LINE",
"548 680 LINE",
"571 48 LINE",
"914 670 LINE",
"957 678 LINE"
);
}
);
userData = {
com.fontlab.hintData = {
hhints = (
{
position = 1;
width = 21;
},
{
position = 660;
width = 20;
}
);
vhints = (
{
position = 514;
width = 34;
},
{
position = 537;
width = 34;
}
);
};
};
width = 868;
}
);
unicode = 0057;
},
{
glyphname = X;
layers = (
{
layerId = master01;
paths = (
{
closed = 1;
nodes = (
"571 29 LINE",
"538 5 LINE",
"355 316 LINE",
"28 5 LINE",
"6 31 LINE",
"338 345 LINE",
"158 652 LINE",
"192 676 LINE",
"368 374 LINE",
"687 676 LINE",
"709 650 LINE",
"385 344 LINE"
);
}
);
width = 670;
}
);
unicode = 0058;
},
{
glyphname = Y;
layers = (
{
layerId = master01;
paths = (
{
closed = 1;
nodes = (
"667 677 LINE",
"707 677 LINE",
"162 0 LINE",
"123 0 LINE",
"290 210 LINE",
"117 677 LINE",
"156 677 LINE",
"318 243 LINE"
);
}
);
userData = {
com.fontlab.hintData = {
hhints = (
{
position = 0;
width = 21;
}
);
};
};
width = 618;
}
);
unicode = 0059;
},
{
glyphname = Yacute;
layers = (
{
layerId = master01;
paths = (
{
closed = 1;
nodes = (
"523 896 LINE",
"554 864 LINE",
"381 760 LINE",
"361 784 LINE"
);
},
{
closed = 1;
nodes = (
"667 677 LINE",
"707 677 LINE",
"162 0 LINE",
"123 0 LINE",
"290 210 LINE",
"117 677 LINE",
"156 677 LINE",
"318 243 LINE"
);
}
);
userData = {
com.fontlab.hintData = {
hhints = (
{
position = 0;
width = 21;
}
);
};
};
width = 618;
}
);
unicode = 00DD;
},
{
glyphname = Ydieresis;
layers = (
{
layerId = master01;
paths = (
{
closed = 1;
nodes = (
"384 758 LINE",
"328 750 LINE",
"348 814 LINE",
"404 822 LINE"
);
},
{
closed = 1;
nodes = (
"548 758 LINE",
"493 750 LINE",
"513 814 LINE",
"569 822 LINE"
);
},
{
closed = 1;
nodes = (
"667 677 LINE",
"707 677 LINE",
"162 0 LINE",
"123 0 LINE",
"290 210 LINE",
"117 677 LINE",
"156 677 LINE",
"318 243 LINE"
);
}
);
userData = {
com.fontlab.hintData = {
hhints = (
{
position = 0;
width = 21;
}
);
};
};
width = 618;
}
);
unicode = 0178;
},
{
glyphname = Z;
layers = (
{
layerId = master01;
paths = (
{
closed = 1;
nodes = (
"6 44 LINE",
"598 639 LINE",
"163 639 LINE",
"181 681 LINE",
"636 681 LINE",
"647 637 LINE",
"53 42 LINE",
"510 42 LINE",
"494 0 LINE",
"17 0 LINE"
);
}
);
userData = {
com.fontlab.hintData = {
hhints = (
{
position = 0;
width = 42;
},
{
position = 639;
width = 42;
}
);
};
};
width = 611;
}
);
unicode = 005A;
},
{
glyphname = Zacute;
layers = (
{
layerId = master01;
paths = (
{
closed = 1;
nodes = (
"526 896 LINE",
"557 864 LINE",
"384 760 LINE",
"364 784 LINE"
);
},
{
closed = 1;
nodes = (
"6 44 LINE",
"598 639 LINE",
"163 639 LINE",
"181 681 LINE",
"636 681 LINE",
"647 637 LINE",
"53 42 LINE",
"510 42 LINE",
"526 0 LINE",
"17 0 LINE"
);
}
);
userData = {
com.fontlab.hintData = {
hhints = (
{
position = 0;
width = 42;
},
{
position = 639;
width = 42;
}
);
};
};
width = 611;
}
);
unicode = 0179;
},
{
glyphname = Zcaron;
layers = (
{
layerId = master01;
paths = (
{
closed = 1;
nodes = (
"574 854 LINE",
"410 743 LINE",
"315 855 LINE",
"345 883 LINE",
"424 792 LINE",
"558 884 LINE"
);
},
{
closed = 1;
nodes = (
"6 44 LINE",
"598 639 LINE",
"163 639 LINE",
"181 681 LINE",
"636 681 LINE",
"647 637 LINE",
"53 42 LINE",
"510 42 LINE",
"494 0 LINE",
"17 0 LINE"
);
}
);
userData = {
com.fontlab.hintData = {
hhints = (
{
position = 0;
width = 42;
},
{
position = 639;
width = 42;
}
);
};
};
width = 611;
}
);
unicode = 017D;
},
{
glyphname = Zdotaccent;
layers = (
{
layerId = master01;
paths = (
{
closed = 1;
nodes = (
"6 44 LINE",
"598 639 LINE",
"163 639 LINE",
"181 681 LINE",
"636 681 LINE",
"647 637 LINE",
"53 42 LINE",
"510 42 LINE",
"494 0 LINE",
"17 0 LINE"
);
},
{
closed = 1;
nodes = (
"439 759 LINE",
"384 751 LINE",
"404 815 LINE",
"460 823 LINE"
);
}
);
userData = {
com.fontlab.hintData = {
hhints = (
{
position = 0;
width = 42;
},
{
position = 639;
width = 42;
}
);
};
};
width = 611;
}
);
unicode = 017B;
},
{
glyphname = uni0162;
layers = (
{
layerId = master01;
paths = (
{
closed = 1;
nodes = (
"314 644 LINE",
"92 644 LINE",
"100 681 LINE",
"598 681 LINE",
"590 644 LINE",
"352 644 LINE",
"217 9 LINE",
"178 2 LINE"
);
},
{
closed = 1;
nodes = (
"245 -73 LINE",
"126 -227 LINE",
"98 -208 LINE",
"175 -109 LINE",
"143 -88 LINE",
"194 -43 LINE"
);
}
);
userData = {
com.fontlab.hintData = {
hhints = (
{
position = 644;
width = 37;
}
);
};
};
width = 512;
}
);
unicode = 0162;
},
{
glyphname = a;
layers = (
{
layerId = master01;
paths = (
{
closed = 1;
nodes = (
"384 10 LINE",
"344 2 LINE",
"357 65 LINE",
"310 39 OFFCURVE",
"239 7 OFFCURVE",
"184 7 CURVE SMOOTH",
"94 7 OFFCURVE",
"37 69 OFFCURVE",
"37 164 CURVE SMOOTH",
"37 309 OFFCURVE",
"166 513 OFFCURVE",
"343 513 CURVE SMOOTH",
"396 513 OFFCURVE",
"442 497 OFFCURVE",
"482 475 CURVE"
);
},
{
closed = 1;
nodes = (
"255 44 OFFCURVE",
"336 91 OFFCURVE",
"365 109 CURVE",
"442 450 LINE",
"420 459 OFFCURVE",
"375 477 OFFCURVE",
"340 477 CURVE SMOOTH",
"147 477 OFFCURVE",
"77 235 OFFCURVE",
"77 171 CURVE SMOOTH",
"77 106 OFFCURVE",
"106 45 OFFCURVE",
"190 44 CURVE SMOOTH"
);
}
);
userData = {
com.fontlab.hintData = {
hhints = (
{
position = 7;
width = 37;
},
{
position = 477;
width = 36;
}
);
vhints = (
{
position = 37;
width = 40;
}
);
};
};
width = 494;
}
);
unicode = 0061;
},
{
glyphname = aacute;
layers = (
{
layerId = master01;
paths = (
{
closed = 1;
nodes = (
"421 730 LINE",
"452 698 LINE",
"278 593 LINE",
"258 617 LINE"
);
},
{
closed = 1;
nodes = (
"384 10 LINE",
"344 2 LINE",
"357 65 LINE",
"310 39 OFFCURVE",
"239 7 OFFCURVE",
"184 7 CURVE SMOOTH",
"94 7 OFFCURVE",
"37 69 OFFCURVE",
"37 164 CURVE SMOOTH",
"37 309 OFFCURVE",
"166 513 OFFCURVE",
"343 513 CURVE SMOOTH",
"396 513 OFFCURVE",
"442 497 OFFCURVE",
"482 475 CURVE"
);
},
{
closed = 1;
nodes = (
"255 44 OFFCURVE",
"336 91 OFFCURVE",
"365 109 CURVE",
"442 450 LINE",
"420 459 OFFCURVE",
"375 477 OFFCURVE",
"340 477 CURVE SMOOTH",
"147 477 OFFCURVE",
"77 235 OFFCURVE",
"77 171 CURVE SMOOTH",
"77 106 OFFCURVE",
"106 45 OFFCURVE",
"190 44 CURVE SMOOTH"
);
}
);
userData = {
com.fontlab.hintData = {
hhints = (
{
position = 7;
width = 37;
},
{
position = 477;
width = 36;
}
);
vhints = (
{
position = 37;
width = 40;
}
);
};
};
width = 494;
}
);
unicode = 00E1;
},
{
glyphname = abreve;
layers = (
{
layerId = master01;
paths = (
{
closed = 1;
nodes = (
"384 10 LINE",
"344 2 LINE",
"357 65 LINE",
"310 39 OFFCURVE",
"239 7 OFFCURVE",
"184 7 CURVE SMOOTH",
"94 7 OFFCURVE",
"37 69 OFFCURVE",
"37 164 CURVE SMOOTH",
"37 309 OFFCURVE",
"175 513 OFFCURVE",
"343 513 CURVE SMOOTH",
"396 513 OFFCURVE",
"442 497 OFFCURVE",
"482 475 CURVE"
);
},
{
closed = 1;
nodes = (
"255 44 OFFCURVE",
"336 91 OFFCURVE",
"365 109 CURVE",
"442 450 LINE",
"420 459 OFFCURVE",
"375 477 OFFCURVE",
"340 477 CURVE SMOOTH",
"147 477 OFFCURVE",
"77 235 OFFCURVE",
"77 171 CURVE SMOOTH",
"77 106 OFFCURVE",
"106 45 OFFCURVE",
"190 44 CURVE SMOOTH"
);
},
{
closed = 1;
nodes = (
"411 609 OFFCURVE",
"464 634 OFFCURVE",
"495 683 CURVE",
"509 666 LINE",
"478 617 OFFCURVE",
"413 582 OFFCURVE",
"354 582 CURVE SMOOTH",
"288 582 OFFCURVE",
"241 614 OFFCURVE",
"226 662 CURVE",
"246 679 LINE",
"271 621 OFFCURVE",
"319 609 OFFCURVE",
"358 609 CURVE SMOOTH"
);
}
);
userData = {
com.fontlab.hintData = {
hhints = (
{
position = 7;
width = 37;
},
{
position = 477;
width = 36;
},
{
position = 582;
width = 27;
},
{
position = 663;
width = 20;
}
);
vhints = (
{
position = 37;
width = 40;
},
{
position = 226;
width = 20;
}
);
};
};
width = 494;
}
);
unicode = 0103;
},
{
glyphname = acircumflex;
layers = (
{
layerId = master01;
paths = (
{
closed = 1;
nodes = (
"224 603 LINE",
"391 718 LINE",
"487 603 LINE",
"458 577 LINE",
"377 667 LINE",
"240 575 LINE"
);
},
{
closed = 1;
nodes = (
"384 10 LINE",
"344 2 LINE",
"357 65 LINE",
"310 39 OFFCURVE",
"239 7 OFFCURVE",
"184 7 CURVE SMOOTH",
"94 7 OFFCURVE",
"37 69 OFFCURVE",
"37 164 CURVE SMOOTH",
"37 309 OFFCURVE",
"166 513 OFFCURVE",
"343 513 CURVE SMOOTH",
"396 513 OFFCURVE",
"442 497 OFFCURVE",
"482 475 CURVE"
);
},
{
closed = 1;
nodes = (
"255 44 OFFCURVE",
"336 91 OFFCURVE",
"365 109 CURVE",
"442 450 LINE",
"420 459 OFFCURVE",
"375 477 OFFCURVE",
"340 477 CURVE SMOOTH",
"147 477 OFFCURVE",
"77 235 OFFCURVE",
"77 171 CURVE SMOOTH",
"77 106 OFFCURVE",
"106 45 OFFCURVE",
"190 44 CURVE SMOOTH"
);
}
);
userData = {
com.fontlab.hintData = {
hhints = (
{
position = 7;
width = 37;
},
{
position = 477;
width = 36;
}
);
vhints = (
{
position = 37;
width = 40;
}
);
};
};
width = 494;
}
);
unicode = 00E2;
},
{
glyphname = adieresis;
layers = (
{
layerId = master01;
paths = (
{
closed = 1;
nodes = (
"298 604 LINE",
"242 596 LINE",
"262 660 LINE",
"320 669 LINE"
);
},
{
closed = 1;
nodes = (
"465 604 LINE",
"409 596 LINE",
"429 660 LINE",
"486 669 LINE"
);
},
{
closed = 1;
nodes = (
"384 10 LINE",
"344 2 LINE",
"357 65 LINE",
"310 39 OFFCURVE",
"239 7 OFFCURVE",
"184 7 CURVE SMOOTH",
"94 7 OFFCURVE",
"37 69 OFFCURVE",
"37 164 CURVE SMOOTH",
"37 309 OFFCURVE",
"166 513 OFFCURVE",
"343 513 CURVE SMOOTH",
"396 513 OFFCURVE",
"442 497 OFFCURVE",
"482 475 CURVE"
);
},
{
closed = 1;
nodes = (
"255 44 OFFCURVE",
"336 91 OFFCURVE",
"365 109 CURVE",
"442 450 LINE",
"420 459 OFFCURVE",
"375 477 OFFCURVE",
"340 477 CURVE SMOOTH",
"147 477 OFFCURVE",
"77 235 OFFCURVE",
"77 171 CURVE SMOOTH",
"77 106 OFFCURVE",
"106 45 OFFCURVE",
"190 44 CURVE SMOOTH"
);
}
);
userData = {
com.fontlab.hintData = {
hhints = (
{
position = 7;
width = 37;
},
{
position = 477;
width = 36;
}
);
vhints = (
{
position = 37;
width = 40;
}
);
};
};
width = 494;
}
);
unicode = 00E4;
},
{
glyphname = agrave;
layers = (
{
layerId = master01;
paths = (
{
closed = 1;
nodes = (
"369 582 LINE",
"267 713 LINE",
"315 736 LINE",
"404 602 LINE"
);
},
{
closed = 1;
nodes = (
"384 10 LINE",
"344 2 LINE",
"357 65 LINE",
"310 39 OFFCURVE",
"239 7 OFFCURVE",
"184 7 CURVE SMOOTH",
"94 7 OFFCURVE",
"37 69 OFFCURVE",
"37 164 CURVE SMOOTH",
"37 309 OFFCURVE",
"166 513 OFFCURVE",
"343 513 CURVE SMOOTH",
"396 513 OFFCURVE",
"442 497 OFFCURVE",
"482 475 CURVE"
);
},
{
closed = 1;
nodes = (
"255 44 OFFCURVE",
"336 91 OFFCURVE",
"365 109 CURVE",
"442 450 LINE",
"420 459 OFFCURVE",
"375 477 OFFCURVE",
"340 477 CURVE SMOOTH",
"147 477 OFFCURVE",
"77 235 OFFCURVE",
"77 171 CURVE SMOOTH",
"77 106 OFFCURVE",
"106 45 OFFCURVE",
"190 44 CURVE SMOOTH"
);
}
);
userData = {
com.fontlab.hintData = {
hhints = (
{
position = 7;
width = 37;
},
{
position = 477;
width = 36;
}
);
vhints = (
{
position = 37;
width = 40;
}
);
};
};
width = 494;
}
);
unicode = 00E0;
},
{
glyphname = aogonek;
layers = (
{
layerId = master01;
paths = (
{
closed = 1;
nodes = (
"343 -15 LINE SMOOTH",
"312 -35 OFFCURVE",
"254 -70 OFFCURVE",
"254 -127 CURVE SMOOTH",
"254 -158 OFFCURVE",
"278 -177 OFFCURVE",
"311 -177 CURVE SMOOTH",
"346 -177 OFFCURVE",
"364 -166 OFFCURVE",
"392 -149 CURVE",
"404 -172 LINE",
"382 -191 OFFCURVE",
"341 -209 OFFCURVE",
"304 -209 CURVE SMOOTH",
"255 -209 OFFCURVE",
"223 -179 OFFCURVE",
"223 -134 CURVE SMOOTH",
"223 -65 OFFCURVE",
"293 -7 OFFCURVE",
"348 20 CURVE",
"357 65 LINE",
"310 39 OFFCURVE",
"239 7 OFFCURVE",
"184 7 CURVE SMOOTH",
"94 7 OFFCURVE",
"37 69 OFFCURVE",
"37 164 CURVE SMOOTH",
"37 309 OFFCURVE",
"175 513 OFFCURVE",
"343 513 CURVE SMOOTH",
"396 513 OFFCURVE",
"442 497 OFFCURVE",
"482 475 CURVE",
"384 10 LINE"
);
},
{
closed = 1;
nodes = (
"255 44 OFFCURVE",
"336 91 OFFCURVE",
"365 109 CURVE",
"442 450 LINE",
"420 459 OFFCURVE",
"375 477 OFFCURVE",
"340 477 CURVE SMOOTH",
"147 477 OFFCURVE",
"77 235 OFFCURVE",
"77 171 CURVE SMOOTH",
"77 106 OFFCURVE",
"106 45 OFFCURVE",
"190 44 CURVE SMOOTH"
);
}
);
userData = {
com.fontlab.hintData = {
hhints = (
{
position = -209;
width = 32;
},
{
position = 7;
width = 37;
},
{
position = 477;
width = 36;
}
);
vhints = (
{
position = 37;
width = 40;
},
{
position = 223;
width = 31;
}
);
};
};
width = 500;
}
);
unicode = 0105;
},
{
glyphname = aring;
layers = (
{
layerId = master01;
paths = (
{
closed = 1;
nodes = (
"280 587 OFFCURVE",
"246 620 OFFCURVE",
"246 663 CURVE SMOOTH",
"246 730 OFFCURVE",
"322 792 OFFCURVE",
"399 792 CURVE SMOOTH",
"457 792 OFFCURVE",
"488 755 OFFCURVE",
"488 714 CURVE SMOOTH",
"488 634 OFFCURVE",
"395 587 OFFCURVE",
"335 587 CURVE SMOOTH"
);
},
{
closed = 1;
nodes = (
"349 767 OFFCURVE",
"272 728 OFFCURVE",
"272 668 CURVE SMOOTH",
"272 634 OFFCURVE",
"298 611 OFFCURVE",
"342 611 CURVE SMOOTH",
"395 611 OFFCURVE",
"461 656 OFFCURVE",
"461 708 CURVE SMOOTH",
"461 742 OFFCURVE",
"433 767 OFFCURVE",
"391 767 CURVE SMOOTH"
);
},
{
closed = 1;
nodes = (
"384 10 LINE",
"344 2 LINE",
"357 65 LINE",
"310 39 OFFCURVE",
"239 7 OFFCURVE",
"184 7 CURVE SMOOTH",
"94 7 OFFCURVE",
"37 69 OFFCURVE",
"37 164 CURVE SMOOTH",
"37 309 OFFCURVE",
"166 513 OFFCURVE",
"343 513 CURVE SMOOTH",
"396 513 OFFCURVE",
"442 497 OFFCURVE",
"482 475 CURVE"
);
},
{
closed = 1;
nodes = (
"255 44 OFFCURVE",
"336 91 OFFCURVE",
"365 109 CURVE",
"442 450 LINE",
"420 459 OFFCURVE",
"375 477 OFFCURVE",
"340 477 CURVE SMOOTH",
"147 477 OFFCURVE",
"77 235 OFFCURVE",
"77 171 CURVE SMOOTH",
"77 106 OFFCURVE",
"106 45 OFFCURVE",
"190 44 CURVE SMOOTH"
);
}
);
userData = {
com.fontlab.hintData = {
hhints = (
{
position = 7;
width = 37;
},
{
position = 477;
width = 36;
},
{
position = 587;
width = 24;
},
{
position = 767;
width = 25;
}
);
vhints = (
{
position = 37;
width = 40;
},
{
position = 246;
width = 26;
},
{
position = 461;
width = 27;
}
);
};
};
width = 494;
}
);
unicode = 00E5;
},
{
glyphname = atilde;
layers = (
{
layerId = master01;
paths = (
{
closed = 1;
nodes = (
"382 617 OFFCURVE",
"391 610 OFFCURVE",
"412 610 CURVE SMOOTH",
"450 610 OFFCURVE",
"484 657 OFFCURVE",
"502 691 CURVE",
"531 681 LINE",
"502 625 OFFCURVE",
"450 579 OFFCURVE",
"406 579 CURVE SMOOTH",
"365 579 OFFCURVE",
"348 610 OFFCURVE",
"335 637 CURVE SMOOTH",
"317 674 OFFCURVE",
"307 680 OFFCURVE",
"287 680 CURVE SMOOTH",
"253 680 OFFCURVE",
"218 638 OFFCURVE",
"202 607 CURVE",
"174 617 LINE",
"199 661 OFFCURVE",
"242 712 OFFCURVE",
"294 712 CURVE SMOOTH",
"336 712 OFFCURVE",
"351 681 OFFCURVE",
"364 656 CURVE"
);
},
{
closed = 1;
nodes = (
"384 10 LINE",
"344 2 LINE",
"357 65 LINE",
"310 39 OFFCURVE",
"239 7 OFFCURVE",
"184 7 CURVE SMOOTH",
"94 7 OFFCURVE",
"37 69 OFFCURVE",
"37 164 CURVE SMOOTH",
"37 309 OFFCURVE",
"166 513 OFFCURVE",
"343 513 CURVE SMOOTH",
"396 513 OFFCURVE",
"442 497 OFFCURVE",
"482 475 CURVE"
);
},
{
closed = 1;
nodes = (
"255 44 OFFCURVE",
"336 91 OFFCURVE",
"365 109 CURVE",
"442 450 LINE",
"420 459 OFFCURVE",
"375 477 OFFCURVE",
"340 477 CURVE SMOOTH",
"147 477 OFFCURVE",
"77 235 OFFCURVE",
"77 171 CURVE SMOOTH",
"77 106 OFFCURVE",
"106 45 OFFCURVE",
"190 44 CURVE SMOOTH"
);
}
);
userData = {
com.fontlab.hintData = {
hhints = (
{
position = 7;
width = 37;
},
{
position = 477;
width = 36;
},
{
position = 579;
width = 31;
},
{
position = 680;
width = 32;
}
);
vhints = (
{
position = 37;
width = 40;
}
);
};
};
width = 503;
}
);
unicode = 00E3;
},
{
glyphname = ae;
layers = (
{
layerId = master01;
paths = (
{
closed = 1;
nodes = (
"499 0 OFFCURVE",
"433 46 OFFCURVE",
"406 117 CURVE",
"384 10 LINE",
"344 2 LINE",
"357 65 LINE",
"310 39 OFFCURVE",
"239 7 OFFCURVE",
"184 7 CURVE SMOOTH",
"94 7 OFFCURVE",
"37 69 OFFCURVE",
"37 164 CURVE SMOOTH",
"37 309 OFFCURVE",
"168 513 OFFCURVE",
"343 513 CURVE SMOOTH",
"396 513 OFFCURVE",
"442 497 OFFCURVE",
"482 475 CURVE",
"463 385 LINE",
"520 455 OFFCURVE",
"605 502 OFFCURVE",
"692 502 CURVE SMOOTH",
"776 502 OFFCURVE",
"833 441 OFFCURVE",
"842 365 CURVE",
"429 159 LINE",
"450 83 OFFCURVE",
"511 32 OFFCURVE",
"592 32 CURVE SMOOTH",
"644 32 OFFCURVE",
"699 54 OFFCURVE",
"746 91 CURVE",
"764 68 LINE",
"709 25 OFFCURVE",
"646 0 OFFCURVE",
"586 0 CURVE SMOOTH"
);
},
{
closed = 1;
nodes = (
"255 44 OFFCURVE",
"336 91 OFFCURVE",
"365 109 CURVE",
"442 450 LINE",
"420 459 OFFCURVE",
"375 477 OFFCURVE",
"340 477 CURVE SMOOTH",
"147 477 OFFCURVE",
"77 235 OFFCURVE",
"77 171 CURVE SMOOTH",
"77 106 OFFCURVE",
"106 45 OFFCURVE",
"190 44 CURVE SMOOTH"
);
},
{
closed = 1;
nodes = (
"552 470 OFFCURVE",
"427 339 OFFCURVE",
"427 206 CURVE SMOOTH",
"427 190 LINE",
"805 379 LINE",
"785 436 OFFCURVE",
"740 470 OFFCURVE",
"687 470 CURVE SMOOTH"
);
}
);
userData = {
com.fontlab.hintData = {
hhints = (
{
position = 0;
width = 32;
},
{
position = 7;
width = 37;
},
{
position = 470;
width = 32;
},
{
position = 477;
width = 36;
}
);
vhints = (
{
position = 37;
width = 40;
}
);
};
};
width = 854;
}
);
unicode = 00E6;
},
{
glyphname = b;
layers = (
{
layerId = master01;
paths = (
{
closed = 1;
nodes = (
"455 490 OFFCURVE",
"487 419 OFFCURVE",
"487 340 CURVE SMOOTH",
"487 190 OFFCURVE",
"389 1 OFFCURVE",
"204 1 CURVE SMOOTH",
"151 1 OFFCURVE",
"93 20 OFFCURVE",
"57 35 CURVE",
"50 2 LINE",
"13 9 LINE",
"158 689 LINE",
"198 698 LINE",
"131 382 LINE",
"182 445 OFFCURVE",
"267 490 OFFCURVE",
"354 490 CURVE SMOOTH"
);
},
{
closed = 1;
nodes = (
"353 36 OFFCURVE",
"450 182 OFFCURVE",
"450 327 CURVE SMOOTH",
"450 388 OFFCURVE",
"429 452 OFFCURVE",
"350 452 CURVE SMOOTH",
"237 452 OFFCURVE",
"131 381 OFFCURVE",
"112 293 CURVE SMOOTH",
"64 69 LINE",
"84 58 OFFCURVE",
"141 36 OFFCURVE",
"203 36 CURVE SMOOTH"
);
}
);
userData = {
com.fontlab.hintData = {
hhints = (
{
position = 1;
width = 35;
},
{
position = 452;
width = 38;
}
);
vhints = (
{
position = 450;
width = 37;
}
);
};
};
width = 518;
}
);
unicode = 0062;
},
{
glyphname = c;
layers = (
{
layerId = master01;
paths = (
{
closed = 1;
nodes = (
"294 36 OFFCURVE",
"356 67 OFFCURVE",
"396 115 CURVE",
"416 90 LINE",
"365 32 OFFCURVE",
"291 0 OFFCURVE",
"213 0 CURVE SMOOTH",
"114 0 OFFCURVE",
"38 73 OFFCURVE",
"38 172 CURVE SMOOTH",
"38 277 OFFCURVE",
"168 502 OFFCURVE",
"326 502 CURVE SMOOTH",
"384 502 OFFCURVE",
"432 478 OFFCURVE",
"458 438 CURVE",
"426 413 LINE",
"407 450 OFFCURVE",
"369 469 OFFCURVE",
"321 469 CURVE SMOOTH",
"183 469 OFFCURVE",
"73 257 OFFCURVE",
"73 169 CURVE SMOOTH",
"73 53 OFFCURVE",
"182 33 OFFCURVE",
"230 33 CURVE"
);
}
);
userData = {
com.fontlab.hintData = {
hhints = (
{
position = 0;
width = 33;
},
{
position = 469;
width = 33;
}
);
vhints = (
{
position = 38;
width = 35;
}
);
};
};
width = 497;
}
);
unicode = 0063;
},
{
glyphname = cacute;
layers = (
{
layerId = master01;
paths = (
{
closed = 1;
nodes = (
"441 730 LINE",
"471 698 LINE",
"297 593 LINE",
"277 617 LINE"
);
},
{
closed = 1;
nodes = (
"294 36 OFFCURVE",
"356 67 OFFCURVE",
"396 115 CURVE",
"416 90 LINE",
"365 32 OFFCURVE",
"291 0 OFFCURVE",
"213 0 CURVE SMOOTH",
"114 0 OFFCURVE",
"38 73 OFFCURVE",
"38 172 CURVE SMOOTH",
"38 277 OFFCURVE",
"168 502 OFFCURVE",
"326 502 CURVE SMOOTH",
"384 502 OFFCURVE",
"432 478 OFFCURVE",
"458 438 CURVE",
"426 413 LINE",
"407 450 OFFCURVE",
"369 469 OFFCURVE",
"321 469 CURVE SMOOTH",
"183 469 OFFCURVE",
"73 257 OFFCURVE",
"73 169 CURVE SMOOTH",
"73 53 OFFCURVE",
"182 33 OFFCURVE",
"230 33 CURVE"
);
}
);
userData = {
com.fontlab.hintData = {
hhints = (
{
position = 0;
width = 33;
},
{
position = 469;
width = 33;
}
);
vhints = (
{
position = 38;
width = 35;
}
);
};
};
width = 497;
}
);
unicode = 0107;
},
{
glyphname = ccaron;
layers = (
{
layerId = master01;
paths = (
{
closed = 1;
nodes = (
"514 687 LINE",
"348 575 LINE",
"253 688 LINE",
"283 717 LINE",
"362 625 LINE",
"498 718 LINE"
);
},
{
closed = 1;
nodes = (
"294 36 OFFCURVE",
"356 67 OFFCURVE",
"396 115 CURVE",
"416 90 LINE",
"365 32 OFFCURVE",
"291 0 OFFCURVE",
"213 0 CURVE SMOOTH",
"114 0 OFFCURVE",
"38 73 OFFCURVE",
"38 172 CURVE SMOOTH",
"38 277 OFFCURVE",
"168 502 OFFCURVE",
"326 502 CURVE SMOOTH",
"384 502 OFFCURVE",
"432 478 OFFCURVE",
"458 438 CURVE",
"426 413 LINE",
"407 450 OFFCURVE",
"369 469 OFFCURVE",
"321 469 CURVE SMOOTH",
"183 469 OFFCURVE",
"73 257 OFFCURVE",
"73 169 CURVE SMOOTH",
"73 53 OFFCURVE",
"182 33 OFFCURVE",
"230 33 CURVE"
);
}
);
userData = {
com.fontlab.hintData = {
hhints = (
{
position = 0;
width = 33;
},
{
position = 469;
width = 33;
}
);
vhints = (
{
position = 38;
width = 35;
}
);
};
};
width = 497;
}
);
unicode = 010D;
},
{
glyphname = ccedilla;
layers = (
{
layerId = master01;
paths = (
{
closed = 1;
nodes = (
"294 36 OFFCURVE",
"356 67 OFFCURVE",
"396 115 CURVE",
"416 90 LINE",
"367 35 OFFCURVE",
"298 3 OFFCURVE",
"224 0 CURVE",
"194 0 LINE",
"184 -41 LINE",
"198 -41 LINE SMOOTH",
"244 -41 OFFCURVE",
"274 -66 OFFCURVE",
"274 -106 CURVE SMOOTH",
"274 -161 OFFCURVE",
"223 -209 OFFCURVE",
"170 -209 CURVE SMOOTH",
"146 -209 OFFCURVE",
"126 -200 OFFCURVE",
"113 -184 CURVE",
"134 -168 LINE",
"143 -177 OFFCURVE",
"154 -186 OFFCURVE",
"175 -186 CURVE SMOOTH",
"213 -186 OFFCURVE",
"250 -152 OFFCURVE",
"250 -112 CURVE SMOOTH",
"250 -85 OFFCURVE",
"230 -64 OFFCURVE",
"201 -64 CURVE SMOOTH",
"190 -64 OFFCURVE",
"177 -68 OFFCURVE",
"168 -72 CURVE",
"151 -52 LINE",
"182 2 LINE",
"98 15 OFFCURVE",
"38 83 OFFCURVE",
"38 171 CURVE SMOOTH",
"38 276 OFFCURVE",
"168 502 OFFCURVE",
"326 502 CURVE SMOOTH",
"384 502 OFFCURVE",
"432 478 OFFCURVE",
"458 438 CURVE",
"426 413 LINE",
"407 450 OFFCURVE",
"369 469 OFFCURVE",
"321 469 CURVE SMOOTH",
"183 469 OFFCURVE",
"73 257 OFFCURVE",
"73 169 CURVE SMOOTH",
"73 53 OFFCURVE",
"182 33 OFFCURVE",
"230 33 CURVE"
);
}
);
userData = {
com.fontlab.hintData = {
hhints = (
{
position = -209;
width = 23;
},
{
position = -64;
width = 23;
},
{
position = 0;
width = 33;
},
{
position = 469;
width = 33;
}
);
vhints = (
{
position = 38;
width = 35;
},
{
position = 250;
width = 24;
}
);
};
};
width = 497;
}
);
unicode = 00E7;
},
{
glyphname = ccircumflex;
layers = (
{
layerId = master01;
paths = (
{
closed = 1;
nodes = (
"294 36 OFFCURVE",
"356 67 OFFCURVE",
"396 115 CURVE",
"416 90 LINE",
"365 32 OFFCURVE",
"291 0 OFFCURVE",
"213 0 CURVE SMOOTH",
"114 0 OFFCURVE",
"38 73 OFFCURVE",
"38 172 CURVE SMOOTH",
"38 277 OFFCURVE",
"168 502 OFFCURVE",
"326 502 CURVE SMOOTH",
"384 502 OFFCURVE",
"432 478 OFFCURVE",
"458 438 CURVE",
"426 413 LINE",
"407 450 OFFCURVE",
"369 469 OFFCURVE",
"321 469 CURVE SMOOTH",
"183 469 OFFCURVE",
"73 257 OFFCURVE",
"73 169 CURVE SMOOTH",
"73 53 OFFCURVE",
"182 33 OFFCURVE",
"230 33 CURVE SMOOTH"
);
},
{
closed = 1;
nodes = (
"214 603 LINE",
"381 718 LINE",
"477 603 LINE",
"448 577 LINE",
"367 667 LINE",
"230 575 LINE"
);
}
);
userData = {
com.fontlab.hintData = {
hhints = (
{
position = 0;
width = 33;
},
{
position = 469;
width = 33;
}
);
vhints = (
{
position = 38;
width = 35;
}
);
};
};
width = 497;
}
);
unicode = 0109;
},
{
glyphname = d;
layers = (
{
layerId = master01;
paths = (
{
closed = 1;
nodes = (
"553 703 LINE",
"389 9 LINE",
"350 2 LINE",
"372 97 LINE",
"317 45 OFFCURVE",
"244 6 OFFCURVE",
"166 6 CURVE SMOOTH",
"75 6 OFFCURVE",
"38 76 OFFCURVE",
"38 158 CURVE SMOOTH",
"38 344 OFFCURVE",
"157 495 OFFCURVE",
"318 495 CURVE SMOOTH",
"374 495 OFFCURVE",
"422 475 OFFCURVE",
"458 457 CURVE",
"513 696 LINE"
);
},
{
closed = 1;
nodes = (
"448 417 LINE",
"429 428 OFFCURVE",
"370 460 OFFCURVE",
"307 460 CURVE SMOOTH",
"124 460 OFFCURVE",
"75 235 OFFCURVE",
"75 157 CURVE SMOOTH",
"75 96 OFFCURVE",
"96 36 OFFCURVE",
"172 36 CURVE SMOOTH",
"283 36 OFFCURVE",
"379 123 OFFCURVE",
"387 158 CURVE SMOOTH"
);
}
);
userData = {
com.fontlab.hintData = {
hhints = (
{
position = 6;
width = 30;
},
{
position = 460;
width = 35;
}
);
vhints = (
{
position = 38;
width = 37;
}
);
};
};
width = 516;
}
);
unicode = 0064;
},
{
glyphname = eth;
layers = (
{
layerId = master01;
paths = (
{
closed = 1;
nodes = (
"384 526 OFFCURVE",
"435 425 OFFCURVE",
"435 319 CURVE SMOOTH",
"435 174 OFFCURVE",
"318 0 OFFCURVE",
"159 0 CURVE SMOOTH",
"81 0 OFFCURVE",
"28 52 OFFCURVE",
"28 132 CURVE SMOOTH",
"28 312 OFFCURVE",
"205 433 OFFCURVE",
"382 433 CURVE",
"359 494 OFFCURVE",
"327 544 OFFCURVE",
"300 583 CURVE",
"246 556 OFFCURVE",
"188 524 OFFCURVE",
"163 509 CURVE",
"156 528 LINE",
"194 550 OFFCURVE",
"251 579 OFFCURVE",
"288 599 CURVE",
"271 620 OFFCURVE",
"258 635 OFFCURVE",
"248 647 CURVE",
"273 672 LINE",
"321 614 LINE",
"366 636 OFFCURVE",
"421 663 OFFCURVE",
"459 678 CURVE",
"462 659 LINE",
"428 646 OFFCURVE",
"367 619 OFFCURVE",
"332 599 CURVE"
);
},
{
closed = 1;
nodes = (
"306 32 OFFCURVE",
"402 196 OFFCURVE",
"402 318 CURVE SMOOTH",
"402 345 OFFCURVE",
"398 373 OFFCURVE",
"391 401 CURVE",
"234 401 OFFCURVE",
"62 313 OFFCURVE",
"62 135 CURVE SMOOTH",
"62 71 OFFCURVE",
"102 32 OFFCURVE",
"165 32 CURVE SMOOTH"
);
}
);
userData = {
com.fontlab.hintData = {
hhints = (
{
position = 0;
width = 32;
},
{
position = 401;
width = 32;
},
{
position = 509;
width = 21;
}
);
vhints = (
{
position = 28;
width = 34;
},
{
position = 402;
width = 33;
}
);
};
};
width = 472;
}
);
unicode = 00F0;
},
{
glyphname = dcaron;
layers = (
{
layerId = master01;
paths = (
{
closed = 1;
nodes = (
"720 666 LINE",
"600 510 LINE",
"572 529 LINE",
"649 629 LINE",
"617 651 LINE",
"668 696 LINE"
);
},
{
closed = 1;
nodes = (
"553 703 LINE",
"389 9 LINE",
"350 2 LINE",
"372 97 LINE",
"317 45 OFFCURVE",
"244 6 OFFCURVE",
"166 6 CURVE SMOOTH",
"75 6 OFFCURVE",
"38 76 OFFCURVE",
"38 158 CURVE SMOOTH",
"38 344 OFFCURVE",
"157 495 OFFCURVE",
"318 495 CURVE SMOOTH",
"374 495 OFFCURVE",
"422 475 OFFCURVE",
"458 457 CURVE",
"513 696 LINE"
);
},
{
closed = 1;
nodes = (
"448 417 LINE",
"429 428 OFFCURVE",
"370 460 OFFCURVE",
"307 460 CURVE SMOOTH",
"124 460 OFFCURVE",
"75 235 OFFCURVE",
"75 157 CURVE SMOOTH",
"75 96 OFFCURVE",
"96 36 OFFCURVE",
"172 36 CURVE SMOOTH",
"283 36 OFFCURVE",
"379 123 OFFCURVE",
"387 158 CURVE SMOOTH"
);
}
);
userData = {
com.fontlab.hintData = {
hhints = (
{
position = 6;
width = 30;
},
{
position = 460;
width = 35;
},
{
position = 510;
width = 21;
}
);
vhints = (
{
position = 38;
width = 37;
}
);
};
};
width = 599;
}
);
unicode = 010F;
},
{
glyphname = dcroat;
layers = (
{
layerId = master01;
paths = (
{
closed = 1;
nodes = (
"553 703 LINE",
"531 609 LINE",
"632 609 LINE",
"618 576 LINE",
"523 576 LINE",
"389 9 LINE",
"350 2 LINE",
"372 97 LINE",
"317 45 OFFCURVE",
"244 6 OFFCURVE",
"166 6 CURVE SMOOTH",
"75 6 OFFCURVE",
"38 76 OFFCURVE",
"38 158 CURVE SMOOTH",
"38 344 OFFCURVE",
"157 495 OFFCURVE",
"318 495 CURVE SMOOTH",
"374 495 OFFCURVE",
"422 475 OFFCURVE",
"458 457 CURVE",
"485 576 LINE",
"384 576 LINE",
"398 609 LINE",
"493 609 LINE",
"513 696 LINE"
);
},
{
closed = 1;
nodes = (
"448 417 LINE",
"429 428 OFFCURVE",
"370 460 OFFCURVE",
"307 460 CURVE SMOOTH",
"124 460 OFFCURVE",
"75 235 OFFCURVE",
"75 157 CURVE SMOOTH",
"75 96 OFFCURVE",
"96 36 OFFCURVE",
"172 36 CURVE SMOOTH",
"283 36 OFFCURVE",
"379 123 OFFCURVE",
"387 158 CURVE SMOOTH"
);
}
);
userData = {
com.fontlab.hintData = {
hhints = (
{
position = 6;
width = 30;
},
{
position = 460;
width = 35;
},
{
position = 576;
width = 33;
}
);
vhints = (
{
position = 38;
width = 37;
}
);
};
};
width = 540;
}
);
unicode = 0111;
},
{
glyphname = e;
layers = (
{
layerId = master01;
paths = (
{
closed = 1;
nodes = (
"123 0 OFFCURVE",
"44 83 OFFCURVE",
"44 196 CURVE SMOOTH",
"44 356 OFFCURVE",
"193 502 OFFCURVE",
"345 502 CURVE SMOOTH",
"429 502 OFFCURVE",
"486 441 OFFCURVE",
"495 365 CURVE",
"82 159 LINE",
"103 83 OFFCURVE",
"164 32 OFFCURVE",
"245 32 CURVE SMOOTH",
"297 32 OFFCURVE",
"352 54 OFFCURVE",
"399 91 CURVE",
"417 68 LINE",
"362 25 OFFCURVE",
"299 0 OFFCURVE",
"239 0 CURVE SMOOTH"
);
},
{
closed = 1;
nodes = (
"203 470 OFFCURVE",
"78 339 OFFCURVE",
"78 206 CURVE SMOOTH",
"78 190 LINE",
"456 379 LINE",
"436 436 OFFCURVE",
"391 470 OFFCURVE",
"338 470 CURVE SMOOTH"
);
}
);
userData = {
com.fontlab.hintData = {
hhints = (
{
position = 0;
width = 32;
},
{
position = 470;
width = 32;
}
);
vhints = (
{
position = 44;
width = 34;
}
);
};
};
width = 517;
}
);
unicode = 0065;
},
{
glyphname = eacute;
layers = (
{
layerId = master01;
paths = (
{
closed = 1;
nodes = (
"421 730 LINE",
"451 698 LINE",
"277 593 LINE",
"257 617 LINE"
);
},
{
closed = 1;
nodes = (
"123 0 OFFCURVE",
"44 83 OFFCURVE",
"44 196 CURVE SMOOTH",
"44 356 OFFCURVE",
"193 502 OFFCURVE",
"345 502 CURVE SMOOTH",
"429 502 OFFCURVE",
"486 441 OFFCURVE",
"495 365 CURVE",
"82 159 LINE",
"103 83 OFFCURVE",
"164 32 OFFCURVE",
"245 32 CURVE SMOOTH",
"297 32 OFFCURVE",
"352 54 OFFCURVE",
"399 91 CURVE",
"417 68 LINE",
"362 25 OFFCURVE",
"299 0 OFFCURVE",
"239 0 CURVE SMOOTH"
);
},
{
closed = 1;
nodes = (
"203 470 OFFCURVE",
"78 339 OFFCURVE",
"78 206 CURVE SMOOTH",
"78 190 LINE",
"456 379 LINE",
"436 436 OFFCURVE",
"391 470 OFFCURVE",
"338 470 CURVE SMOOTH"
);
}
);
userData = {
com.fontlab.hintData = {
hhints = (
{
position = 0;
width = 32;
},
{
position = 470;
width = 32;
}
);
vhints = (
{
position = 44;
width = 34;
}
);
};
};
width = 517;
}
);
unicode = 00E9;
},
{
glyphname = ecaron;
layers = (
{
layerId = master01;
paths = (
{
closed = 1;
nodes = (
"510 687 LINE",
"343 575 LINE",
"247 688 LINE",
"277 717 LINE",
"356 625 LINE",
"494 718 LINE"
);
},
{
closed = 1;
nodes = (
"123 0 OFFCURVE",
"44 83 OFFCURVE",
"44 196 CURVE SMOOTH",
"44 356 OFFCURVE",
"193 502 OFFCURVE",
"345 502 CURVE SMOOTH",
"429 502 OFFCURVE",
"486 441 OFFCURVE",
"495 365 CURVE",
"82 159 LINE",
"103 83 OFFCURVE",
"164 32 OFFCURVE",
"245 32 CURVE SMOOTH",
"297 32 OFFCURVE",
"352 54 OFFCURVE",
"399 91 CURVE",
"417 68 LINE",
"362 25 OFFCURVE",
"299 0 OFFCURVE",
"239 0 CURVE SMOOTH"
);
},
{
closed = 1;
nodes = (
"203 470 OFFCURVE",
"78 339 OFFCURVE",
"78 206 CURVE SMOOTH",
"78 190 LINE",
"456 379 LINE",
"436 436 OFFCURVE",
"391 470 OFFCURVE",
"338 470 CURVE SMOOTH"
);
}
);
userData = {
com.fontlab.hintData = {
hhints = (
{
position = 0;
width = 32;
},
{
position = 470;
width = 32;
}
);
vhints = (
{
position = 44;
width = 34;
}
);
};
};
width = 517;
}
);
unicode = 011B;
},
{
glyphname = ecircumflex;
layers = (
{
layerId = master01;
paths = (
{
closed = 1;
nodes = (
"207 603 LINE",
"373 718 LINE",
"469 603 LINE",
"440 577 LINE",
"359 667 LINE",
"223 575 LINE"
);
},
{
closed = 1;
nodes = (
"123 0 OFFCURVE",
"44 83 OFFCURVE",
"44 196 CURVE SMOOTH",
"44 356 OFFCURVE",
"193 502 OFFCURVE",
"345 502 CURVE SMOOTH",
"429 502 OFFCURVE",
"486 441 OFFCURVE",
"495 365 CURVE",
"82 159 LINE",
"103 83 OFFCURVE",
"164 32 OFFCURVE",
"245 32 CURVE SMOOTH",
"297 32 OFFCURVE",
"352 54 OFFCURVE",
"399 91 CURVE",
"417 68 LINE",
"362 25 OFFCURVE",
"299 0 OFFCURVE",
"239 0 CURVE SMOOTH"
);
},
{
closed = 1;
nodes = (
"203 470 OFFCURVE",
"78 339 OFFCURVE",
"78 206 CURVE SMOOTH",
"78 190 LINE",
"456 379 LINE",
"436 436 OFFCURVE",
"391 470 OFFCURVE",
"338 470 CURVE SMOOTH"
);
}
);
userData = {
com.fontlab.hintData = {
hhints = (
{
position = 0;
width = 32;
},
{
position = 470;
width = 32;
}
);
vhints = (
{
position = 44;
width = 34;
}
);
};
};
width = 517;
}
);
unicode = 00EA;
},
{
glyphname = edieresis;
layers = (
{
layerId = master01;
paths = (
{
closed = 1;
nodes = (
"294 604 LINE",
"238 596 LINE",
"258 660 LINE",
"315 669 LINE"
);
},
{
closed = 1;
nodes = (
"460 604 LINE",
"404 596 LINE",
"425 660 LINE",
"482 669 LINE"
);
},
{
closed = 1;
nodes = (
"123 0 OFFCURVE",
"44 83 OFFCURVE",
"44 196 CURVE SMOOTH",
"44 356 OFFCURVE",
"193 502 OFFCURVE",
"345 502 CURVE SMOOTH",
"429 502 OFFCURVE",
"486 441 OFFCURVE",
"495 365 CURVE",
"82 159 LINE",
"103 83 OFFCURVE",
"164 32 OFFCURVE",
"245 32 CURVE SMOOTH",
"297 32 OFFCURVE",
"352 54 OFFCURVE",
"399 91 CURVE",
"417 68 LINE",
"362 25 OFFCURVE",
"299 0 OFFCURVE",
"239 0 CURVE SMOOTH"
);
},
{
closed = 1;
nodes = (
"203 470 OFFCURVE",
"78 339 OFFCURVE",
"78 206 CURVE SMOOTH",
"78 190 LINE",
"456 379 LINE",
"436 436 OFFCURVE",
"391 470 OFFCURVE",
"338 470 CURVE SMOOTH"
);
}
);
userData = {
com.fontlab.hintData = {
hhints = (
{
position = 0;
width = 32;
},
{
position = 470;
width = 32;
}
);
vhints = (
{
position = 44;
width = 34;
}
);
};
};
width = 517;
}
);
unicode = 00EB;
},
{
glyphname = egrave;
layers = (
{
layerId = master01;
paths = (
{
closed = 1;
nodes = (
"376 582 LINE",
"275 712 LINE",
"322 737 LINE",
"410 602 LINE"
);
},
{
closed = 1;
nodes = (
"123 0 OFFCURVE",
"44 83 OFFCURVE",
"44 196 CURVE SMOOTH",
"44 356 OFFCURVE",
"193 502 OFFCURVE",
"345 502 CURVE SMOOTH",
"429 502 OFFCURVE",
"486 441 OFFCURVE",
"495 365 CURVE",
"82 159 LINE",
"103 83 OFFCURVE",
"164 32 OFFCURVE",
"245 32 CURVE SMOOTH",
"297 32 OFFCURVE",
"352 54 OFFCURVE",
"399 91 CURVE",
"417 68 LINE",
"362 25 OFFCURVE",
"299 0 OFFCURVE",
"239 0 CURVE SMOOTH"
);
},
{
closed = 1;
nodes = (
"203 470 OFFCURVE",
"78 339 OFFCURVE",
"78 206 CURVE SMOOTH",
"78 190 LINE",
"456 379 LINE",
"436 436 OFFCURVE",
"391 470 OFFCURVE",
"338 470 CURVE SMOOTH"
);
}
);
userData = {
com.fontlab.hintData = {
hhints = (
{
position = 0;
width = 32;
},
{
position = 470;
width = 32;
}
);
vhints = (
{
position = 44;
width = 34;
}
);
};
};
width = 517;
}
);
unicode = 00E8;
},
{
glyphname = eogonek;
layers = (
{
layerId = master01;
paths = (
{
closed = 1;
nodes = (
"316 -172 LINE",
"294 -191 OFFCURVE",
"253 -209 OFFCURVE",
"216 -209 CURVE SMOOTH",
"167 -209 OFFCURVE",
"135 -179 OFFCURVE",
"135 -134 CURVE SMOOTH",
"135 -78 OFFCURVE",
"180 -32 OFFCURVE",
"227 0 CURVE",
"117 5 OFFCURVE",
"44 87 OFFCURVE",
"44 196 CURVE SMOOTH",
"44 356 OFFCURVE",
"192 502 OFFCURVE",
"345 502 CURVE SMOOTH",
"429 502 OFFCURVE",
"486 441 OFFCURVE",
"495 365 CURVE",
"82 159 LINE",
"103 83 OFFCURVE",
"164 32 OFFCURVE",
"245 32 CURVE SMOOTH",
"297 32 OFFCURVE",
"352 54 OFFCURVE",
"399 91 CURVE",
"417 68 LINE",
"384 42 OFFCURVE",
"360 31 OFFCURVE",
"328 18 CURVE SMOOTH",
"252 -12 OFFCURVE",
"166 -59 OFFCURVE",
"166 -127 CURVE SMOOTH",
"166 -158 OFFCURVE",
"190 -177 OFFCURVE",
"223 -177 CURVE SMOOTH",
"258 -177 OFFCURVE",
"276 -166 OFFCURVE",
"304 -149 CURVE"
);
},
{
closed = 1;
nodes = (
"203 470 OFFCURVE",
"78 339 OFFCURVE",
"78 206 CURVE SMOOTH",
"78 190 LINE",
"456 379 LINE",
"436 436 OFFCURVE",
"391 470 OFFCURVE",
"338 470 CURVE SMOOTH"
);
}
);
userData = {
com.fontlab.hintData = {
hhints = (
{
position = -209;
width = 32;
},
{
position = 0;
width = 32;
},
{
position = 470;
width = 32;
}
);
vhints = (
{
position = 44;
width = 34;
},
{
position = 135;
width = 31;
}
);
};
};
width = 517;
}
);
unicode = 0119;
},
{
glyphname = f;
layers = (
{
layerId = master01;
paths = (
{
closed = 1;
nodes = (
"382 667 LINE",
"257 667 OFFCURVE",
"220 622 OFFCURVE",
"195 502 CURVE",
"328 502 LINE",
"314 470 LINE",
"183 470 LINE",
"85 9 LINE",
"46 2 LINE",
"145 470 LINE",
"59 470 LINE",
"72 502 LINE",
"152 502 LINE",
"183 649 OFFCURVE",
"257 702 OFFCURVE",
"389 702 CURVE SMOOTH",
"407 702 LINE"
);
}
);
userData = {
com.fontlab.hintData = {
hhints = (
{
position = 470;
width = 32;
},
{
position = 667;
width = 35;
}
);
};
};
width = 322;
}
);
unicode = 0066;
},
{
glyphname = g;
layers = (
{
layerId = master01;
paths = (
{
closed = 1;
nodes = (
"390 9 LINE SMOOTH",
"360 -121 OFFCURVE",
"271 -193 OFFCURVE",
"147 -193 CURVE SMOOTH",
"103 -193 OFFCURVE",
"62 -187 OFFCURVE",
"31 -181 CURVE",
"46 -144 LINE",
"75 -149 OFFCURVE",
"115 -155 OFFCURVE",
"156 -155 CURVE SMOOTH",
"301 -155 OFFCURVE",
"341 -40 OFFCURVE",
"352 8 CURVE SMOOTH",
"374 103 LINE",
"319 35 OFFCURVE",
"251 0 OFFCURVE",
"194 0 CURVE SMOOTH",
"100 0 OFFCURVE",
"42 72 OFFCURVE",
"42 175 CURVE SMOOTH",
"42 323 OFFCURVE",
"169 501 OFFCURVE",
"341 501 CURVE SMOOTH",
"387 501 OFFCURVE",
"428 479 OFFCURVE",
"459 459 CURVE",
"468 500 LINE",
"507 506 LINE"
);
},
{
closed = 1;
nodes = (
"448 425 LINE",
"425 445 OFFCURVE",
"379 465 OFFCURVE",
"335 465 CURVE SMOOTH",
"196 465 OFFCURVE",
"76 321 OFFCURVE",
"76 182 CURVE SMOOTH",
"76 111 OFFCURVE",
"105 34 OFFCURVE",
"196 34 CURVE SMOOTH",
"273 34 OFFCURVE",
"377 92 OFFCURVE",
"415 269 CURVE SMOOTH"
);
}
);
userData = {
com.fontlab.hintData = {
hhints = (
{
position = -193;
width = 38;
},
{
position = 0;
width = 34;
},
{
position = 465;
width = 36;
}
);
vhints = (
{
position = 42;
width = 34;
}
);
};
};
width = 512;
}
);
unicode = 0067;
},
{
glyphname = gcircumflex;
layers = (
{
layerId = master01;
paths = (
{
closed = 1;
nodes = (
"390 9 LINE SMOOTH",
"360 -121 OFFCURVE",
"271 -193 OFFCURVE",
"147 -193 CURVE SMOOTH",
"103 -193 OFFCURVE",
"62 -187 OFFCURVE",
"31 -181 CURVE",
"46 -144 LINE",
"75 -149 OFFCURVE",
"115 -155 OFFCURVE",
"156 -155 CURVE SMOOTH",
"301 -155 OFFCURVE",
"341 -40 OFFCURVE",
"352 8 CURVE SMOOTH",
"374 103 LINE",
"319 35 OFFCURVE",
"251 0 OFFCURVE",
"194 0 CURVE SMOOTH",
"100 0 OFFCURVE",
"42 72 OFFCURVE",
"42 175 CURVE SMOOTH",
"42 323 OFFCURVE",
"169 501 OFFCURVE",
"341 501 CURVE SMOOTH",
"387 501 OFFCURVE",
"428 479 OFFCURVE",
"459 459 CURVE",
"468 500 LINE",
"507 506 LINE"
);
},
{
closed = 1;
nodes = (
"448 425 LINE",
"425 445 OFFCURVE",
"379 465 OFFCURVE",
"335 465 CURVE SMOOTH",
"196 465 OFFCURVE",
"76 321 OFFCURVE",
"76 182 CURVE SMOOTH",
"76 111 OFFCURVE",
"105 34 OFFCURVE",
"196 34 CURVE SMOOTH",
"273 34 OFFCURVE",
"377 92 OFFCURVE",
"415 269 CURVE SMOOTH"
);
},
{
closed = 1;
nodes = (
"214 603 LINE",
"381 718 LINE",
"477 603 LINE",
"448 577 LINE",
"367 667 LINE",
"230 575 LINE"
);
}
);
userData = {
com.fontlab.hintData = {
hhints = (
{
position = -193;
width = 38;
},
{
position = 0;
width = 34;
},
{
position = 465;
width = 36;
}
);
vhints = (
{
position = 42;
width = 34;
}
);
};
};
width = 512;
}
);
unicode = 011D;
},
{
glyphname = h;
layers = (
{
layerId = master01;
paths = (
{
closed = 1;
nodes = (
"116 315 LINE",
"171 397 OFFCURVE",
"291 505 OFFCURVE",
"374 505 CURVE SMOOTH",
"433 505 OFFCURVE",
"458 462 OFFCURVE",
"458 377 CURVE SMOOTH",
"458 301 OFFCURVE",
"415 81 OFFCURVE",
"396 9 CURVE",
"360 2 LINE",
"369 35 OFFCURVE",
"422 296 OFFCURVE",
"422 369 CURVE SMOOTH",
"422 435 OFFCURVE",
"405 470 OFFCURVE",
"366 470 CURVE SMOOTH",
"273 470 OFFCURVE",
"154 329 OFFCURVE",
"128 291 CURVE SMOOTH",
"109 264 OFFCURVE",
"98 227 OFFCURVE",
"91 194 CURVE SMOOTH",
"51 9 LINE",
"13 2 LINE",
"159 689 LINE",
"198 698 LINE"
);
}
);
userData = {
com.fontlab.hintData = {
hhints = (
{
position = 470;
width = 35;
}
);
vhints = (
{
position = 422;
width = 36;
}
);
};
};
width = 494;
}
);
unicode = 0068;
},
{
glyphname = hcircumflex;
layers = (
{
layerId = master01;
paths = (
{
closed = 1;
nodes = (
"116 315 LINE",
"171 397 OFFCURVE",
"291 505 OFFCURVE",
"374 505 CURVE SMOOTH",
"433 505 OFFCURVE",
"458 462 OFFCURVE",
"458 377 CURVE SMOOTH",
"458 301 OFFCURVE",
"415 81 OFFCURVE",
"396 9 CURVE",
"360 2 LINE",
"369 35 OFFCURVE",
"422 296 OFFCURVE",
"422 369 CURVE SMOOTH",
"422 435 OFFCURVE",
"405 470 OFFCURVE",
"366 470 CURVE SMOOTH",
"273 470 OFFCURVE",
"154 329 OFFCURVE",
"128 291 CURVE SMOOTH",
"109 264 OFFCURVE",
"98 227 OFFCURVE",
"91 194 CURVE SMOOTH",
"51 9 LINE",
"13 2 LINE",
"159 689 LINE",
"198 698 LINE"
);
},
{
closed = 1;
nodes = (
"193 771 LINE",
"357 884 LINE",
"452 771 LINE",
"424 745 LINE",
"344 833 LINE",
"209 743 LINE"
);
}
);
userData = {
com.fontlab.hintData = {
hhints = (
{
position = 470;
width = 35;
}
);
vhints = (
{
position = 422;
width = 36;
}
);
};
};
width = 494;
}
);
unicode = 0125;
},
{
glyphname = i;
layers = (
{
layerId = master01;
paths = (
{
closed = 1;
nodes = (
"162 498 LINE",
"58 9 LINE",
"16 2 LINE",
"120 493 LINE"
);
},
{
closed = 1;
nodes = (
"190 631 LINE",
"149 624 LINE",
"162 687 LINE",
"207 695 LINE"
);
}
);
userData = {
com.fontlab.hintData = {
hhints = (
{
position = 478;
width = 20;
}
);
vhints = (
{
position = 16;
width = 191;
}
);
};
};
width = 183;
}
);
unicode = 0069;
},
{
glyphname = iacute;
layers = (
{
layerId = master01;
paths = (
{
closed = 1;
nodes = (
"274 730 LINE",
"304 698 LINE",
"130 593 LINE",
"110 617 LINE"
);
},
{
closed = 1;
nodes = (
"161 498 LINE",
"57 9 LINE",
"16 2 LINE",
"120 493 LINE"
);
}
);
userData = {
com.fontlab.hintData = {
hhints = (
{
position = 478;
width = 20;
}
);
vhints = (
{
position = 16;
width = 288;
}
);
};
};
width = 195;
}
);
unicode = 00ED;
},
{
glyphname = icircumflex;
layers = (
{
layerId = master01;
paths = (
{
closed = 1;
nodes = (
"74 603 LINE",
"239 718 LINE",
"335 603 LINE",
"306 577 LINE",
"225 667 LINE",
"89 575 LINE"
);
},
{
closed = 1;
nodes = (
"195 498 LINE",
"91 9 LINE",
"50 2 LINE",
"154 493 LINE"
);
}
);
userData = {
com.fontlab.hintData = {
hhints = (
{
position = 478;
width = 20;
}
);
vhints = (
{
position = 50;
width = 285;
}
);
};
};
width = 236;
}
);
unicode = 00EE;
},
{
glyphname = idieresis;
layers = (
{
layerId = master01;
paths = (
{
closed = 1;
nodes = (
"145 604 LINE",
"89 596 LINE",
"110 660 LINE",
"167 669 LINE"
);
},
{
closed = 1;
nodes = (
"312 604 LINE",
"256 596 LINE",
"276 660 LINE",
"333 669 LINE"
);
},
{
closed = 1;
nodes = (
"190 498 LINE",
"86 9 LINE",
"44 2 LINE",
"148 493 LINE"
);
}
);
userData = {
com.fontlab.hintData = {
hhints = (
{
position = 478;
width = 20;
}
);
vhints = (
{
position = 44;
width = 289;
}
);
};
};
width = 236;
}
);
unicode = 00EF;
},
{
glyphname = igrave;
layers = (
{
layerId = master01;
paths = (
{
closed = 1;
nodes = (
"209 582 LINE",
"108 712 LINE",
"154 737 LINE",
"243 602 LINE"
);
},
{
closed = 1;
nodes = (
"174 498 LINE",
"70 9 LINE",
"29 2 LINE",
"133 493 LINE"
);
}
);
userData = {
com.fontlab.hintData = {
hhints = (
{
position = 478;
width = 20;
}
);
vhints = (
{
position = 29;
width = 214;
}
);
};
};
width = 207;
}
);
unicode = 00EC;
},
{
glyphname = j;
layers = (
{
layerId = master01;
paths = (
{
closed = 1;
nodes = (
"312 639 LINE",
"275 632 LINE",
"292 696 LINE",
"333 703 LINE"
);
},
{
closed = 1;
nodes = (
"-56 -21 LINE",
"-46 -67 OFFCURVE",
"-18 -155 OFFCURVE",
"36 -155 CURVE SMOOTH",
"90 -155 OFFCURVE",
"127 -92 OFFCURVE",
"143 -16 CURVE SMOOTH",
"147 2 OFFCURVE",
"193 231 OFFCURVE",
"246 503 CURVE",
"286 511 LINE",
"232 234 OFFCURVE",
"187 7 OFFCURVE",
"183 -10 CURVE SMOOTH",
"168 -81 OFFCURVE",
"124 -187 OFFCURVE",
"34 -187 CURVE SMOOTH",
"-51 -187 OFFCURVE",
"-88 -66 OFFCURVE",
"-94 -28 CURVE"
);
}
);
userData = {
com.fontlab.hintData = {
hhints = (
{
position = -187;
width = 32;
},
{
position = 491;
width = 20;
}
);
vhints = (
{
position = -94;
width = 38;
}
);
};
};
width = 303;
}
);
unicode = 006A;
},
{
glyphname = jcircumflex;
layers = (
{
layerId = master01;
paths = (
{
closed = 1;
nodes = (
"-56 -21 LINE",
"-46 -67 OFFCURVE",
"-18 -155 OFFCURVE",
"36 -155 CURVE SMOOTH",
"90 -155 OFFCURVE",
"127 -92 OFFCURVE",
"143 -16 CURVE SMOOTH",
"147 2 OFFCURVE",
"193 231 OFFCURVE",
"246 503 CURVE",
"286 511 LINE",
"232 234 OFFCURVE",
"187 7 OFFCURVE",
"183 -10 CURVE SMOOTH",
"168 -81 OFFCURVE",
"124 -187 OFFCURVE",
"34 -187 CURVE SMOOTH",
"-51 -187 OFFCURVE",
"-88 -66 OFFCURVE",
"-94 -28 CURVE"
);
},
{
closed = 1;
nodes = (
"144 603 LINE",
"311 718 LINE",
"407 603 LINE",
"378 577 LINE",
"297 667 LINE",
"160 575 LINE"
);
}
);
userData = {
com.fontlab.hintData = {
hhints = (
{
position = -187;
width = 32;
},
{
position = 491;
width = 20;
}
);
vhints = (
{
position = -94;
width = 38;
}
);
};
};
width = 303;
}
);
unicode = 0135;
},
{
glyphname = k;
layers = (
{
layerId = master01;
paths = (
{
closed = 1;
nodes = (
"257 294 OFFCURVE",
"333 167 OFFCURVE",
"409 30 CURVE",
"376 5 LINE",
"327 115 OFFCURVE",
"257 227 OFFCURVE",
"218 280 CURVE",
"167 247 OFFCURVE",
"126 221 OFFCURVE",
"95 205 CURVE",
"54 9 LINE",
"15 2 LINE",
"159 689 LINE",
"199 698 LINE",
"104 245 LINE",
"189 285 OFFCURVE",
"365 425 OFFCURVE",
"469 531 CURVE",
"495 510 LINE",
"433 449 OFFCURVE",
"302 338 OFFCURVE",
"251 303 CURVE"
);
}
);
width = 484;
}
);
unicode = 006B;
},
{
glyphname = l;
layers = (
{
layerId = master01;
paths = (
{
closed = 1;
nodes = (
"222 698 LINE",
"75 9 LINE",
"36 2 LINE",
"182 689 LINE"
);
}
);
userData = {
com.fontlab.hintData = {
vhints = (
{
position = 36;
width = 186;
}
);
};
};
width = 216;
}
);
unicode = 006C;
},
{
glyphname = lacute;
layers = (
{
layerId = master01;
paths = (
{
closed = 1;
nodes = (
"326 906 LINE",
"357 874 LINE",
"183 769 LINE",
"163 793 LINE"
);
},
{
closed = 1;
nodes = (
"221 698 LINE",
"74 9 LINE",
"36 2 LINE",
"182 689 LINE"
);
}
);
userData = {
com.fontlab.hintData = {
vhints = (
{
position = 36;
width = 321;
}
);
};
};
width = 216;
}
);
unicode = 013A;
},
{
glyphname = lcaron;
layers = (
{
layerId = master01;
paths = (
{
closed = 1;
nodes = (
"220 698 LINE",
"73 9 LINE",
"34 2 LINE",
"180 689 LINE"
);
},
{
closed = 1;
nodes = (
"391 669 LINE",
"272 513 LINE",
"243 532 LINE",
"320 632 LINE",
"288 654 LINE",
"340 699 LINE"
);
}
);
userData = {
com.fontlab.hintData = {
hhints = (
{
position = 513;
width = 21;
}
);
};
};
width = 280;
}
);
unicode = 013E;
},
{
glyphname = lslash;
layers = (
{
layerId = master01;
paths = (
{
closed = 1;
nodes = (
"166 338 LINE",
"96 9 LINE",
"57 2 LINE",
"123 315 LINE",
"53 276 LINE",
"37 307 LINE",
"133 361 LINE",
"203 689 LINE",
"243 698 LINE",
"176 384 LINE",
"248 425 LINE",
"263 393 LINE"
);
}
);
userData = {
com.fontlab.hintData = {
vhints = (
{
position = 37;
width = 226;
}
);
};
};
width = 256;
}
);
unicode = 0142;
},
{
glyphname = m;
layers = (
{
layerId = master01;
paths = (
{
closed = 1;
nodes = (
"110 294 OFFCURVE",
"101 255 OFFCURVE",
"101 255 CURVE",
"48 9 LINE",
"10 2 LINE",
"112 482 LINE",
"151 490 LINE",
"120 344 LINE",
"176 418 OFFCURVE",
"287 511 OFFCURVE",
"366 511 CURVE SMOOTH",
"429 511 OFFCURVE",
"464 489 OFFCURVE",
"466 383 CURVE",
"524 457 OFFCURVE",
"617 511 OFFCURVE",
"680 511 CURVE SMOOTH",
"728 511 OFFCURVE",
"782 490 OFFCURVE",
"782 400 CURVE SMOOTH",
"782 380 OFFCURVE",
"779 357 OFFCURVE",
"773 329 CURVE SMOOTH",
"705 9 LINE",
"666 2 LINE",
"735 326 LINE SMOOTH",
"741 352 OFFCURVE",
"743 375 OFFCURVE",
"743 393 CURVE SMOOTH",
"743 465 OFFCURVE",
"705 479 OFFCURVE",
"673 479 CURVE SMOOTH",
"612 479 OFFCURVE",
"474 399 OFFCURVE",
"447 274 CURVE SMOOTH",
"390 9 LINE",
"351 2 LINE",
"422 336 LINE SMOOTH",
"427 362 OFFCURVE",
"430 384 OFFCURVE",
"430 401 CURVE SMOOTH",
"430 472 OFFCURVE",
"391 481 OFFCURVE",
"360 481 CURVE SMOOTH",
"313 481 OFFCURVE",
"224 430 OFFCURVE",
"127 313 CURVE"
);
}
);
userData = {
com.fontlab.hintData = {
hhints = (
{
position = 481;
width = 30;
}
);
vhints = (
{
position = 430;
width = 36;
},
{
position = 743;
width = 39;
}
);
};
};
width = 807;
}
);
unicode = 006D;
},
{
glyphname = n;
layers = (
{
layerId = master01;
paths = (
{
closed = 1;
nodes = (
"109 282 LINE",
"155 383 OFFCURVE",
"268 501 OFFCURVE",
"378 501 CURVE SMOOTH",
"443 501 OFFCURVE",
"477 465 OFFCURVE",
"481 397 CURVE",
"480 333 OFFCURVE",
"465 244 OFFCURVE",
"437 109 CURVE SMOOTH",
"416 10 LINE",
"378 3 LINE",
"408 144 LINE SMOOTH",
"428 240 OFFCURVE",
"444 323 OFFCURVE",
"444 377 CURVE SMOOTH",
"444 441 OFFCURVE",
"422 467 OFFCURVE",
"368 467 CURVE SMOOTH",
"318 467 OFFCURVE",
"257 445 OFFCURVE",
"176 337 CURVE SMOOTH",
"127 272 OFFCURVE",
"92 202 OFFCURVE",
"76 126 CURVE SMOOTH",
"51 10 LINE",
"13 2 LINE",
"117 493 LINE",
"156 500 LINE"
);
}
);
userData = {
com.fontlab.hintData = {
hhints = (
{
position = 467;
width = 34;
}
);
vhints = (
{
position = 444;
width = 37;
}
);
};
};
width = 526;
}
);
unicode = 006E;
},
{
glyphname = nacute;
layers = (
{
layerId = master01;
paths = (
{
closed = 1;
nodes = (
"456 730 LINE",
"487 698 LINE",
"312 593 LINE",
"292 617 LINE"
);
},
{
closed = 1;
nodes = (
"109 282 LINE",
"155 383 OFFCURVE",
"268 501 OFFCURVE",
"378 501 CURVE SMOOTH",
"443 501 OFFCURVE",
"477 465 OFFCURVE",
"481 397 CURVE",
"480 333 OFFCURVE",
"465 244 OFFCURVE",
"437 109 CURVE SMOOTH",
"416 10 LINE",
"378 3 LINE",
"408 144 LINE SMOOTH",
"428 240 OFFCURVE",
"444 323 OFFCURVE",
"444 377 CURVE SMOOTH",
"444 441 OFFCURVE",
"422 467 OFFCURVE",
"368 467 CURVE SMOOTH",
"318 467 OFFCURVE",
"257 445 OFFCURVE",
"176 337 CURVE SMOOTH",
"127 272 OFFCURVE",
"92 202 OFFCURVE",
"76 126 CURVE SMOOTH",
"51 10 LINE",
"13 2 LINE",
"117 493 LINE",
"156 500 LINE"
);
}
);
userData = {
com.fontlab.hintData = {
hhints = (
{
position = 467;
width = 34;
}
);
vhints = (
{
position = 444;
width = 37;
}
);
};
};
width = 526;
}
);
unicode = 0144;
},
{
glyphname = ncaron;
layers = (
{
layerId = master01;
paths = (
{
closed = 1;
nodes = (
"520 687 LINE",
"353 575 LINE",
"257 688 LINE",
"287 717 LINE",
"366 625 LINE",
"504 718 LINE"
);
},
{
closed = 1;
nodes = (
"109 282 LINE",
"155 383 OFFCURVE",
"268 501 OFFCURVE",
"378 501 CURVE SMOOTH",
"443 501 OFFCURVE",
"477 465 OFFCURVE",
"481 397 CURVE",
"480 333 OFFCURVE",
"465 244 OFFCURVE",
"437 109 CURVE SMOOTH",
"416 10 LINE",
"378 3 LINE",
"408 144 LINE SMOOTH",
"428 240 OFFCURVE",
"444 323 OFFCURVE",
"444 377 CURVE SMOOTH",
"444 441 OFFCURVE",
"422 467 OFFCURVE",
"368 467 CURVE SMOOTH",
"318 467 OFFCURVE",
"257 445 OFFCURVE",
"176 337 CURVE SMOOTH",
"127 272 OFFCURVE",
"92 202 OFFCURVE",
"76 126 CURVE SMOOTH",
"51 10 LINE",
"13 2 LINE",
"117 493 LINE",
"156 500 LINE"
);
}
);
userData = {
com.fontlab.hintData = {
hhints = (
{
position = 467;
width = 34;
}
);
vhints = (
{
position = 444;
width = 37;
}
);
};
};
width = 526;
}
);
unicode = 0148;
},
{
glyphname = ntilde;
layers = (
{
layerId = master01;
paths = (
{
closed = 1;
nodes = (
"109 282 LINE",
"155 383 OFFCURVE",
"268 501 OFFCURVE",
"378 501 CURVE SMOOTH",
"443 501 OFFCURVE",
"477 465 OFFCURVE",
"481 397 CURVE",
"480 333 OFFCURVE",
"465 244 OFFCURVE",
"437 109 CURVE SMOOTH",
"416 10 LINE",
"378 3 LINE",
"408 144 LINE SMOOTH",
"428 240 OFFCURVE",
"444 323 OFFCURVE",
"444 377 CURVE SMOOTH",
"444 441 OFFCURVE",
"422 467 OFFCURVE",
"368 467 CURVE SMOOTH",
"318 467 OFFCURVE",
"257 445 OFFCURVE",
"176 337 CURVE SMOOTH",
"127 272 OFFCURVE",
"92 202 OFFCURVE",
"76 126 CURVE SMOOTH",
"51 10 LINE",
"13 2 LINE",
"117 493 LINE",
"156 500 LINE"
);
},
{
closed = 1;
nodes = (
"404 617 OFFCURVE",
"413 610 OFFCURVE",
"434 610 CURVE SMOOTH",
"472 610 OFFCURVE",
"506 657 OFFCURVE",
"524 691 CURVE",
"553 681 LINE",
"524 625 OFFCURVE",
"472 579 OFFCURVE",
"428 579 CURVE SMOOTH",
"387 579 OFFCURVE",
"370 610 OFFCURVE",
"357 637 CURVE SMOOTH",
"339 674 OFFCURVE",
"329 680 OFFCURVE",
"309 680 CURVE SMOOTH",
"275 680 OFFCURVE",
"240 638 OFFCURVE",
"224 607 CURVE",
"196 617 LINE",
"221 661 OFFCURVE",
"264 712 OFFCURVE",
"316 712 CURVE SMOOTH",
"358 712 OFFCURVE",
"373 681 OFFCURVE",
"386 656 CURVE"
);
}
);
userData = {
com.fontlab.hintData = {
hhints = (
{
position = 467;
width = 34;
},
{
position = 579;
width = 31;
},
{
position = 680;
width = 32;
}
);
vhints = (
{
position = 444;
width = 37;
}
);
};
};
width = 526;
}
);
unicode = 00F1;
},
{
glyphname = o;
layers = (
{
layerId = master01;
paths = (
{
closed = 1;
nodes = (
"100 0 OFFCURVE",
"40 76 OFFCURVE",
"40 176 CURVE SMOOTH",
"40 347 OFFCURVE",
"191 500 OFFCURVE",
"335 500 CURVE SMOOTH",
"431 500 OFFCURVE",
"492 424 OFFCURVE",
"492 325 CURVE SMOOTH",
"492 154 OFFCURVE",
"334 0 OFFCURVE",
"197 0 CURVE SMOOTH"
);
},
{
closed = 1;
nodes = (
"208 467 OFFCURVE",
"79 325 OFFCURVE",
"79 177 CURVE SMOOTH",
"79 94 OFFCURVE",
"124 32 OFFCURVE",
"205 32 CURVE SMOOTH",
"316 32 OFFCURVE",
"452 170 OFFCURVE",
"452 315 CURVE SMOOTH",
"452 401 OFFCURVE",
"401 467 OFFCURVE",
"323 467 CURVE SMOOTH"
);
}
);
userData = {
com.fontlab.hintData = {
hhints = (
{
position = 0;
width = 32;
},
{
position = 467;
width = 33;
}
);
vhints = (
{
position = 40;
width = 39;
},
{
position = 452;
width = 40;
}
);
};
};
width = 525;
}
);
unicode = 006F;
},
{
glyphname = oacute;
layers = (
{
layerId = master01;
paths = (
{
closed = 1;
nodes = (
"468 730 LINE",
"498 698 LINE",
"324 593 LINE",
"304 617 LINE"
);
},
{
closed = 1;
nodes = (
"100 0 OFFCURVE",
"40 76 OFFCURVE",
"40 176 CURVE SMOOTH",
"40 347 OFFCURVE",
"191 500 OFFCURVE",
"335 500 CURVE SMOOTH",
"431 500 OFFCURVE",
"492 424 OFFCURVE",
"492 325 CURVE SMOOTH",
"492 154 OFFCURVE",
"334 0 OFFCURVE",
"197 0 CURVE SMOOTH"
);
},
{
closed = 1;
nodes = (
"208 467 OFFCURVE",
"79 325 OFFCURVE",
"79 177 CURVE SMOOTH",
"79 94 OFFCURVE",
"124 32 OFFCURVE",
"205 32 CURVE SMOOTH",
"316 32 OFFCURVE",
"452 170 OFFCURVE",
"452 315 CURVE SMOOTH",
"452 401 OFFCURVE",
"401 467 OFFCURVE",
"323 467 CURVE SMOOTH"
);
}
);
userData = {
com.fontlab.hintData = {
hhints = (
{
position = 0;
width = 32;
},
{
position = 467;
width = 33;
}
);
vhints = (
{
position = 40;
width = 39;
},
{
position = 452;
width = 40;
}
);
};
};
width = 525;
}
);
unicode = 00F3;
},
{
glyphname = ocircumflex;
layers = (
{
layerId = master01;
paths = (
{
closed = 1;
nodes = (
"232 603 LINE",
"398 718 LINE",
"494 603 LINE",
"465 577 LINE",
"384 667 LINE",
"248 575 LINE"
);
},
{
closed = 1;
nodes = (
"100 0 OFFCURVE",
"40 76 OFFCURVE",
"40 176 CURVE SMOOTH",
"40 347 OFFCURVE",
"191 500 OFFCURVE",
"335 500 CURVE SMOOTH",
"431 500 OFFCURVE",
"492 424 OFFCURVE",
"492 325 CURVE SMOOTH",
"492 154 OFFCURVE",
"334 0 OFFCURVE",
"197 0 CURVE SMOOTH"
);
},
{
closed = 1;
nodes = (
"208 467 OFFCURVE",
"79 325 OFFCURVE",
"79 177 CURVE SMOOTH",
"79 94 OFFCURVE",
"124 32 OFFCURVE",
"205 32 CURVE SMOOTH",
"316 32 OFFCURVE",
"452 170 OFFCURVE",
"452 315 CURVE SMOOTH",
"452 401 OFFCURVE",
"401 467 OFFCURVE",
"323 467 CURVE SMOOTH"
);
}
);
userData = {
com.fontlab.hintData = {
hhints = (
{
position = 0;
width = 32;
},
{
position = 467;
width = 33;
}
);
vhints = (
{
position = 40;
width = 39;
},
{
position = 452;
width = 40;
}
);
};
};
width = 525;
}
);
unicode = 00F4;
},
{
glyphname = odieresis;
layers = (
{
layerId = master01;
paths = (
{
closed = 1;
nodes = (
"309 604 LINE",
"253 596 LINE",
"273 660 LINE",
"331 669 LINE"
);
},
{
closed = 1;
nodes = (
"476 604 LINE",
"420 596 LINE",
"440 660 LINE",
"497 669 LINE"
);
},
{
closed = 1;
nodes = (
"100 0 OFFCURVE",
"40 76 OFFCURVE",
"40 176 CURVE SMOOTH",
"40 347 OFFCURVE",
"191 500 OFFCURVE",
"335 500 CURVE SMOOTH",
"431 500 OFFCURVE",
"492 424 OFFCURVE",
"492 325 CURVE SMOOTH",
"492 154 OFFCURVE",
"334 0 OFFCURVE",
"197 0 CURVE SMOOTH"
);
},
{
closed = 1;
nodes = (
"208 467 OFFCURVE",
"79 325 OFFCURVE",
"79 177 CURVE SMOOTH",
"79 94 OFFCURVE",
"124 32 OFFCURVE",
"205 32 CURVE SMOOTH",
"316 32 OFFCURVE",
"452 170 OFFCURVE",
"452 315 CURVE SMOOTH",
"452 401 OFFCURVE",
"401 467 OFFCURVE",
"323 467 CURVE SMOOTH"
);
}
);
userData = {
com.fontlab.hintData = {
hhints = (
{
position = 0;
width = 32;
},
{
position = 467;
width = 33;
}
);
vhints = (
{
position = 40;
width = 39;
},
{
position = 452;
width = 40;
}
);
};
};
width = 525;
}
);
unicode = 00F6;
},
{
glyphname = ograve;
layers = (
{
layerId = master01;
paths = (
{
closed = 1;
nodes = (
"395 582 LINE",
"294 712 LINE",
"340 737 LINE",
"429 602 LINE"
);
},
{
closed = 1;
nodes = (
"100 0 OFFCURVE",
"40 76 OFFCURVE",
"40 176 CURVE SMOOTH",
"40 347 OFFCURVE",
"191 500 OFFCURVE",
"335 500 CURVE SMOOTH",
"431 500 OFFCURVE",
"492 424 OFFCURVE",
"492 325 CURVE SMOOTH",
"492 154 OFFCURVE",
"334 0 OFFCURVE",
"197 0 CURVE SMOOTH"
);
},
{
closed = 1;
nodes = (
"208 467 OFFCURVE",
"79 325 OFFCURVE",
"79 177 CURVE SMOOTH",
"79 94 OFFCURVE",
"124 32 OFFCURVE",
"205 32 CURVE SMOOTH",
"316 32 OFFCURVE",
"452 170 OFFCURVE",
"452 315 CURVE SMOOTH",
"452 401 OFFCURVE",
"401 467 OFFCURVE",
"323 467 CURVE SMOOTH"
);
}
);
userData = {
com.fontlab.hintData = {
hhints = (
{
position = 0;
width = 32;
},
{
position = 467;
width = 33;
}
);
vhints = (
{
position = 40;
width = 39;
},
{
position = 452;
width = 40;
}
);
};
};
width = 525;
}
);
unicode = 00F2;
},
{
glyphname = ohungarumlaut;
layers = (
{
layerId = master01;
paths = (
{
closed = 1;
nodes = (
"393 730 LINE",
"424 698 LINE",
"250 593 LINE",
"230 617 LINE"
);
},
{
closed = 1;
nodes = (
"560 730 LINE",
"592 698 LINE",
"418 593 LINE",
"397 617 LINE"
);
},
{
closed = 1;
nodes = (
"100 0 OFFCURVE",
"40 76 OFFCURVE",
"40 176 CURVE SMOOTH",
"40 347 OFFCURVE",
"191 500 OFFCURVE",
"335 500 CURVE SMOOTH",
"431 500 OFFCURVE",
"492 424 OFFCURVE",
"492 325 CURVE SMOOTH",
"492 154 OFFCURVE",
"334 0 OFFCURVE",
"197 0 CURVE SMOOTH"
);
},
{
closed = 1;
nodes = (
"208 467 OFFCURVE",
"79 325 OFFCURVE",
"79 177 CURVE SMOOTH",
"79 94 OFFCURVE",
"124 32 OFFCURVE",
"205 32 CURVE SMOOTH",
"316 32 OFFCURVE",
"452 170 OFFCURVE",
"452 315 CURVE SMOOTH",
"452 401 OFFCURVE",
"401 467 OFFCURVE",
"323 467 CURVE SMOOTH"
);
}
);
userData = {
com.fontlab.hintData = {
hhints = (
{
position = 0;
width = 32;
},
{
position = 467;
width = 33;
}
);
vhints = (
{
position = 40;
width = 39;
},
{
position = 452;
width = 40;
}
);
};
};
width = 545;
}
);
unicode = 0151;
},
{
glyphname = oslash;
layers = (
{
layerId = master01;
paths = (
{
closed = 1;
nodes = (
"159 0 OFFCURVE",
"127 12 OFFCURVE",
"101 32 CURVE",
"51 -32 LINE",
"28 -16 LINE",
"81 51 LINE",
"54 82 OFFCURVE",
"40 126 OFFCURVE",
"40 175 CURVE SMOOTH",
"40 347 OFFCURVE",
"190 500 OFFCURVE",
"335 500 CURVE SMOOTH",
"367 500 OFFCURVE",
"396 491 OFFCURVE",
"420 476 CURVE",
"473 543 LINE",
"496 526 LINE",
"442 457 LINE",
"474 425 OFFCURVE",
"492 379 OFFCURVE",
"492 325 CURVE SMOOTH",
"492 154 OFFCURVE",
"334 0 OFFCURVE",
"197 0 CURVE SMOOTH"
);
},
{
closed = 1;
nodes = (
"333 32 OFFCURVE",
"452 189 OFFCURVE",
"452 315 CURVE SMOOTH",
"452 359 OFFCURVE",
"439 398 OFFCURVE",
"416 425 CURVE",
"124 61 LINE",
"146 43 OFFCURVE",
"172 32 OFFCURVE",
"205 32 CURVE SMOOTH"
);
},
{
closed = 1;
nodes = (
"208 467 OFFCURVE",
"79 325 OFFCURVE",
"79 177 CURVE SMOOTH",
"79 140 OFFCURVE",
"88 107 OFFCURVE",
"105 82 CURVE",
"394 444 LINE",
"374 458 OFFCURVE",
"350 467 OFFCURVE",
"323 467 CURVE SMOOTH"
);
}
);
userData = {
com.fontlab.hintData = {
hhints = (
{
position = 0;
width = 32;
},
{
position = 467;
width = 33;
}
);
vhints = (
{
position = 40;
width = 39;
},
{
position = 452;
width = 40;
}
);
};
};
width = 525;
}
);
unicode = 00F8;
},
{
glyphname = otilde;
layers = (
{
layerId = master01;
paths = (
{
closed = 1;
nodes = (
"100 0 OFFCURVE",
"40 76 OFFCURVE",
"40 176 CURVE SMOOTH",
"40 347 OFFCURVE",
"191 500 OFFCURVE",
"335 500 CURVE SMOOTH",
"431 500 OFFCURVE",
"492 424 OFFCURVE",
"492 325 CURVE SMOOTH",
"492 154 OFFCURVE",
"334 0 OFFCURVE",
"197 0 CURVE SMOOTH"
);
},
{
closed = 1;
nodes = (
"208 467 OFFCURVE",
"79 325 OFFCURVE",
"79 177 CURVE SMOOTH",
"79 94 OFFCURVE",
"124 32 OFFCURVE",
"205 32 CURVE SMOOTH",
"316 32 OFFCURVE",
"452 170 OFFCURVE",
"452 315 CURVE SMOOTH",
"452 401 OFFCURVE",
"401 467 OFFCURVE",
"323 467 CURVE SMOOTH"
);
},
{
closed = 1;
nodes = (
"404 617 OFFCURVE",
"413 610 OFFCURVE",
"434 610 CURVE SMOOTH",
"472 610 OFFCURVE",
"506 657 OFFCURVE",
"524 691 CURVE",
"553 681 LINE",
"524 625 OFFCURVE",
"472 579 OFFCURVE",
"428 579 CURVE SMOOTH",
"387 579 OFFCURVE",
"370 610 OFFCURVE",
"357 637 CURVE SMOOTH",
"339 674 OFFCURVE",
"329 680 OFFCURVE",
"309 680 CURVE SMOOTH",
"275 680 OFFCURVE",
"240 638 OFFCURVE",
"224 607 CURVE",
"196 617 LINE",
"221 661 OFFCURVE",
"264 712 OFFCURVE",
"316 712 CURVE SMOOTH",
"358 712 OFFCURVE",
"373 681 OFFCURVE",
"386 656 CURVE"
);
}
);
userData = {
com.fontlab.hintData = {
hhints = (
{
position = 0;
width = 32;
},
{
position = 467;
width = 33;
},
{
position = 579;
width = 31;
},
{
position = 680;
width = 32;
}
);
vhints = (
{
position = 40;
width = 39;
},
{
position = 452;
width = 40;
}
);
};
};
width = 525;
}
);
unicode = 00F5;
},
{
glyphname = oe;
layers = (
{
layerId = master01;
paths = (
{
closed = 1;
nodes = (
"693 32 OFFCURVE",
"748 54 OFFCURVE",
"795 91 CURVE",
"803 81 OFFCURVE",
"806 75 OFFCURVE",
"813 68 CURVE",
"758 25 OFFCURVE",
"695 0 OFFCURVE",
"635 0 CURVE SMOOTH",
"531 0 OFFCURVE",
"455 76 OFFCURVE",
"441 173 CURVE",
"379 70 OFFCURVE",
"277 0 OFFCURVE",
"191 0 CURVE SMOOTH",
"95 0 OFFCURVE",
"36 76 OFFCURVE",
"36 176 CURVE SMOOTH",
"36 347 OFFCURVE",
"187 500 OFFCURVE",
"331 500 CURVE SMOOTH",
"407 500 OFFCURVE",
"467 432 OFFCURVE",
"481 342 CURVE",
"533 432 OFFCURVE",
"641 502 OFFCURVE",
"739 502 CURVE SMOOTH",
"817 502 OFFCURVE",
"881 441 OFFCURVE",
"891 365 CURVE",
"478 159 LINE",
"499 83 OFFCURVE",
"560 32 OFFCURVE",
"641 32 CURVE SMOOTH"
);
},
{
closed = 1;
nodes = (
"444.211 278.952 OFFCURVE",
"445.4 292.902 OFFCURVE",
"445.4 307.212 CURVE SMOOTH",
"445.4 383.497 OFFCURVE",
"411.625 470 OFFCURVE",
"319 470 CURVE SMOOTH",
"204 470 OFFCURVE",
"72 325 OFFCURVE",
"72 178 CURVE SMOOTH",
"72 94 OFFCURVE",
"118 29 OFFCURVE",
"199 29 CURVE SMOOTH",
"297 29 OFFCURVE",
"415 141 OFFCURVE",
"442 266 CURVE"
);
},
{
closed = 1;
nodes = (
"475 237 OFFCURVE",
"474 223 OFFCURVE",
"474 206 CURVE SMOOTH",
"474 190 LINE",
"852 379 LINE",
"832 436 OFFCURVE",
"787 470 OFFCURVE",
"734 470 CURVE SMOOTH",
"617 470 OFFCURVE",
"504 372 OFFCURVE",
"478 251 CURVE SMOOTH"
);
}
);
userData = {
com.fontlab.hintData = {
hhints = (
{
position = 0;
width = 32;
},
{
position = 470;
width = 30;
}
);
vhints = (
{
position = 36;
width = 36;
},
{
position = 445;
width = 29;
}
);
};
};
width = 901;
}
);
unicode = 0153;
},
{
glyphname = p;
layers = (
{
layerId = master01;
paths = (
{
closed = 1;
nodes = (
"444 494 OFFCURVE",
"476 422 OFFCURVE",
"476 342 CURVE SMOOTH",
"476 192 OFFCURVE",
"380 7 OFFCURVE",
"201 7 CURVE SMOOTH",
"149 7 OFFCURVE",
"94 26 OFFCURVE",
"58 42 CURVE",
"9 -192 LINE",
"-30 -199 LINE",
"116 488 LINE",
"155 497 LINE",
"137 412 LINE",
"198 458 OFFCURVE",
"273 496 OFFCURVE",
"361 496 CURVE"
);
},
{
closed = 1;
nodes = (
"359 41 OFFCURVE",
"441 192 OFFCURVE",
"441 338 CURVE SMOOTH",
"441 400 OFFCURVE",
"419 460 OFFCURVE",
"342 460 CURVE SMOOTH",
"230 460 OFFCURVE",
"152 392 OFFCURVE",
"127 364 CURVE",
"67 80 LINE",
"86 70 OFFCURVE",
"146 41 OFFCURVE",
"209 41 CURVE SMOOTH"
);
}
);
userData = {
com.fontlab.hintData = {
hhints = (
{
position = 7;
width = 34;
},
{
position = 460;
width = 36;
},
{
position = 477;
width = 20;
}
);
vhints = (
{
position = 441;
width = 35;
}
);
};
};
width = 508;
}
);
unicode = 0070;
},
{
glyphname = thorn;
layers = (
{
layerId = master01;
paths = (
{
closed = 1;
nodes = (
"453 488 OFFCURVE",
"486 419 OFFCURVE",
"486 340 CURVE SMOOTH",
"486 190 OFFCURVE",
"389 0 OFFCURVE",
"204 0 CURVE SMOOTH",
"151 0 OFFCURVE",
"93 19 OFFCURVE",
"57 34 CURVE",
"9 -191 LINE",
"-27 -183 LINE",
"158 688 LINE",
"198 697 LINE",
"130 381 LINE",
"185 440 OFFCURVE",
"273 488 OFFCURVE",
"353 488 CURVE SMOOTH"
);
},
{
closed = 1;
nodes = (
"346 35 OFFCURVE",
"448 171 OFFCURVE",
"448 329 CURVE SMOOTH",
"448 389 OFFCURVE",
"426 451 OFFCURVE",
"349 451 CURVE SMOOTH",
"231 451 OFFCURVE",
"125 360 OFFCURVE",
"109 282 CURVE SMOOTH",
"65 73 LINE",
"85 62 OFFCURVE",
"141 35 OFFCURVE",
"203 35 CURVE SMOOTH"
);
}
);
userData = {
com.fontlab.hintData = {
hhints = (
{
position = 0;
width = 35;
},
{
position = 451;
width = 37;
}
);
vhints = (
{
position = 448;
width = 38;
}
);
};
};
width = 518;
}
);
unicode = 00FE;
},
{
glyphname = q;
layers = (
{
layerId = master01;
paths = (
{
closed = 1;
nodes = (
"359 56 LINE",
"315 6 OFFCURVE",
"267 -9 OFFCURVE",
"198 -9 CURVE SMOOTH",
"98 -9 OFFCURVE",
"35 60 OFFCURVE",
"35 156 CURVE SMOOTH",
"35 332 OFFCURVE",
"191 496 OFFCURVE",
"380 496 CURVE SMOOTH",
"402 496 OFFCURVE",
"431 493 OFFCURVE",
"467 487 CURVE",
"472 508 LINE",
"507 508 LINE",
"335 -195 LINE",
"296 -202 LINE"
);
},
{
closed = 1;
nodes = (
"459 454 LINE",
"431 459 OFFCURVE",
"395 463 OFFCURVE",
"373 463 CURVE SMOOTH",
"225 463 OFFCURVE",
"68 327 OFFCURVE",
"68 160 CURVE SMOOTH",
"68 77 OFFCURVE",
"121 23 OFFCURVE",
"205 23 CURVE SMOOTH",
"295 23 OFFCURVE",
"364 72 OFFCURVE",
"386 159 CURVE SMOOTH"
);
}
);
userData = {
com.fontlab.hintData = {
hhints = (
{
position = -202;
width = 21;
},
{
position = -9;
width = 32;
},
{
position = 463;
width = 33;
},
{
position = 488;
width = 20;
}
);
vhints = (
{
position = 35;
width = 33;
}
);
};
};
width = 513;
}
);
unicode = 0071;
},
{
glyphname = r;
layers = (
{
layerId = master01;
paths = (
{
closed = 1;
nodes = (
"128 366 LINE",
"169 421 OFFCURVE",
"262 502 OFFCURVE",
"347 502 CURVE SMOOTH",
"384 502 OFFCURVE",
"410 480 OFFCURVE",
"410 449 CURVE SMOOTH",
"410 446 OFFCURVE",
"410 442 OFFCURVE",
"409 438 CURVE SMOOTH",
"401 404 LINE",
"363 397 LINE",
"368 419 LINE SMOOTH",
"369 426 OFFCURVE",
"371 433 OFFCURVE",
"371 439 CURVE SMOOTH",
"371 455 OFFCURVE",
"362 466 OFFCURVE",
"332 466 CURVE SMOOTH",
"254 466 OFFCURVE",
"126 357 OFFCURVE",
"104 252 CURVE SMOOTH",
"52 9 LINE",
"14 2 LINE",
"118 493 LINE",
"157 500 LINE"
);
}
);
userData = {
com.fontlab.hintData = {
hhints = (
{
position = 466;
width = 36;
}
);
vhints = (
{
position = 363;
width = 38;
},
{
position = 371;
width = 39;
}
);
};
};
width = 391;
}
);
unicode = 0072;
},
{
glyphname = racute;
layers = (
{
layerId = master01;
paths = (
{
closed = 1;
nodes = (
"385 730 LINE",
"416 698 LINE",
"242 593 LINE",
"222 617 LINE"
);
},
{
closed = 1;
nodes = (
"128 366 LINE",
"169 421 OFFCURVE",
"262 502 OFFCURVE",
"347 502 CURVE SMOOTH",
"384 502 OFFCURVE",
"410 480 OFFCURVE",
"410 449 CURVE SMOOTH",
"410 446 OFFCURVE",
"410 442 OFFCURVE",
"409 438 CURVE SMOOTH",
"401 404 LINE",
"363 397 LINE",
"368 419 LINE SMOOTH",
"369 426 OFFCURVE",
"371 433 OFFCURVE",
"371 439 CURVE SMOOTH",
"371 455 OFFCURVE",
"362 466 OFFCURVE",
"332 466 CURVE SMOOTH",
"254 466 OFFCURVE",
"126 357 OFFCURVE",
"104 252 CURVE SMOOTH",
"52 9 LINE",
"14 2 LINE",
"118 493 LINE",
"157 500 LINE"
);
}
);
userData = {
com.fontlab.hintData = {
hhints = (
{
position = 466;
width = 36;
}
);
vhints = (
{
position = 363;
width = 38;
},
{
position = 371;
width = 39;
}
);
};
};
width = 391;
}
);
unicode = 0155;
},
{
glyphname = rcaron;
layers = (
{
layerId = master01;
paths = (
{
closed = 1;
nodes = (
"458 687 LINE",
"292 575 LINE",
"196 688 LINE",
"226 717 LINE",
"305 625 LINE",
"443 718 LINE"
);
},
{
closed = 1;
nodes = (
"128 366 LINE",
"169 421 OFFCURVE",
"262 502 OFFCURVE",
"347 502 CURVE SMOOTH",
"384 502 OFFCURVE",
"410 480 OFFCURVE",
"410 449 CURVE SMOOTH",
"410 446 OFFCURVE",
"410 442 OFFCURVE",
"409 438 CURVE SMOOTH",
"401 404 LINE",
"363 397 LINE",
"368 419 LINE SMOOTH",
"369 426 OFFCURVE",
"371 433 OFFCURVE",
"371 439 CURVE SMOOTH",
"371 455 OFFCURVE",
"362 466 OFFCURVE",
"332 466 CURVE SMOOTH",
"254 466 OFFCURVE",
"126 357 OFFCURVE",
"104 252 CURVE SMOOTH",
"52 9 LINE",
"14 2 LINE",
"118 493 LINE",
"157 500 LINE"
);
}
);
userData = {
com.fontlab.hintData = {
hhints = (
{
position = 466;
width = 36;
}
);
vhints = (
{
position = 363;
width = 38;
},
{
position = 371;
width = 39;
}
);
};
};
width = 392;
}
);
unicode = 0159;
},
{
glyphname = s;
layers = (
{
layerId = master01;
paths = (
{
closed = 1;
nodes = (
"400 386 LINE",
"402 395 OFFCURVE",
"402 402 OFFCURVE",
"402 408 CURVE SMOOTH",
"402 459 OFFCURVE",
"347 475 OFFCURVE",
"300 475 CURVE SMOOTH",
"190 475 OFFCURVE",
"142 424 OFFCURVE",
"142 365 CURVE SMOOTH",
"142 327 OFFCURVE",
"179 304 OFFCURVE",
"249 284 CURVE SMOOTH",
"337 258 OFFCURVE",
"383 225 OFFCURVE",
"383 168 CURVE SMOOTH",
"383 35 OFFCURVE",
"234 0 OFFCURVE",
"179 0 CURVE SMOOTH",
"99 0 OFFCURVE",
"33 35 OFFCURVE",
"24 107 CURVE",
"60 112 LINE",
"71 59 OFFCURVE",
"126 31 OFFCURVE",
"185 31 CURVE SMOOTH",
"262 31 OFFCURVE",
"344 84 OFFCURVE",
"344 160 CURVE SMOOTH",
"344 217 OFFCURVE",
"280 233 OFFCURVE",
"218 254 CURVE SMOOTH",
"161 274 OFFCURVE",
"105 297 OFFCURVE",
"105 360 CURVE SMOOTH",
"105 481 OFFCURVE",
"237 505 OFFCURVE",
"307 505 CURVE SMOOTH",
"357 505 OFFCURVE",
"436 490 OFFCURVE",
"436 424 CURVE SMOOTH",
"436 417 OFFCURVE",
"436 410 OFFCURVE",
"432 394 CURVE"
);
}
);
userData = {
com.fontlab.hintData = {
hhints = (
{
position = 0;
width = 31;
},
{
position = 475;
width = 30;
}
);
vhints = (
{
position = 24;
width = 36;
},
{
position = 105;
width = 37;
},
{
position = 344;
width = 39;
},
{
position = 402;
width = 34;
}
);
};
};
width = 450;
}
);
unicode = 0073;
},
{
glyphname = sacute;
layers = (
{
layerId = master01;
paths = (
{
closed = 1;
nodes = (
"409 730 LINE",
"440 698 LINE",
"266 593 LINE",
"245 617 LINE"
);
},
{
closed = 1;
nodes = (
"400 386 LINE",
"402 395 OFFCURVE",
"402 402 OFFCURVE",
"402 408 CURVE SMOOTH",
"402 459 OFFCURVE",
"347 475 OFFCURVE",
"300 475 CURVE SMOOTH",
"190 475 OFFCURVE",
"142 424 OFFCURVE",
"142 365 CURVE SMOOTH",
"142 327 OFFCURVE",
"179 304 OFFCURVE",
"249 284 CURVE SMOOTH",
"337 258 OFFCURVE",
"383 225 OFFCURVE",
"383 168 CURVE SMOOTH",
"383 35 OFFCURVE",
"234 0 OFFCURVE",
"179 0 CURVE SMOOTH",
"99 0 OFFCURVE",
"33 35 OFFCURVE",
"24 107 CURVE",
"60 112 LINE",
"71 59 OFFCURVE",
"126 31 OFFCURVE",
"185 31 CURVE SMOOTH",
"262 31 OFFCURVE",
"344 84 OFFCURVE",
"344 160 CURVE SMOOTH",
"344 217 OFFCURVE",
"280 233 OFFCURVE",
"218 254 CURVE SMOOTH",
"161 274 OFFCURVE",
"105 297 OFFCURVE",
"105 360 CURVE SMOOTH",
"105 481 OFFCURVE",
"237 505 OFFCURVE",
"307 505 CURVE SMOOTH",
"357 505 OFFCURVE",
"436 490 OFFCURVE",
"436 424 CURVE SMOOTH",
"436 417 OFFCURVE",
"436 410 OFFCURVE",
"432 394 CURVE"
);
}
);
userData = {
com.fontlab.hintData = {
hhints = (
{
position = 0;
width = 31;
},
{
position = 475;
width = 30;
}
);
vhints = (
{
position = 24;
width = 36;
},
{
position = 105;
width = 37;
},
{
position = 344;
width = 39;
},
{
position = 402;
width = 34;
}
);
};
};
width = 450;
}
);
unicode = 015B;
},
{
glyphname = scaron;
layers = (
{
layerId = master01;
paths = (
{
closed = 1;
nodes = (
"474 687 LINE",
"307 575 LINE",
"211 688 LINE",
"241 717 LINE",
"320 625 LINE",
"458 718 LINE"
);
},
{
closed = 1;
nodes = (
"400 386 LINE",
"402 395 OFFCURVE",
"402 402 OFFCURVE",
"402 408 CURVE SMOOTH",
"402 459 OFFCURVE",
"347 475 OFFCURVE",
"300 475 CURVE SMOOTH",
"190 475 OFFCURVE",
"142 424 OFFCURVE",
"142 365 CURVE SMOOTH",
"142 327 OFFCURVE",
"179 304 OFFCURVE",
"249 284 CURVE SMOOTH",
"337 258 OFFCURVE",
"383 225 OFFCURVE",
"383 168 CURVE SMOOTH",
"383 35 OFFCURVE",
"234 0 OFFCURVE",
"179 0 CURVE SMOOTH",
"99 0 OFFCURVE",
"33 35 OFFCURVE",
"24 107 CURVE",
"60 112 LINE",
"71 59 OFFCURVE",
"126 31 OFFCURVE",
"185 31 CURVE SMOOTH",
"262 31 OFFCURVE",
"344 84 OFFCURVE",
"344 160 CURVE SMOOTH",
"344 269 OFFCURVE",
"105 230 OFFCURVE",
"105 360 CURVE SMOOTH",
"105 481 OFFCURVE",
"237 505 OFFCURVE",
"307 505 CURVE SMOOTH",
"357 505 OFFCURVE",
"436 490 OFFCURVE",
"436 424 CURVE SMOOTH",
"436 417 OFFCURVE",
"436 410 OFFCURVE",
"432 394 CURVE"
);
}
);
userData = {
com.fontlab.hintData = {
hhints = (
{
position = 0;
width = 31;
},
{
position = 475;
width = 30;
}
);
vhints = (
{
position = 24;
width = 36;
},
{
position = 105;
width = 37;
},
{
position = 344;
width = 39;
},
{
position = 402;
width = 34;
}
);
};
};
width = 450;
}
);
unicode = 0161;
},
{
glyphname = scedilla;
layers = (
{
layerId = master01;
paths = (
{
closed = 1;
nodes = (
"400 386 LINE",
"402 395 OFFCURVE",
"402 402 OFFCURVE",
"402 408 CURVE SMOOTH",
"402 459 OFFCURVE",
"347 475 OFFCURVE",
"300 475 CURVE SMOOTH",
"190 475 OFFCURVE",
"142 424 OFFCURVE",
"142 365 CURVE SMOOTH",
"142 327 OFFCURVE",
"179 304 OFFCURVE",
"249 284 CURVE SMOOTH",
"337 258 OFFCURVE",
"383 225 OFFCURVE",
"383 168 CURVE SMOOTH",
"383 35 OFFCURVE",
"234 0 OFFCURVE",
"179 0 CURVE SMOOTH",
"165 0 LINE",
"155 -41 LINE",
"169 -41 LINE SMOOTH",
"215 -41 OFFCURVE",
"245 -65 OFFCURVE",
"245 -105 CURVE SMOOTH",
"245 -160 OFFCURVE",
"194 -209 OFFCURVE",
"141 -209 CURVE SMOOTH",
"117 -209 OFFCURVE",
"97 -200 OFFCURVE",
"84 -184 CURVE",
"105 -168 LINE",
"114 -180 OFFCURVE",
"132 -186 OFFCURVE",
"146 -186 CURVE SMOOTH",
"184 -186 OFFCURVE",
"220 -152 OFFCURVE",
"220 -112 CURVE SMOOTH",
"220 -84 OFFCURVE",
"201 -64 OFFCURVE",
"172 -64 CURVE SMOOTH",
"166 -64 OFFCURVE",
"149 -66 OFFCURVE",
"139 -72 CURVE",
"122 -52 LINE",
"152 1 LINE",
"85 8 OFFCURVE",
"32 43 OFFCURVE",
"24 107 CURVE",
"60 112 LINE",
"71 59 OFFCURVE",
"126 31 OFFCURVE",
"185 31 CURVE SMOOTH",
"262 31 OFFCURVE",
"344 84 OFFCURVE",
"344 160 CURVE SMOOTH",
"344 217 OFFCURVE",
"280 233 OFFCURVE",
"218 254 CURVE SMOOTH",
"161 274 OFFCURVE",
"105 297 OFFCURVE",
"105 360 CURVE SMOOTH",
"105 481 OFFCURVE",
"237 505 OFFCURVE",
"307 505 CURVE SMOOTH",
"357 505 OFFCURVE",
"436 490 OFFCURVE",
"436 424 CURVE SMOOTH",
"436 417 OFFCURVE",
"436 410 OFFCURVE",
"432 394 CURVE"
);
}
);
userData = {
com.fontlab.hintData = {
hhints = (
{
position = -209;
width = 23;
},
{
position = -64;
width = 23;
},
{
position = 0;
width = 31;
},
{
position = 475;
width = 30;
}
);
vhints = (
{
position = 24;
width = 36;
},
{
position = 105;
width = 37;
},
{
position = 220;
width = 25;
},
{
position = 344;
width = 39;
},
{
position = 402;
width = 34;
}
);
};
};
width = 450;
}
);
unicode = 015F;
},
{
glyphname = scircumflex;
layers = (
{
layerId = master01;
paths = (
{
closed = 1;
nodes = (
"400 386 LINE",
"402 395 OFFCURVE",
"402 402 OFFCURVE",
"402 408 CURVE SMOOTH",
"402 459 OFFCURVE",
"347 475 OFFCURVE",
"300 475 CURVE SMOOTH",
"190 475 OFFCURVE",
"142 424 OFFCURVE",
"142 365 CURVE SMOOTH",
"142 327 OFFCURVE",
"179 304 OFFCURVE",
"249 284 CURVE SMOOTH",
"337 258 OFFCURVE",
"383 225 OFFCURVE",
"383 168 CURVE SMOOTH",
"383 35 OFFCURVE",
"234 0 OFFCURVE",
"179 0 CURVE SMOOTH",
"99 0 OFFCURVE",
"33 35 OFFCURVE",
"24 107 CURVE",
"60 112 LINE",
"71 59 OFFCURVE",
"126 31 OFFCURVE",
"185 31 CURVE SMOOTH",
"262 31 OFFCURVE",
"344 84 OFFCURVE",
"344 160 CURVE SMOOTH",
"344 217 OFFCURVE",
"280 233 OFFCURVE",
"218 254 CURVE SMOOTH",
"161 274 OFFCURVE",
"105 297 OFFCURVE",
"105 360 CURVE SMOOTH",
"105 481 OFFCURVE",
"237 505 OFFCURVE",
"307 505 CURVE SMOOTH",
"357 505 OFFCURVE",
"436 490 OFFCURVE",
"436 424 CURVE SMOOTH",
"436 417 OFFCURVE",
"436 410 OFFCURVE",
"432 394 CURVE"
);
},
{
closed = 1;
nodes = (
"184 603 LINE",
"351 718 LINE",
"447 603 LINE",
"418 577 LINE",
"337 667 LINE",
"200 575 LINE"
);
}
);
userData = {
com.fontlab.hintData = {
hhints = (
{
position = 0;
width = 31;
},
{
position = 475;
width = 30;
}
);
vhints = (
{
position = 24;
width = 36;
},
{
position = 105;
width = 37;
},
{
position = 344;
width = 39;
},
{
position = 402;
width = 34;
}
);
};
};
width = 450;
}
);
unicode = 015D;
},
{
glyphname = germandbls;
layers = (
{
layerId = master01;
paths = (
{
closed = 1;
nodes = (
"436 342 OFFCURVE",
"477 283 OFFCURVE",
"477 214 CURVE SMOOTH",
"477 91 OFFCURVE",
"357 -25 OFFCURVE",
"235 -25 CURVE SMOOTH",
"205 -25 OFFCURVE",
"179 -19 OFFCURVE",
"139 4 CURVE",
"161 33 LINE",
"193 15 OFFCURVE",
"218 8 OFFCURVE",
"242 8 CURVE SMOOTH",
"338 8 OFFCURVE",
"440 101 OFFCURVE",
"440 204 CURVE SMOOTH",
"440 272 OFFCURVE",
"396 333 OFFCURVE",
"314 333 CURVE SMOOTH",
"293 333 OFFCURVE",
"277 331 OFFCURVE",
"248 325 CURVE",
"266 359 LINE",
"378 379 OFFCURVE",
"420 453 OFFCURVE",
"420 512 CURVE SMOOTH",
"420 569 OFFCURVE",
"380 612 OFFCURVE",
"319 612 CURVE SMOOTH",
"249 612 OFFCURVE",
"181 555 OFFCURVE",
"166 486 CURVE SMOOTH",
"67 23 LINE",
"24 -6 LINE",
"129 486 LINE SMOOTH",
"148 574 OFFCURVE",
"238 646 OFFCURVE",
"326 646 CURVE SMOOTH",
"401 646 OFFCURVE",
"454 592 OFFCURVE",
"454 520 CURVE SMOOTH",
"454 472 OFFCURVE",
"424 402 OFFCURVE",
"363 362 CURVE"
);
}
);
userData = {
com.fontlab.hintData = {
hhints = (
{
position = -25;
width = 33;
},
{
position = 325;
width = 34;
},
{
position = 612;
width = 34;
}
);
vhints = (
{
position = 420;
width = 34;
},
{
position = 440;
width = 37;
}
);
};
};
width = 515;
}
);
unicode = 00DF;
},
{
glyphname = t;
layers = (
{
layerId = master01;
paths = (
{
closed = 1;
nodes = (
"391 465 LINE",
"248 465 LINE",
"151 9 LINE",
"111 2 LINE",
"209 465 LINE",
"65 465 LINE",
"73 502 LINE",
"217 502 LINE",
"253 669 LINE",
"293 676 LINE",
"256 502 LINE",
"399 502 LINE"
);
}
);
userData = {
com.fontlab.hintData = {
hhints = (
{
position = 465;
width = 37;
}
);
};
};
width = 363;
}
);
unicode = 0074;
},
{
glyphname = tcaron;
layers = (
{
layerId = master01;
paths = (
{
closed = 1;
nodes = (
"498 713 LINE",
"379 558 LINE",
"350 577 LINE",
"428 677 LINE",
"395 699 LINE",
"448 744 LINE"
);
},
{
closed = 1;
nodes = (
"391 465 LINE",
"247 465 LINE",
"150 9 LINE",
"111 2 LINE",
"209 465 LINE",
"65 465 LINE",
"73 502 LINE",
"217 502 LINE",
"253 669 LINE",
"292 676 LINE",
"255 502 LINE",
"399 502 LINE"
);
}
);
userData = {
com.fontlab.hintData = {
hhints = (
{
position = 465;
width = 37;
}
);
};
};
width = 419;
}
);
unicode = 0165;
},
{
glyphname = u;
layers = (
{
layerId = master01;
paths = (
{
closed = 1;
nodes = (
"98 231 OFFCURVE",
"84 171 OFFCURVE",
"84 123 CURVE SMOOTH",
"84 66 OFFCURVE",
"104 26 OFFCURVE",
"168 26 CURVE SMOOTH",
"244 26 OFFCURVE",
"336 97 OFFCURVE",
"365 123 CURVE SMOOTH",
"375 132 OFFCURVE",
"385 149 OFFCURVE",
"391 175 CURVE SMOOTH",
"460 495 LINE",
"500 502 LINE",
"395 9 LINE",
"350 2 LINE",
"369 90 LINE",
"321 47 OFFCURVE",
"235 -6 OFFCURVE",
"160 -6 CURVE SMOOTH",
"74 -6 OFFCURVE",
"49 45 OFFCURVE",
"49 116 CURVE SMOOTH",
"49 168 OFFCURVE",
"62 230 OFFCURVE",
"75 291 CURVE SMOOTH",
"84 335 OFFCURVE",
"108 425 OFFCURVE",
"134 495 CURVE",
"171 502 LINE",
"158 465 OFFCURVE",
"127 368 OFFCURVE",
"110 291 CURVE"
);
}
);
userData = {
com.fontlab.hintData = {
hhints = (
{
position = -6;
width = 32;
},
{
position = 482;
width = 20;
}
);
vhints = (
{
position = 49;
width = 35;
},
{
position = 134;
width = 37;
}
);
};
};
width = 506;
}
);
unicode = 0075;
},
{
glyphname = uacute;
layers = (
{
layerId = master01;
paths = (
{
closed = 1;
nodes = (
"438 730 LINE",
"468 698 LINE",
"294 593 LINE",
"274 617 LINE"
);
},
{
closed = 1;
nodes = (
"98 231 OFFCURVE",
"84 171 OFFCURVE",
"84 123 CURVE SMOOTH",
"84 66 OFFCURVE",
"104 26 OFFCURVE",
"168 26 CURVE SMOOTH",
"244 26 OFFCURVE",
"336 97 OFFCURVE",
"365 123 CURVE SMOOTH",
"375 132 OFFCURVE",
"385 149 OFFCURVE",
"391 175 CURVE SMOOTH",
"460 495 LINE",
"500 502 LINE",
"395 9 LINE",
"350 2 LINE",
"369 90 LINE",
"321 47 OFFCURVE",
"235 -6 OFFCURVE",
"160 -6 CURVE SMOOTH",
"74 -6 OFFCURVE",
"49 45 OFFCURVE",
"49 116 CURVE SMOOTH",
"49 168 OFFCURVE",
"62 230 OFFCURVE",
"75 291 CURVE SMOOTH",
"84 335 OFFCURVE",
"108 425 OFFCURVE",
"134 495 CURVE",
"171 502 LINE",
"158 465 OFFCURVE",
"127 368 OFFCURVE",
"110 291 CURVE"
);
}
);
userData = {
com.fontlab.hintData = {
hhints = (
{
position = -6;
width = 32;
},
{
position = 482;
width = 20;
}
);
vhints = (
{
position = 49;
width = 35;
},
{
position = 134;
width = 37;
}
);
};
};
width = 506;
}
);
unicode = 00FA;
},
{
glyphname = ubreve;
layers = (
{
layerId = master01;
paths = (
{
closed = 1;
nodes = (
"98 231 OFFCURVE",
"84 171 OFFCURVE",
"84 123 CURVE SMOOTH",
"84 66 OFFCURVE",
"104 26 OFFCURVE",
"168 26 CURVE SMOOTH",
"244 26 OFFCURVE",
"336 97 OFFCURVE",
"365 123 CURVE SMOOTH",
"375 132 OFFCURVE",
"385 149 OFFCURVE",
"391 175 CURVE SMOOTH",
"460 495 LINE",
"500 502 LINE",
"395 9 LINE",
"350 2 LINE",
"369 90 LINE",
"321 47 OFFCURVE",
"235 -6 OFFCURVE",
"160 -6 CURVE SMOOTH",
"74 -6 OFFCURVE",
"49 45 OFFCURVE",
"49 116 CURVE SMOOTH",
"49 168 OFFCURVE",
"62 230 OFFCURVE",
"75 291 CURVE SMOOTH",
"84 335 OFFCURVE",
"108 425 OFFCURVE",
"134 495 CURVE",
"171 502 LINE",
"158 465 OFFCURVE",
"127 368 OFFCURVE",
"110 291 CURVE SMOOTH"
);
},
{
closed = 1;
nodes = (
"381 609 OFFCURVE",
"434 634 OFFCURVE",
"465 683 CURVE",
"479 666 LINE",
"448 617 OFFCURVE",
"383 582 OFFCURVE",
"324 582 CURVE SMOOTH",
"258 582 OFFCURVE",
"211 614 OFFCURVE",
"196 662 CURVE",
"216 679 LINE",
"241 621 OFFCURVE",
"289 609 OFFCURVE",
"328 609 CURVE SMOOTH"
);
}
);
userData = {
com.fontlab.hintData = {
hhints = (
{
position = -6;
width = 32;
},
{
position = 482;
width = 20;
},
{
position = 582;
width = 27;
},
{
position = 663;
width = 20;
}
);
vhints = (
{
position = 49;
width = 35;
},
{
position = 134;
width = 37;
},
{
position = 196;
width = 20;
}
);
};
};
width = 506;
}
);
unicode = 016D;
},
{
glyphname = ucircumflex;
layers = (
{
layerId = master01;
paths = (
{
closed = 1;
nodes = (
"216 603 LINE",
"382 718 LINE",
"478 603 LINE",
"449 577 LINE",
"368 667 LINE",
"232 575 LINE"
);
},
{
closed = 1;
nodes = (
"98 231 OFFCURVE",
"84 171 OFFCURVE",
"84 123 CURVE SMOOTH",
"84 66 OFFCURVE",
"104 26 OFFCURVE",
"168 26 CURVE SMOOTH",
"244 26 OFFCURVE",
"336 97 OFFCURVE",
"365 123 CURVE SMOOTH",
"375 132 OFFCURVE",
"385 149 OFFCURVE",
"391 175 CURVE SMOOTH",
"460 495 LINE",
"500 502 LINE",
"395 9 LINE",
"350 2 LINE",
"369 90 LINE",
"321 47 OFFCURVE",
"235 -6 OFFCURVE",
"160 -6 CURVE SMOOTH",
"74 -6 OFFCURVE",
"49 45 OFFCURVE",
"49 116 CURVE SMOOTH",
"49 168 OFFCURVE",
"62 230 OFFCURVE",
"75 291 CURVE SMOOTH",
"84 335 OFFCURVE",
"108 425 OFFCURVE",
"134 495 CURVE",
"171 502 LINE",
"158 465 OFFCURVE",
"127 368 OFFCURVE",
"110 291 CURVE"
);
}
);
userData = {
com.fontlab.hintData = {
hhints = (
{
position = -6;
width = 32;
},
{
position = 482;
width = 20;
}
);
vhints = (
{
position = 49;
width = 35;
},
{
position = 134;
width = 37;
}
);
};
};
width = 506;
}
);
unicode = 00FB;
},
{
glyphname = udieresis;
layers = (
{
layerId = master01;
paths = (
{
closed = 1;
nodes = (
"287 604 LINE",
"230 596 LINE",
"251 660 LINE",
"308 669 LINE"
);
},
{
closed = 1;
nodes = (
"454 604 LINE",
"398 596 LINE",
"418 660 LINE",
"476 669 LINE"
);
},
{
closed = 1;
nodes = (
"98 231 OFFCURVE",
"84 171 OFFCURVE",
"84 123 CURVE SMOOTH",
"84 66 OFFCURVE",
"104 26 OFFCURVE",
"168 26 CURVE SMOOTH",
"244 26 OFFCURVE",
"336 97 OFFCURVE",
"365 123 CURVE SMOOTH",
"375 132 OFFCURVE",
"385 149 OFFCURVE",
"391 175 CURVE SMOOTH",
"460 495 LINE",
"500 502 LINE",
"395 9 LINE",
"350 2 LINE",
"369 90 LINE",
"321 47 OFFCURVE",
"235 -6 OFFCURVE",
"160 -6 CURVE SMOOTH",
"74 -6 OFFCURVE",
"49 45 OFFCURVE",
"49 116 CURVE SMOOTH",
"49 168 OFFCURVE",
"62 230 OFFCURVE",
"75 291 CURVE SMOOTH",
"84 335 OFFCURVE",
"108 425 OFFCURVE",
"134 495 CURVE",
"171 502 LINE",
"158 465 OFFCURVE",
"127 368 OFFCURVE",
"110 291 CURVE"
);
}
);
userData = {
com.fontlab.hintData = {
hhints = (
{
position = -6;
width = 32;
},
{
position = 482;
width = 20;
}
);
vhints = (
{
position = 49;
width = 35;
},
{
position = 134;
width = 37;
}
);
};
};
width = 506;
}
);
unicode = 00FC;
},
{
glyphname = ugrave;
layers = (
{
layerId = master01;
paths = (
{
closed = 1;
nodes = (
"378 582 LINE",
"277 712 LINE",
"324 737 LINE",
"413 602 LINE"
);
},
{
closed = 1;
nodes = (
"98 231 OFFCURVE",
"84 171 OFFCURVE",
"84 123 CURVE SMOOTH",
"84 66 OFFCURVE",
"104 26 OFFCURVE",
"168 26 CURVE SMOOTH",
"244 26 OFFCURVE",
"336 97 OFFCURVE",
"365 123 CURVE SMOOTH",
"375 132 OFFCURVE",
"385 149 OFFCURVE",
"391 175 CURVE SMOOTH",
"460 495 LINE",
"500 502 LINE",
"395 9 LINE",
"350 2 LINE",
"369 90 LINE",
"321 47 OFFCURVE",
"235 -6 OFFCURVE",
"160 -6 CURVE SMOOTH",
"74 -6 OFFCURVE",
"49 45 OFFCURVE",
"49 116 CURVE SMOOTH",
"49 168 OFFCURVE",
"62 230 OFFCURVE",
"75 291 CURVE SMOOTH",
"84 335 OFFCURVE",
"108 425 OFFCURVE",
"134 495 CURVE",
"171 502 LINE",
"158 465 OFFCURVE",
"127 368 OFFCURVE",
"110 291 CURVE"
);
}
);
userData = {
com.fontlab.hintData = {
hhints = (
{
position = -6;
width = 32;
},
{
position = 482;
width = 20;
}
);
vhints = (
{
position = 49;
width = 35;
},
{
position = 134;
width = 37;
}
);
};
};
width = 506;
}
);
unicode = 00F9;
},
{
glyphname = uhungarumlaut;
layers = (
{
layerId = master01;
paths = (
{
closed = 1;
nodes = (
"360 730 LINE",
"391 698 LINE",
"217 593 LINE",
"197 617 LINE"
);
},
{
closed = 1;
nodes = (
"527 730 LINE",
"558 698 LINE",
"384 593 LINE",
"363 617 LINE"
);
},
{
closed = 1;
nodes = (
"98 231 OFFCURVE",
"84 171 OFFCURVE",
"84 123 CURVE SMOOTH",
"84 66 OFFCURVE",
"104 26 OFFCURVE",
"168 26 CURVE SMOOTH",
"244 26 OFFCURVE",
"336 97 OFFCURVE",
"365 123 CURVE SMOOTH",
"375 132 OFFCURVE",
"385 149 OFFCURVE",
"391 175 CURVE SMOOTH",
"460 495 LINE",
"500 502 LINE",
"395 9 LINE",
"350 2 LINE",
"369 90 LINE",
"321 47 OFFCURVE",
"235 -6 OFFCURVE",
"160 -6 CURVE SMOOTH",
"74 -6 OFFCURVE",
"49 45 OFFCURVE",
"49 116 CURVE SMOOTH",
"49 168 OFFCURVE",
"62 230 OFFCURVE",
"75 291 CURVE SMOOTH",
"84 335 OFFCURVE",
"108 425 OFFCURVE",
"134 495 CURVE",
"171 502 LINE",
"158 465 OFFCURVE",
"127 368 OFFCURVE",
"110 291 CURVE"
);
}
);
userData = {
com.fontlab.hintData = {
hhints = (
{
position = -6;
width = 32;
},
{
position = 482;
width = 20;
}
);
vhints = (
{
position = 49;
width = 35;
},
{
position = 134;
width = 37;
}
);
};
};
width = 528;
}
);
unicode = 0171;
},
{
glyphname = uni0163;
layers = (
{
layerId = master01;
paths = (
{
closed = 1;
nodes = (
"391 465 LINE",
"248 465 LINE",
"151 9 LINE",
"111 2 LINE",
"209 465 LINE",
"65 465 LINE",
"73 502 LINE",
"217 502 LINE",
"253 669 LINE",
"293 676 LINE",
"256 502 LINE",
"399 502 LINE"
);
},
{
closed = 1;
nodes = (
"175 -74 LINE",
"56 -229 LINE",
"28 -210 LINE",
"105 -110 LINE",
"72 -89 LINE",
"124 -44 LINE"
);
}
);
userData = {
com.fontlab.hintData = {
hhints = (
{
position = 465;
width = 37;
}
);
};
};
width = 363;
}
);
unicode = 0163;
},
{
glyphname = uring;
layers = (
{
layerId = master01;
paths = (
{
closed = 1;
nodes = (
"98 231 OFFCURVE",
"84 171 OFFCURVE",
"84 123 CURVE SMOOTH",
"84 66 OFFCURVE",
"104 26 OFFCURVE",
"168 26 CURVE SMOOTH",
"244 26 OFFCURVE",
"336 97 OFFCURVE",
"365 123 CURVE SMOOTH",
"375 132 OFFCURVE",
"385 149 OFFCURVE",
"391 175 CURVE SMOOTH",
"460 495 LINE",
"500 502 LINE",
"395 9 LINE",
"350 2 LINE",
"369 90 LINE",
"321 47 OFFCURVE",
"235 -6 OFFCURVE",
"160 -6 CURVE SMOOTH",
"74 -6 OFFCURVE",
"49 45 OFFCURVE",
"49 116 CURVE SMOOTH",
"49 168 OFFCURVE",
"62 230 OFFCURVE",
"75 291 CURVE SMOOTH",
"84 335 OFFCURVE",
"108 425 OFFCURVE",
"134 495 CURVE",
"171 502 LINE",
"158 465 OFFCURVE",
"127 368 OFFCURVE",
"110 291 CURVE"
);
},
{
closed = 1;
nodes = (
"286 587 OFFCURVE",
"252 620 OFFCURVE",
"252 663 CURVE SMOOTH",
"252 730 OFFCURVE",
"328 792 OFFCURVE",
"405 792 CURVE SMOOTH",
"463 792 OFFCURVE",
"494 755 OFFCURVE",
"494 714 CURVE SMOOTH",
"494 634 OFFCURVE",
"401 587 OFFCURVE",
"341 587 CURVE SMOOTH"
);
},
{
closed = 1;
nodes = (
"355 767 OFFCURVE",
"278 728 OFFCURVE",
"278 668 CURVE SMOOTH",
"278 634 OFFCURVE",
"304 611 OFFCURVE",
"348 611 CURVE SMOOTH",
"401 611 OFFCURVE",
"467 656 OFFCURVE",
"467 708 CURVE SMOOTH",
"467 742 OFFCURVE",
"439 767 OFFCURVE",
"397 767 CURVE SMOOTH"
);
}
);
userData = {
com.fontlab.hintData = {
hhints = (
{
position = -6;
width = 32;
},
{
position = 482;
width = 20;
},
{
position = 587;
width = 24;
},
{
position = 767;
width = 25;
}
);
vhints = (
{
position = 49;
width = 35;
},
{
position = 134;
width = 37;
},
{
position = 252;
width = 26;
},
{
position = 467;
width = 27;
}
);
};
};
width = 505;
}
);
unicode = 016F;
},
{
glyphname = v;
layers = (
{
layerId = master01;
paths = (
{
closed = 1;
nodes = (
"196 11 LINE",
"147 2 LINE",
"60 483 LINE",
"100 497 LINE",
"176 41 LINE",
"448 498 LINE",
"479 483 LINE"
);
}
);
userData = {
com.fontlab.hintData = {
hhints = (
{
position = 477;
width = 20;
}
);
};
};
width = 437;
}
);
unicode = 0076;
},
{
glyphname = w;
layers = (
{
layerId = master01;
paths = (
{
closed = 1;
nodes = (
"640 485 LINE",
"682 494 LINE",
"428 11 LINE",
"381 2 LINE",
"370 430 LINE",
"134 11 LINE",
"85 2 LINE",
"90 486 LINE",
"128 495 LINE",
"121 43 LINE",
"362 485 LINE",
"406 494 LINE",
"413 40 LINE"
);
}
);
userData = {
com.fontlab.hintData = {
vhints = (
{
position = 85;
width = 36;
},
{
position = 90;
width = 38;
},
{
position = 370;
width = 36;
},
{
position = 381;
width = 32;
}
);
};
};
width = 643;
}
);
unicode = 0077;
},
{
glyphname = x;
layers = (
{
layerId = master01;
paths = (
{
closed = 1;
nodes = (
"-12 6 LINE",
"-33 33 LINE",
"237 260 LINE",
"101 474 LINE",
"136 497 LINE",
"267 282 LINE",
"519 497 LINE",
"541 471 LINE",
"288 257 LINE",
"430 28 LINE",
"398 5 LINE",
"257 236 LINE"
);
}
);
userData = {
com.fontlab.hintData = {
hhints = (
{
position = 477;
width = 20;
}
);
};
};
width = 500;
}
);
unicode = 0078;
},
{
glyphname = y;
layers = (
{
layerId = master01;
paths = (
{
closed = 1;
nodes = (
"523 480 LINE",
"62 -202 LINE",
"30 -185 LINE",
"193 53 LINE",
"70 479 LINE",
"109 496 LINE",
"221 98 LINE",
"492 497 LINE"
);
}
);
userData = {
com.fontlab.hintData = {
hhints = (
{
position = -202;
width = 21;
},
{
position = 477;
width = 20;
}
);
};
};
width = 490;
}
);
unicode = 0079;
},
{
glyphname = yacute;
layers = (
{
layerId = master01;
paths = (
{
closed = 1;
nodes = (
"413 730 LINE",
"444 698 LINE",
"270 593 LINE",
"249 617 LINE"
);
},
{
closed = 1;
nodes = (
"522 479 LINE",
"61 -203 LINE",
"30 -186 LINE",
"193 52 LINE",
"70 478 LINE",
"109 495 LINE",
"221 97 LINE",
"492 496 LINE"
);
}
);
userData = {
com.fontlab.hintData = {
hhints = (
{
position = -203;
width = 21;
}
);
};
};
width = 490;
}
);
unicode = 00FD;
},
{
glyphname = ydieresis;
layers = (
{
layerId = master01;
paths = (
{
closed = 1;
nodes = (
"270 604 LINE",
"214 596 LINE",
"234 660 LINE",
"291 669 LINE"
);
},
{
closed = 1;
nodes = (
"437 604 LINE",
"381 596 LINE",
"401 660 LINE",
"458 669 LINE"
);
},
{
closed = 1;
nodes = (
"523 480 LINE",
"62 -202 LINE",
"30 -185 LINE",
"193 53 LINE",
"70 479 LINE",
"109 496 LINE",
"221 98 LINE",
"492 497 LINE"
);
}
);
userData = {
com.fontlab.hintData = {
hhints = (
{
position = -202;
width = 21;
},
{
position = 477;
width = 20;
}
);
};
};
width = 490;
}
);
unicode = 00FF;
},
{
glyphname = z;
layers = (
{
layerId = master01;
paths = (
{
closed = 1;
nodes = (
"-4 0 LINE",
"-15 35 LINE",
"418 465 LINE",
"100 465 LINE",
"116 502 LINE",
"453 502 LINE",
"464 468 LINE",
"30 37 LINE",
"363 37 LINE",
"349 0 LINE"
);
}
);
userData = {
com.fontlab.hintData = {
hhints = (
{
position = 0;
width = 37;
},
{
position = 465;
width = 37;
}
);
};
};
width = 443;
}
);
unicode = 007A;
},
{
glyphname = zacute;
layers = (
{
layerId = master01;
paths = (
{
closed = 1;
nodes = (
"-4 0 LINE",
"-15 35 LINE",
"418 465 LINE",
"100 465 LINE",
"116 502 LINE",
"453 502 LINE",
"464 468 LINE",
"30 37 LINE",
"363 37 LINE",
"349 0 LINE"
);
},
{
closed = 1;
nodes = (
"391 730 LINE",
"422 698 LINE",
"247 593 LINE",
"227 617 LINE"
);
}
);
userData = {
com.fontlab.hintData = {
hhints = (
{
position = 0;
width = 37;
},
{
position = 465;
width = 37;
}
);
};
};
width = 443;
}
);
unicode = 017A;
},
{
glyphname = zcaron;
layers = (
{
layerId = master01;
paths = (
{
closed = 1;
nodes = (
"468 687 LINE",
"302 575 LINE",
"207 688 LINE",
"237 717 LINE",
"316 625 LINE",
"452 718 LINE"
);
},
{
closed = 1;
nodes = (
"-4 0 LINE",
"-15 35 LINE",
"418 465 LINE",
"100 465 LINE",
"116 502 LINE",
"453 502 LINE",
"464 468 LINE",
"30 37 LINE",
"363 37 LINE",
"349 0 LINE"
);
}
);
userData = {
com.fontlab.hintData = {
hhints = (
{
position = 0;
width = 37;
},
{
position = 465;
width = 37;
}
);
};
};
width = 443;
}
);
unicode = 017E;
},
{
glyphname = zdotaccent;
layers = (
{
layerId = master01;
paths = (
{
closed = 1;
nodes = (
"338 604 LINE",
"281 596 LINE",
"302 660 LINE",
"359 669 LINE"
);
},
{
closed = 1;
nodes = (
"-4 0 LINE",
"-15 35 LINE",
"418 465 LINE",
"100 465 LINE",
"116 502 LINE",
"453 502 LINE",
"464 468 LINE",
"30 37 LINE",
"363 37 LINE",
"349 0 LINE"
);
}
);
userData = {
com.fontlab.hintData = {
hhints = (
{
position = 0;
width = 37;
},
{
position = 465;
width = 37;
}
);
};
};
width = 443;
}
);
unicode = 017C;
},
{
glyphname = ordfeminine;
layers = (
{
layerId = master01;
paths = (
{
closed = 1;
nodes = (
"265 376 LINE",
"233 369 LINE",
"240 403 LINE",
"198 382 OFFCURVE",
"165 373 OFFCURVE",
"142 373 CURVE SMOOTH",
"86 373 OFFCURVE",
"51 413 OFFCURVE",
"51 470 CURVE SMOOTH",
"51 577 OFFCURVE",
"144 684 OFFCURVE",
"239 684 CURVE SMOOTH",
"261 684 OFFCURVE",
"299 677 OFFCURVE",
"325 661 CURVE"
);
},
{
closed = 1;
nodes = (
"292 639 LINE",
"276 649 OFFCURVE",
"252 654 OFFCURVE",
"233 654 CURVE SMOOTH",
"150 654 OFFCURVE",
"82 554 OFFCURVE",
"82 474 CURVE SMOOTH",
"82 430 OFFCURVE",
"106 403 OFFCURVE",
"146 403 CURVE SMOOTH",
"182 403 OFFCURVE",
"228 428 OFFCURVE",
"247 441 CURVE"
);
}
);
userData = {
com.fontlab.hintData = {
hhints = (
{
position = 373;
width = 30;
},
{
position = 654;
width = 30;
}
);
vhints = (
{
position = 51;
width = 31;
}
);
};
};
width = 240;
}
);
unicode = 00AA;
},
{
glyphname = ordmasculine;
layers = (
{
layerId = master01;
paths = (
{
closed = 1;
nodes = (
"89 371 OFFCURVE",
"52 419 OFFCURVE",
"52 481 CURVE SMOOTH",
"52 589 OFFCURVE",
"152 688 OFFCURVE",
"241 688 CURVE SMOOTH",
"302 688 OFFCURVE",
"340 639 OFFCURVE",
"340 576 CURVE SMOOTH",
"340 470 OFFCURVE",
"240 371 OFFCURVE",
"154 371 CURVE SMOOTH"
);
},
{
closed = 1;
nodes = (
"167 660 OFFCURVE",
"86 575 OFFCURVE",
"86 484 CURVE SMOOTH",
"86 433 OFFCURVE",
"114 398 OFFCURVE",
"160 398 CURVE SMOOTH",
"225 398 OFFCURVE",
"306 481 OFFCURVE",
"306 568 CURVE SMOOTH",
"306 617 OFFCURVE",
"280 660 OFFCURVE",
"232 660 CURVE SMOOTH"
);
}
);
userData = {
com.fontlab.hintData = {
hhints = (
{
position = 371;
width = 27;
},
{
position = 660;
width = 28;
}
);
vhints = (
{
position = 52;
width = 34;
},
{
position = 306;
width = 34;
}
);
};
};
width = 275;
}
);
unicode = 00BA;
},
{
glyphname = zero;
layers = (
{
layerId = master01;
paths = (
{
closed = 1;
nodes = (
"135 -3 OFFCURVE",
"74 97 OFFCURVE",
"74 229 CURVE SMOOTH",
"74 458 OFFCURVE",
"251 694 OFFCURVE",
"413 694 CURVE SMOOTH",
"518 694 OFFCURVE",
"578 595 OFFCURVE",
"578 464 CURVE SMOOTH",
"578 229 OFFCURVE",
"399 -3 OFFCURVE",
"241 -3 CURVE SMOOTH"
);
},
{
closed = 1;
nodes = (
"273 657 OFFCURVE",
"110 454 OFFCURVE",
"110 237 CURVE SMOOTH",
"110 123 OFFCURVE",
"159 33 OFFCURVE",
"249 33 CURVE SMOOTH",
"379 33 OFFCURVE",
"542 237 OFFCURVE",
"542 452 CURVE SMOOTH",
"542 568 OFFCURVE",
"492 657 OFFCURVE",
"405 657 CURVE SMOOTH"
);
}
);
userData = {
com.fontlab.hintData = {
hhints = (
{
position = -3;
width = 36;
},
{
position = 657;
width = 37;
}
);
vhints = (
{
position = 74;
width = 36;
},
{
position = 542;
width = 36;
}
);
};
};
width = 604;
}
);
unicode = 0030;
},
{
glyphname = one;
layers = (
{
layerId = master01;
paths = (
{
closed = 1;
nodes = (
"293 35 LINE",
"278 0 LINE",
"26 0 LINE",
"41 35 LINE",
"157 35 LINE",
"286 595 LINE",
"140 484 LINE",
"123 511 LINE",
"339 676 LINE",
"193 35 LINE"
);
}
);
userData = {
com.fontlab.hintData = {
hhints = (
{
position = 0;
width = 35;
}
);
vhints = (
{
position = 26;
width = 313;
}
);
};
};
width = 404;
}
);
unicode = 0031;
},
{
glyphname = two;
layers = (
{
layerId = master01;
paths = (
{
closed = 1;
nodes = (
"411 35 LINE",
"397 0 LINE",
"13 0 LINE",
"16 18 LINE SMOOTH",
"40 163 OFFCURVE",
"123 234 OFFCURVE",
"254 311 CURVE SMOOTH",
"409 403 OFFCURVE",
"474 470 OFFCURVE",
"474 547 CURVE SMOOTH",
"474 619 OFFCURVE",
"402 646 OFFCURVE",
"348 646 CURVE SMOOTH",
"257 646 OFFCURVE",
"183 583 OFFCURVE",
"155 554 CURVE",
"137 580 LINE",
"172 616 OFFCURVE",
"252 681 OFFCURVE",
"355 681 CURVE SMOOTH",
"474 681 OFFCURVE",
"509 613 OFFCURVE",
"509 554 CURVE SMOOTH",
"509 439 OFFCURVE",
"384 351 OFFCURVE",
"265 281 CURVE SMOOTH",
"150 214 OFFCURVE",
"76 142 OFFCURVE",
"54 35 CURVE"
);
}
);
userData = {
com.fontlab.hintData = {
hhints = (
{
position = 0;
width = 35;
},
{
position = 646;
width = 35;
}
);
vhints = (
{
position = 474;
width = 35;
}
);
};
};
width = 514;
}
);
unicode = 0032;
},
{
glyphname = three;
layers = (
{
layerId = master01;
paths = (
{
closed = 1;
nodes = (
"437 362 OFFCURVE",
"472 317 OFFCURVE",
"472 251 CURVE SMOOTH",
"472 63 OFFCURVE",
"300 -4 OFFCURVE",
"219 -4 CURVE SMOOTH",
"136 -4 OFFCURVE",
"57 35 OFFCURVE",
"43 121 CURVE",
"79 136 LINE",
"92 74 OFFCURVE",
"152 31 OFFCURVE",
"226 31 CURVE SMOOTH",
"334 31 OFFCURVE",
"432 127 OFFCURVE",
"432 240 CURVE SMOOTH",
"432 332 OFFCURVE",
"350 363 OFFCURVE",
"254 367 CURVE",
"260 403 LINE",
"387 415 OFFCURVE",
"486 482 OFFCURVE",
"486 562 CURVE SMOOTH",
"486 609 OFFCURVE",
"439 655 OFFCURVE",
"352 655 CURVE SMOOTH",
"283 655 OFFCURVE",
"221 616 OFFCURVE",
"195 597 CURVE",
"175 623 LINE",
"206 646 OFFCURVE",
"276 691 OFFCURVE",
"359 691 CURVE SMOOTH",
"457 691 OFFCURVE",
"525 639 OFFCURVE",
"525 570 CURVE SMOOTH",
"525 482 OFFCURVE",
"444 417 OFFCURVE",
"356 390 CURVE"
);
}
);
userData = {
com.fontlab.hintData = {
hhints = (
{
position = -4;
width = 35;
},
{
position = 367;
width = 36;
},
{
position = 655;
width = 36;
}
);
vhints = (
{
position = 43;
width = 36;
},
{
position = 432;
width = 40;
},
{
position = 486;
width = 39;
}
);
};
};
width = 539;
}
);
unicode = 0033;
},
{
glyphname = four;
layers = (
{
layerId = master01;
paths = (
{
closed = 1;
nodes = (
"303 2 LINE",
"339 179 LINE",
"32 179 LINE",
"479 670 LINE",
"380 205 LINE",
"447 205 LINE",
"432 173 LINE",
"373 173 LINE",
"338 9 LINE"
);
},
{
closed = 1;
nodes = (
"346 207 LINE",
"423 566 LINE",
"100 207 LINE"
);
}
);
userData = {
com.fontlab.hintData = {
hhints = (
{
position = 179;
width = 28;
}
);
};
};
width = 508;
}
);
unicode = 0034;
},
{
glyphname = five;
layers = (
{
layerId = master01;
paths = (
{
closed = 1;
nodes = (
"158 0 OFFCURVE",
"75 28 OFFCURVE",
"42 122 CURVE",
"77 134 LINE",
"97 66 OFFCURVE",
"160 34 OFFCURVE",
"215 34 CURVE SMOOTH",
"353 34 OFFCURVE",
"470 177 OFFCURVE",
"470 309 CURVE SMOOTH",
"470 400 OFFCURVE",
"406 449 OFFCURVE",
"336 449 CURVE SMOOTH",
"270 449 OFFCURVE",
"199 412 OFFCURVE",
"157 365 CURVE",
"126 377 LINE",
"220 679 LINE",
"561 679 LINE",
"547 645 LINE",
"243 645 LINE",
"173 422 LINE",
"222 454 OFFCURVE",
"282 483 OFFCURVE",
"343 483 CURVE SMOOTH",
"450 483 OFFCURVE",
"502 402 OFFCURVE",
"502 310 CURVE SMOOTH",
"502 143 OFFCURVE",
"357 0 OFFCURVE",
"208 0 CURVE SMOOTH"
);
}
);
userData = {
com.fontlab.hintData = {
hhints = (
{
position = 0;
width = 34;
},
{
position = 449;
width = 34;
},
{
position = 645;
width = 34;
}
);
vhints = (
{
position = 470;
width = 32;
}
);
};
};
width = 552;
}
);
unicode = 0035;
},
{
glyphname = six;
layers = (
{
layerId = master01;
paths = (
{
closed = 1;
nodes = (
"445 656 LINE",
"339 612 OFFCURVE",
"211 506 OFFCURVE",
"141 382 CURVE",
"197 412 OFFCURVE",
"265 440 OFFCURVE",
"328 440 CURVE SMOOTH",
"346 440 OFFCURVE",
"481 434 OFFCURVE",
"481 296 CURVE SMOOTH",
"481 161 OFFCURVE",
"376 -5 OFFCURVE",
"223 -5 CURVE SMOOTH",
"102 -5 OFFCURVE",
"51 69 OFFCURVE",
"51 169 CURVE SMOOTH",
"51 394 OFFCURVE",
"232 592 OFFCURVE",
"440 687 CURVE"
);
},
{
closed = 1;
nodes = (
"97 275 OFFCURVE",
"85 209 OFFCURVE",
"85 169 CURVE SMOOTH",
"85 56 OFFCURVE",
"160 29 OFFCURVE",
"231 29 CURVE SMOOTH",
"356 29 OFFCURVE",
"447 171 OFFCURVE",
"447 289 CURVE SMOOTH",
"447 395 OFFCURVE",
"353 405 OFFCURVE",
"321 405 CURVE SMOOTH",
"220 405 OFFCURVE",
"139 347 OFFCURVE",
"115 324 CURVE"
);
}
);
userData = {
com.fontlab.hintData = {
hhints = (
{
position = -5;
width = 34;
},
{
position = 405;
width = 35;
}
);
vhints = (
{
position = 51;
width = 34;
},
{
position = 447;
width = 34;
}
);
};
};
width = 536;
}
);
unicode = 0036;
},
{
glyphname = seven;
layers = (
{
layerId = master01;
paths = (
{
closed = 1;
nodes = (
"64 20 LINE",
"516 647 LINE",
"157 647 LINE",
"157 682 LINE",
"577 682 LINE",
"90 4 LINE"
);
}
);
userData = {
com.fontlab.hintData = {
hhints = (
{
position = 647;
width = 35;
}
);
};
};
width = 491;
}
);
unicode = 0037;
},
{
glyphname = eight;
layers = (
{
layerId = master01;
paths = (
{
closed = 1;
nodes = (
"113 -3 OFFCURVE",
"47 55 OFFCURVE",
"47 139 CURVE SMOOTH",
"47 264 OFFCURVE",
"165 334 OFFCURVE",
"251 373 CURVE",
"198 398 OFFCURVE",
"155 436 OFFCURVE",
"155 494 CURVE SMOOTH",
"155 619 OFFCURVE",
"275 694 OFFCURVE",
"376 694 CURVE SMOOTH",
"465 694 OFFCURVE",
"521 644 OFFCURVE",
"521 570 CURVE SMOOTH",
"521 471 OFFCURVE",
"435 415 OFFCURVE",
"357 380 CURVE",
"426 341 OFFCURVE",
"465 285 OFFCURVE",
"465 221 CURVE SMOOTH",
"465 96 OFFCURVE",
"343 -3 OFFCURVE",
"217 -3 CURVE SMOOTH"
);
},
{
closed = 1;
nodes = (
"209 326 OFFCURVE",
"83 271 OFFCURVE",
"83 144 CURVE SMOOTH",
"83 78 OFFCURVE",
"141 33 OFFCURVE",
"225 33 CURVE SMOOTH",
"307 33 OFFCURVE",
"427 89 OFFCURVE",
"427 213 CURVE SMOOTH",
"427 289 OFFCURVE",
"360 337 OFFCURVE",
"294 358 CURVE"
);
},
{
closed = 1;
nodes = (
"415 435 OFFCURVE",
"485 474 OFFCURVE",
"485 567 CURVE SMOOTH",
"485 622 OFFCURVE",
"436 656 OFFCURVE",
"368 656 CURVE SMOOTH",
"275 656 OFFCURVE",
"191 586 OFFCURVE",
"191 503 CURVE SMOOTH",
"191 452 OFFCURVE",
"235 420 OFFCURVE",
"317 396 CURVE"
);
}
);
userData = {
com.fontlab.hintData = {
hhints = (
{
position = -3;
width = 36;
},
{
position = 656;
width = 38;
}
);
vhints = (
{
position = 47;
width = 36;
},
{
position = 155;
width = 36;
},
{
position = 427;
width = 38;
},
{
position = 485;
width = 36;
}
);
};
};
width = 537;
}
);
unicode = 0038;
},
{
glyphname = nine;
layers = (
{
layerId = master01;
paths = (
{
closed = 1;
nodes = (
"132 32 LINE",
"251 78 OFFCURVE",
"363 179 OFFCURVE",
"438 307 CURVE",
"381 277 OFFCURVE",
"312 249 OFFCURVE",
"248 249 CURVE SMOOTH",
"231 249 OFFCURVE",
"96 254 OFFCURVE",
"96 392 CURVE SMOOTH",
"96 571 OFFCURVE",
"241 694 OFFCURVE",
"356 694 CURVE SMOOTH",
"476 694 OFFCURVE",
"526 620 OFFCURVE",
"526 520 CURVE SMOOTH",
"526 299 OFFCURVE",
"349 85 OFFCURVE",
"139 0 CURVE"
);
},
{
closed = 1;
nodes = (
"479 414 OFFCURVE",
"494 476 OFFCURVE",
"494 519 CURVE SMOOTH",
"494 633 OFFCURVE",
"417 659 OFFCURVE",
"346 659 CURVE SMOOTH",
"221 659 OFFCURVE",
"131 516 OFFCURVE",
"131 399 CURVE SMOOTH",
"131 293 OFFCURVE",
"224 283 OFFCURVE",
"256 283 CURVE SMOOTH",
"357 283 OFFCURVE",
"437 341 OFFCURVE",
"462 364 CURVE"
);
}
);
userData = {
com.fontlab.hintData = {
hhints = (
{
position = 0;
width = 21;
},
{
position = 249;
width = 34;
},
{
position = 659;
width = 35;
}
);
vhints = (
{
position = 96;
width = 35;
},
{
position = 494;
width = 32;
}
);
};
};
width = 536;
}
);
unicode = 0039;
},
{
glyphname = onesuperior;
layers = (
{
layerId = master01;
paths = (
{
closed = 1;
nodes = (
"71 500 LINE",
"136 500 LINE",
"203 796 LINE",
"126 738 LINE",
"114 759 LINE",
"244 857 LINE",
"163 500 LINE",
"219 500 LINE",
"207 473 LINE",
"61 473 LINE"
);
}
);
userData = {
com.fontlab.hintData = {
hhints = (
{
position = 473;
width = 27;
}
);
vhints = (
{
position = 61;
width = 183;
}
);
};
};
width = 169;
}
);
unicode = 00B9;
},
{
glyphname = twosuperior;
layers = (
{
layerId = master01;
paths = (
{
closed = 1;
nodes = (
"114 776 LINE",
"144 806 OFFCURVE",
"194 834 OFFCURVE",
"240 834 CURVE SMOOTH",
"308 834 OFFCURVE",
"327 794 OFFCURVE",
"327 761 CURVE SMOOTH",
"327 698 OFFCURVE",
"248 642 OFFCURVE",
"192 610 CURVE SMOOTH",
"131 575 OFFCURVE",
"101 549 OFFCURVE",
"79 483 CURVE",
"274 483 LINE",
"263 457 LINE",
"48 457 LINE",
"50 468 LINE SMOOTH",
"65 548 OFFCURVE",
"106 588 OFFCURVE",
"182 632 CURVE SMOOTH",
"263 679 OFFCURVE",
"300 717 OFFCURVE",
"300 755 CURVE SMOOTH",
"300 787 OFFCURVE",
"269 807 OFFCURVE",
"234 807 CURVE SMOOTH",
"202 807 OFFCURVE",
"165 795 OFFCURVE",
"130 755 CURVE"
);
}
);
userData = {
com.fontlab.hintData = {
hhints = (
{
position = 457;
width = 26;
},
{
position = 807;
width = 27;
}
);
vhints = (
{
position = 300;
width = 27;
}
);
};
};
width = 227;
}
);
unicode = 00B2;
},
{
glyphname = threesuperior;
layers = (
{
layerId = master01;
paths = (
{
closed = 1;
nodes = (
"131 792 LINE",
"154 810 OFFCURVE",
"194 831 OFFCURVE",
"238 831 CURVE SMOOTH",
"291 831 OFFCURVE",
"326 804 OFFCURVE",
"326 766 CURVE SMOOTH",
"326 733 OFFCURVE",
"296 688 OFFCURVE",
"240 668 CURVE",
"277 655 OFFCURVE",
"295 624 OFFCURVE",
"295 590 CURVE SMOOTH",
"295 491 OFFCURVE",
"199 456 OFFCURVE",
"157 456 CURVE SMOOTH",
"119 456 OFFCURVE",
"70 471 OFFCURVE",
"62 529 CURVE",
"89 538 LINE",
"91 500 OFFCURVE",
"120 482 OFFCURVE",
"163 482 CURVE SMOOTH",
"185 482 OFFCURVE",
"269 501 OFFCURVE",
"269 588 CURVE SMOOTH",
"269 626 OFFCURVE",
"240 654 OFFCURVE",
"173 654 CURVE",
"178 679 LINE",
"218 680 OFFCURVE",
"298 699 OFFCURVE",
"298 762 CURVE SMOOTH",
"298 790 OFFCURVE",
"266 805 OFFCURVE",
"231 805 CURVE SMOOTH",
"205 805 OFFCURVE",
"177 799 OFFCURVE",
"146 774 CURVE"
);
}
);
userData = {
com.fontlab.hintData = {
hhints = (
{
position = 456;
width = 26;
},
{
position = 654;
width = 25;
},
{
position = 805;
width = 26;
}
);
vhints = (
{
position = 62;
width = 27;
},
{
position = 269;
width = 26;
},
{
position = 298;
width = 28;
}
);
};
};
width = 226;
}
);
unicode = 00B3;
},
{
glyphname = period;
layers = (
{
layerId = master01;
paths = (
{
closed = 1;
nodes = (
"77 9 LINE",
"22 1 LINE",
"42 66 LINE",
"99 74 LINE"
);
}
);
userData = {
com.fontlab.hintData = {
hhints = (
{
position = 1;
width = 73;
}
);
vhints = (
{
position = 22;
width = 77;
}
);
};
};
width = 212;
}
);
unicode = 002E;
},
{
glyphname = comma;
layers = (
{
layerId = master01;
paths = (
{
closed = 1;
nodes = (
"171 29 LINE",
"50 -125 LINE",
"22 -106 LINE",
"99 -6 LINE",
"67 16 LINE",
"119 60 LINE"
);
}
);
userData = {
com.fontlab.hintData = {
hhints = (
{
position = -125;
width = 185;
}
);
vhints = (
{
position = 22;
width = 149;
}
);
};
};
width = 307;
}
);
unicode = 002C;
},
{
glyphname = colon;
layers = (
{
layerId = master01;
paths = (
{
closed = 1;
nodes = (
"185 377 LINE",
"128 369 LINE",
"148 433 LINE",
"204 442 LINE"
);
},
{
closed = 1;
nodes = (
"77 9 LINE",
"22 1 LINE",
"42 66 LINE",
"98 74 LINE"
);
}
);
userData = {
com.fontlab.hintData = {
hhints = (
{
position = 1;
width = 21;
}
);
vhints = (
{
position = 22;
width = 182;
}
);
};
};
width = 240;
}
);
unicode = 003A;
},
{
glyphname = semicolon;
layers = (
{
layerId = master01;
paths = (
{
closed = 1;
nodes = (
"256 379 LINE",
"199 371 LINE",
"219 435 LINE",
"276 444 LINE"
);
},
{
closed = 1;
nodes = (
"170 28 LINE",
"50 -125 LINE",
"22 -106 LINE",
"99 -6 LINE",
"67 16 LINE",
"118 59 LINE"
);
}
);
userData = {
com.fontlab.hintData = {
vhints = (
{
position = 22;
width = 254;
}
);
};
};
width = 322;
}
);
unicode = 003B;
},
{
glyphname = ellipsis;
layers = (
{
layerId = master01;
paths = (
{
closed = 1;
nodes = (
"72 9 LINE",
"17 1 LINE",
"37 66 LINE",
"93 74 LINE"
);
},
{
closed = 1;
nodes = (
"339 9 LINE",
"283 1 LINE",
"304 66 LINE",
"360 74 LINE"
);
},
{
closed = 1;
nodes = (
"605 9 LINE",
"550 1 LINE",
"570 66 LINE",
"626 74 LINE"
);
}
);
userData = {
com.fontlab.hintData = {
hhints = (
{
position = 1;
width = 73;
}
);
};
};
width = 724;
}
);
unicode = 2026;
},
{
glyphname = exclam;
layers = (
{
layerId = master01;
paths = (
{
closed = 1;
nodes = (
"45 156 LINE",
"158 691 LINE",
"196 698 LINE",
"83 165 LINE"
);
},
{
closed = 1;
nodes = (
"43 9 LINE",
"6 2 LINE",
"26 66 LINE",
"64 73 LINE"
);
}
);
userData = {
com.fontlab.hintData = {
vhints = (
{
position = 6;
width = 190;
}
);
};
};
width = 175;
}
);
unicode = 0021;
},
{
glyphname = exclamdown;
layers = (
{
layerId = master01;
paths = (
{
closed = 1;
nodes = (
"115 344 LINE",
"1 -191 LINE",
"-36 -198 LINE",
"78 335 LINE"
);
},
{
closed = 1;
nodes = (
"116 491 LINE",
"154 498 LINE",
"134 434 LINE",
"96 427 LINE"
);
}
);
userData = {
com.fontlab.hintData = {
hhints = (
{
position = 478;
width = 20;
}
);
vhints = (
{
position = -36;
width = 190;
}
);
};
};
width = 175;
}
);
unicode = 00A1;
},
{
glyphname = question;
layers = (
{
layerId = master01;
paths = (
{
closed = 1;
nodes = (
"140 9 LINE",
"102 2 LINE",
"122 66 LINE",
"160 73 LINE"
);
},
{
closed = 1;
nodes = (
"349 341 LINE SMOOTH",
"414 390 OFFCURVE",
"498 455 OFFCURVE",
"498 557 CURVE SMOOTH",
"498 625 OFFCURVE",
"458 686 OFFCURVE",
"344 686 CURVE SMOOTH",
"255 686 OFFCURVE",
"186 621 OFFCURVE",
"160 592 CURVE",
"140 616 LINE",
"174 652 OFFCURVE",
"252 722 OFFCURVE",
"352 722 CURVE SMOOTH",
"465 722 OFFCURVE",
"534 659 OFFCURVE",
"534 564 CURVE SMOOTH",
"534 438 OFFCURVE",
"431 362 OFFCURVE",
"363 311 CURVE SMOOTH",
"174 170 LINE",
"163 201 LINE"
);
}
);
userData = {
com.fontlab.hintData = {
hhints = (
{
position = 686;
width = 36;
}
);
vhints = (
{
position = 498;
width = 36;
}
);
};
};
width = 532;
}
);
unicode = 003F;
},
{
glyphname = questiondown;
layers = (
{
layerId = master01;
paths = (
{
closed = 1;
nodes = (
"377 713 LINE",
"416 720 LINE",
"396 656 LINE",
"357 649 LINE"
);
},
{
closed = 1;
nodes = (
"168 381 LINE SMOOTH",
"103 332 OFFCURVE",
"20 267 OFFCURVE",
"20 164 CURVE SMOOTH",
"20 97 OFFCURVE",
"59 36 OFFCURVE",
"173 36 CURVE SMOOTH",
"262 36 OFFCURVE",
"331 101 OFFCURVE",
"357 130 CURVE",
"377 106 LINE",
"343 70 OFFCURVE",
"266 0 OFFCURVE",
"166 0 CURVE SMOOTH",
"51.818 0 OFFCURVE",
"-16.007 62.444 OFFCURVE",
"-16.007 158.852 CURVE SMOOTH",
"-16.007 284.73 OFFCURVE",
"85.341 359.253 OFFCURVE",
"155 411 CURVE SMOOTH",
"344 552 LINE",
"354 521 LINE"
);
}
);
userData = {
com.fontlab.hintData = {
hhints = (
{
position = 0;
width = 36;
}
);
vhints = (
{
position = -16;
width = 36;
}
);
};
};
width = 491;
}
);
unicode = 00BF;
},
{
glyphname = periodcentered;
layers = (
{
layerId = master01;
paths = (
{
closed = 1;
nodes = (
"266 225 LINE",
"211 217 LINE",
"230 281 LINE",
"287 290 LINE"
);
}
);
userData = {
com.fontlab.hintData = {
hhints = (
{
position = 217;
width = 73;
}
);
vhints = (
{
position = 211;
width = 76;
}
);
};
};
width = 490;
}
);
unicode = 00B7;
},
{
glyphname = bullet;
layers = (
{
layerId = master01;
paths = (
{
closed = 1;
nodes = (
"259 208 OFFCURVE",
"215 171 OFFCURVE",
"170 171 CURVE SMOOTH",
"130 171 OFFCURVE",
"103 199 OFFCURVE",
"103 237 CURVE SMOOTH",
"103 289 OFFCURVE",
"155 335 OFFCURVE",
"205 335 CURVE SMOOTH",
"245.718 335 OFFCURVE",
"269.199 304.442 OFFCURVE",
"269.199 267.6 CURVE SMOOTH",
"269.199 262.822 OFFCURVE",
"268.804 257.937 OFFCURVE",
"268 253 CURVE"
);
}
);
userData = {
com.fontlab.hintData = {
hhints = (
{
position = 171;
width = 164;
}
);
vhints = (
{
position = 103;
width = 166;
}
);
};
};
width = 368;
}
);
unicode = 2022;
},
{
glyphname = asterisk;
layers = (
{
layerId = master01;
paths = (
{
closed = 1;
nodes = (
"266 596 OFFCURVE",
"265 628 OFFCURVE",
"269 644 CURVE SMOOTH",
"284 713 LINE",
"319 713 LINE",
"304 644 LINE SMOOTH",
"300 628 OFFCURVE",
"284 591 OFFCURVE",
"281 579 CURVE",
"299 588 OFFCURVE",
"330 604 OFFCURVE",
"347 609 CURVE SMOOTH",
"416 630 LINE",
"419 597 LINE",
"349 576 LINE SMOOTH",
"334 571 OFFCURVE",
"295 567 OFFCURVE",
"282 564 CURVE",
"294 551 OFFCURVE",
"312 530 OFFCURVE",
"319 517 CURVE SMOOTH",
"347 461 LINE",
"314 440 LINE",
"286 497 LINE",
"281 510 OFFCURVE",
"272 544 OFFCURVE",
"268 555 CURVE",
"257 538 OFFCURVE",
"237 508 OFFCURVE",
"225 495 CURVE SMOOTH",
"173 440 LINE",
"148 461 LINE",
"202 516 LINE SMOOTH",
"215 529 OFFCURVE",
"247 555 OFFCURVE",
"257 563 CURVE",
"240 566 OFFCURVE",
"208 569 OFFCURVE",
"195 575 CURVE",
"133 596 LINE",
"152 629 LINE",
"213 607 LINE SMOOTH",
"226 602 OFFCURVE",
"255 583 OFFCURVE",
"265 578 CURVE"
);
}
);
userData = {
com.fontlab.hintData = {
hhints = (
{
position = 440;
width = 273;
}
);
vhints = (
{
position = 133;
width = 283;
}
);
};
};
width = 407;
}
);
unicode = 002A;
},
{
glyphname = numbersign;
layers = (
{
layerId = master01;
paths = (
{
closed = 1;
nodes = (
"575 449 LINE",
"479 256 LINE",
"643 256 LINE",
"625 221 LINE",
"460 221 LINE",
"353 4 LINE",
"315 1 LINE",
"425 221 LINE",
"242 221 LINE",
"134 4 LINE",
"97 1 LINE",
"206 221 LINE",
"56 221 LINE",
"74 256 LINE",
"225 256 LINE",
"321 449 LINE",
"146 449 LINE",
"163 483 LINE",
"338 483 LINE",
"446 697 LINE",
"482 700 LINE",
"374 483 LINE",
"557 483 LINE",
"662 696 LINE",
"701 699 LINE",
"592 483 LINE",
"737 483 LINE",
"721 449 LINE"
);
},
{
closed = 1;
nodes = (
"540 449 LINE",
"356 449 LINE",
"260 256 LINE",
"443 256 LINE"
);
}
);
userData = {
com.fontlab.hintData = {
hhints = (
{
position = 1;
width = 21;
},
{
position = 221;
width = 35;
},
{
position = 449;
width = 34;
}
);
};
};
width = 741;
}
);
unicode = 0023;
},
{
glyphname = slash;
layers = (
{
layerId = master01;
paths = (
{
closed = 1;
nodes = (
"553 700 LINE",
"20 0 LINE",
"-19 0 LINE",
"513 700 LINE"
);
}
);
userData = {
com.fontlab.hintData = {
hhints = (
{
position = 0;
width = 21;
}
);
};
};
width = 482;
}
);
unicode = 002F;
},
{
glyphname = backslash;
layers = (
{
layerId = master01;
paths = (
{
closed = 1;
nodes = (
"404 0 LINE",
"364 0 LINE",
"129 701 LINE",
"168 701 LINE"
);
}
);
userData = {
com.fontlab.hintData = {
hhints = (
{
position = 0;
width = 21;
}
);
vhints = (
{
position = 129;
width = 275;
}
);
};
};
width = 482;
}
);
unicode = 005C;
},
{
glyphname = parenleft;
layers = (
{
layerId = master01;
paths = (
{
closed = 1;
nodes = (
"178 -119 LINE",
"108 -30 OFFCURVE",
"75 98 OFFCURVE",
"75 222 CURVE SMOOTH",
"75 434 OFFCURVE",
"196 671 OFFCURVE",
"400 819 CURVE",
"416 792 LINE",
"242 665 OFFCURVE",
"112 450 OFFCURVE",
"112 231 CURVE SMOOTH",
"112 107 OFFCURVE",
"148 -17 OFFCURVE",
"209 -94 CURVE"
);
}
);
userData = {
com.fontlab.hintData = {
vhints = (
{
position = 75;
width = 37;
}
);
};
};
width = 367;
}
);
unicode = 0028;
},
{
glyphname = parenright;
layers = (
{
layerId = master01;
paths = (
{
closed = 1;
nodes = (
"213 819 LINE",
"306 717 OFFCURVE",
"337 589 OFFCURVE",
"337 476 CURVE SMOOTH",
"337 269 OFFCURVE",
"224 46 OFFCURVE",
"32 -118 CURVE",
"16 -91 LINE",
"192 63 OFFCURVE",
"300 275 OFFCURVE",
"300 468 CURVE SMOOTH",
"300 650 OFFCURVE",
"211 759 OFFCURVE",
"181 794 CURVE"
);
}
);
userData = {
com.fontlab.hintData = {
vhints = (
{
position = 300;
width = 37;
}
);
};
};
width = 367;
}
);
unicode = 0029;
},
{
glyphname = braceleft;
layers = (
{
layerId = master01;
paths = (
{
closed = 1;
nodes = (
"92 371 LINE",
"143 389 OFFCURVE",
"181 428 OFFCURVE",
"193 482 CURVE SMOOTH",
"235 679 LINE SMOOTH",
"257 781 OFFCURVE",
"362 818 OFFCURVE",
"425 823 CURVE",
"416 787 LINE",
"344 782 OFFCURVE",
"285 743 OFFCURVE",
"271 679 CURVE SMOOTH",
"229 483 LINE SMOOTH",
"222 452 OFFCURVE",
"202 400 OFFCURVE",
"134 354 CURVE",
"159 331 OFFCURVE",
"177 298 OFFCURVE",
"177 257 CURVE SMOOTH",
"177 247 OFFCURVE",
"176 236 OFFCURVE",
"174 225 CURVE SMOOTH",
"129 14 LINE SMOOTH",
"127 6 OFFCURVE",
"126 -2 OFFCURVE",
"126 -9 CURVE SMOOTH",
"126 -55 OFFCURVE",
"160 -85 OFFCURVE",
"232 -94 CURVE",
"222 -130 LINE",
"168 -127 OFFCURVE",
"90 -99 OFFCURVE",
"90 -17 CURVE SMOOTH",
"90 -7 OFFCURVE",
"91 3 OFFCURVE",
"93 14 CURVE SMOOTH",
"140 233 LINE SMOOTH",
"141 240 OFFCURVE",
"142 247 OFFCURVE",
"142 254 CURVE SMOOTH",
"142 292 OFFCURVE",
"120 324 OFFCURVE",
"85 337 CURVE"
);
}
);
userData = {
com.fontlab.hintData = {
hhints = (
{
position = -130;
width = 36;
},
{
position = 787;
width = 36;
}
);
vhints = (
{
position = 90;
width = 36;
},
{
position = 142;
width = 35;
}
);
};
};
width = 364;
}
);
unicode = 007B;
},
{
glyphname = braceright;
layers = (
{
layerId = master01;
paths = (
{
closed = 1;
nodes = (
"309 322 LINE",
"259 304 OFFCURVE",
"219 265 OFFCURVE",
"208 211 CURVE SMOOTH",
"166 14 LINE SMOOTH",
"144 -88 OFFCURVE",
"39 -125 OFFCURVE",
"-24 -130 CURVE",
"-14 -94 LINE",
"57 -89 OFFCURVE",
"116 -50 OFFCURVE",
"130 14 CURVE SMOOTH",
"172 210 LINE SMOOTH",
"179 241 OFFCURVE",
"200 293 OFFCURVE",
"268 339 CURVE",
"242 361 OFFCURVE",
"223 395 OFFCURVE",
"223 437 CURVE SMOOTH",
"223 447 OFFCURVE",
"225 457 OFFCURVE",
"227 468 CURVE SMOOTH",
"272 679 LINE SMOOTH",
"274 687 OFFCURVE",
"274 695 OFFCURVE",
"274 702 CURVE SMOOTH",
"274 748 OFFCURVE",
"241 778 OFFCURVE",
"170 787 CURVE",
"179 823 LINE",
"233 819 OFFCURVE",
"311 792 OFFCURVE",
"311 710 CURVE SMOOTH",
"311 700 OFFCURVE",
"310 690 OFFCURVE",
"308 679 CURVE SMOOTH",
"261 460 LINE SMOOTH",
"259 453 OFFCURVE",
"259 445 OFFCURVE",
"259 439 CURVE SMOOTH",
"259 401 OFFCURVE",
"281 369 OFFCURVE",
"316 356 CURVE"
);
}
);
userData = {
com.fontlab.hintData = {
hhints = (
{
position = -130;
width = 36;
},
{
position = 787;
width = 36;
}
);
vhints = (
{
position = 223;
width = 36;
},
{
position = 274;
width = 37;
}
);
};
};
width = 364;
}
);
unicode = 007D;
},
{
glyphname = bracketleft;
layers = (
{
layerId = master01;
paths = (
{
closed = 1;
nodes = (
"-12 -129 LINE",
"189 818 LINE",
"367 818 LINE",
"353 782 LINE",
"217 782 LINE",
"31 -94 LINE",
"158 -94 LINE",
"143 -129 LINE"
);
}
);
userData = {
com.fontlab.hintData = {
hhints = (
{
position = -129;
width = 35;
},
{
position = 782;
width = 36;
}
);
};
};
width = 305;
}
);
unicode = 005B;
},
{
glyphname = bracketright;
layers = (
{
layerId = master01;
paths = (
{
closed = 1;
nodes = (
"364 818 LINE",
"163 -129 LINE",
"-15 -129 LINE",
"0 -94 LINE",
"135 -94 LINE",
"321 782 LINE",
"194 782 LINE",
"210 818 LINE"
);
}
);
userData = {
com.fontlab.hintData = {
hhints = (
{
position = -129;
width = 35;
},
{
position = 782;
width = 36;
}
);
};
};
width = 305;
}
);
unicode = 005D;
},
{
glyphname = hyphen;
layers = (
{
layerId = master01;
paths = (
{
closed = 1;
nodes = (
"71 232 LINE",
"85 268 LINE",
"367 268 LINE",
"353 232 LINE"
);
}
);
userData = {
com.fontlab.hintData = {
hhints = (
{
position = 232;
width = 36;
}
);
vhints = (
{
position = 71;
width = 296;
}
);
};
};
width = 432;
}
);
unicode = 002D;
},
{
glyphname = uni00AD;
layers = (
{
layerId = master01;
paths = (
{
closed = 1;
nodes = (
"354 236 LINE",
"72 236 LINE",
"86 272 LINE",
"368 272 LINE"
);
}
);
userData = {
com.fontlab.hintData = {
hhints = (
{
position = 236;
width = 36;
}
);
vhints = (
{
position = 72;
width = 296;
}
);
};
};
width = 432;
}
);
unicode = 00AD;
},
{
glyphname = endash;
layers = (
{
layerId = master01;
paths = (
{
closed = 1;
nodes = (
"69 231 LINE",
"84 267 LINE",
"526 267 LINE",
"511 231 LINE"
);
}
);
userData = {
com.fontlab.hintData = {
hhints = (
{
position = 231;
width = 36;
}
);
};
};
width = 586;
}
);
unicode = 2013;
},
{
glyphname = emdash;
layers = (
{
layerId = master01;
paths = (
{
closed = 1;
nodes = (
"66 231 LINE",
"82 269 LINE",
"817 269 LINE",
"802 231 LINE"
);
}
);
userData = {
com.fontlab.hintData = {
hhints = (
{
position = 231;
width = 38;
}
);
};
};
width = 867;
}
);
unicode = 2014;
},
{
glyphname = underscore;
layers = (
{
layerId = master01;
paths = (
{
closed = 1;
nodes = (
"-82 -56 LINE",
"-68 -21 LINE",
"420 -21 LINE",
"406 -56 LINE"
);
}
);
userData = {
com.fontlab.hintData = {
hhints = (
{
position = -56;
width = 35;
}
);
};
};
width = 466;
}
);
unicode = 005F;
},
{
glyphname = quotesinglbase;
layers = (
{
layerId = master01;
paths = (
{
closed = 1;
nodes = (
"169 31 LINE",
"50 -124 LINE",
"22 -106 LINE",
"99 -6 LINE",
"66 16 LINE",
"118 61 LINE"
);
}
);
userData = {
com.fontlab.hintData = {
hhints = (
{
position = -124;
width = 185;
}
);
vhints = (
{
position = 22;
width = 147;
}
);
};
};
width = 305;
}
);
unicode = 201A;
},
{
glyphname = quotedblbase;
layers = (
{
layerId = master01;
paths = (
{
closed = 1;
nodes = (
"170 31 LINE",
"50 -124 LINE",
"22 -106 LINE",
"99 -6 LINE",
"67 16 LINE",
"118 61 LINE"
);
},
{
closed = 1;
nodes = (
"342 31 LINE",
"223 -124 LINE",
"195 -106 LINE",
"272 -6 LINE",
"239 16 LINE",
"291 61 LINE"
);
}
);
userData = {
com.fontlab.hintData = {
hhints = (
{
position = -124;
width = 185;
}
);
vhints = (
{
position = 22;
width = 320;
}
);
};
};
width = 478;
}
);
unicode = 201E;
},
{
glyphname = quotedblleft;
layers = (
{
layerId = master01;
paths = (
{
closed = 1;
nodes = (
"272 600 LINE",
"391 755 LINE",
"419 736 LINE",
"342 636 LINE",
"375 614 LINE",
"323 570 LINE"
);
},
{
closed = 1;
nodes = (
"99 600 LINE",
"218 755 LINE",
"247 736 LINE",
"169 636 LINE",
"202 614 LINE",
"150 570 LINE"
);
}
);
userData = {
com.fontlab.hintData = {
hhints = (
{
position = 570;
width = 185;
}
);
vhints = (
{
position = 99;
width = 320;
}
);
};
};
width = 338;
}
);
unicode = 201C;
},
{
glyphname = quotedblright;
layers = (
{
layerId = master01;
paths = (
{
closed = 1;
nodes = (
"245 726 LINE",
"125 571 LINE",
"97 589 LINE",
"174 689 LINE",
"142 711 LINE",
"193 756 LINE"
);
},
{
closed = 1;
nodes = (
"417 726 LINE",
"298 571 LINE",
"270 589 LINE",
"347 689 LINE",
"314 711 LINE",
"366 756 LINE"
);
}
);
userData = {
com.fontlab.hintData = {
hhints = (
{
position = 571;
width = 185;
}
);
vhints = (
{
position = 97;
width = 320;
}
);
};
};
width = 338;
}
);
unicode = 201D;
},
{
glyphname = quoteleft;
layers = (
{
layerId = master01;
paths = (
{
closed = 1;
nodes = (
"101 600 LINE",
"220 755 LINE",
"248 736 LINE",
"171 636 LINE",
"204 614 LINE",
"152 570 LINE"
);
}
);
userData = {
com.fontlab.hintData = {
hhints = (
{
position = 570;
width = 185;
}
);
vhints = (
{
position = 101;
width = 147;
}
);
};
};
width = 172;
}
);
unicode = 2018;
},
{
glyphname = quoteright;
layers = (
{
layerId = master01;
paths = (
{
closed = 1;
nodes = (
"246 726 LINE",
"127 571 LINE",
"99 589 LINE",
"176 689 LINE",
"143 711 LINE",
"195 756 LINE"
);
}
);
userData = {
com.fontlab.hintData = {
hhints = (
{
position = 571;
width = 185;
}
);
vhints = (
{
position = 99;
width = 147;
}
);
};
};
width = 172;
}
);
unicode = 2019;
},
{
glyphname = guillemotleft;
layers = (
{
layerId = master01;
paths = (
{
closed = 1;
nodes = (
"77 251 LINE",
"331 435 LINE",
"349 409 LINE",
"130 251 LINE",
"266 100 LINE",
"237 73 LINE"
);
},
{
closed = 1;
nodes = (
"291 251 LINE",
"544 435 LINE",
"562 409 LINE",
"344 251 LINE",
"480 100 LINE",
"451 73 LINE"
);
}
);
width = 599;
}
);
unicode = 00AB;
},
{
glyphname = guillemotright;
layers = (
{
layerId = master01;
paths = (
{
closed = 1;
nodes = (
"279 99 LINE",
"478 252 LINE",
"328 410 LINE",
"356 435 LINE",
"532 251 LINE",
"295 73 LINE"
);
},
{
closed = 1;
nodes = (
"65 99 LINE",
"265 252 LINE",
"114 410 LINE",
"142 435 LINE",
"319 251 LINE",
"84 73 LINE"
);
}
);
width = 599;
}
);
unicode = 00BB;
},
{
glyphname = guilsinglleft;
layers = (
{
layerId = master01;
paths = (
{
closed = 1;
nodes = (
"78 249 LINE",
"333 433 LINE",
"351 407 LINE",
"132 249 LINE",
"267 98 LINE",
"239 71 LINE"
);
}
);
userData = {
com.fontlab.hintData = {
vhints = (
{
position = 78;
width = 273;
}
);
};
};
width = 394;
}
);
unicode = 2039;
},
{
glyphname = guilsinglright;
layers = (
{
layerId = master01;
paths = (
{
closed = 1;
nodes = (
"67 99 LINE",
"267 252 LINE",
"117 410 LINE",
"144 435 LINE",
"321 251 LINE",
"86 73 LINE"
);
}
);
userData = {
com.fontlab.hintData = {
vhints = (
{
position = 67;
width = 254;
}
);
};
};
width = 394;
}
);
unicode = 203A;
},
{
glyphname = quotedbl;
layers = (
{
layerId = master01;
paths = (
{
closed = 1;
nodes = (
"130 523 LINE",
"165 688 LINE",
"201 696 LINE",
"166 530 LINE"
);
},
{
closed = 1;
nodes = (
"255 523 LINE",
"290 688 LINE",
"326 696 LINE",
"291 530 LINE"
);
}
);
userData = {
com.fontlab.hintData = {
hhints = (
{
position = 523;
width = 173;
}
);
vhints = (
{
position = 130;
width = 196;
}
);
};
};
width = 302;
}
);
unicode = 0022;
},
{
glyphname = quotesingle;
layers = (
{
layerId = master01;
paths = (
{
closed = 1;
nodes = (
"130 523 LINE",
"165 688 LINE",
"202 696 LINE",
"167 530 LINE"
);
}
);
userData = {
com.fontlab.hintData = {
hhints = (
{
position = 523;
width = 173;
}
);
vhints = (
{
position = 130;
width = 72;
}
);
};
};
width = 178;
}
);
unicode = 0027;
},
{
glyphname = .notdef;
layers = (
{
layerId = master01;
paths = (
{
closed = 1;
nodes = (
"475 681 LINE",
"475 0 LINE",
"20 0 LINE",
"20 681 LINE"
);
},
{
closed = 1;
nodes = (
"41 655 LINE",
"41 46 LINE",
"234 342 LINE"
);
},
{
closed = 1;
nodes = (
"246 361 LINE",
"442 660 LINE",
"62 660 LINE"
);
},
{
closed = 1;
nodes = (
"50 21 LINE",
"430 21 LINE",
"246 320 LINE"
);
},
{
closed = 1;
nodes = (
"455 21 LINE",
"455 641 LINE",
"258 339 LINE"
);
}
);
userData = {
com.fontlab.hintData = {
hhints = (
{
position = 0;
width = 21;
},
{
position = 660;
width = 21;
}
);
vhints = (
{
position = 20;
width = 21;
},
{
position = 455;
width = 20;
}
);
};
};
width = 490;
}
);
},
{
glyphname = Euro;
layers = (
{
layerId = master01;
paths = (
{
closed = 1;
nodes = (
"243 0 OFFCURVE",
"144 105 OFFCURVE",
"144 235 CURVE SMOOTH",
"144 247 OFFCURVE",
"145 259 OFFCURVE",
"147 272 CURVE",
"66 272 LINE",
"81 310 LINE",
"155 310 LINE",
"166 346 OFFCURVE",
"176 376 OFFCURVE",
"187 401 CURVE",
"94 401 LINE",
"109 440 LINE",
"207 440 LINE",
"245 514 OFFCURVE",
"384 699 OFFCURVE",
"534 699 CURVE SMOOTH",
"596 699 OFFCURVE",
"645 681 OFFCURVE",
"679 646 CURVE",
"649 622 LINE",
"623 645 OFFCURVE",
"582 663 OFFCURVE",
"521 663 CURVE SMOOTH",
"418 663 OFFCURVE",
"294 528 OFFCURVE",
"243 440 CURVE",
"482 440 LINE",
"467 401 LINE",
"222 401 LINE",
"208 370 OFFCURVE",
"198 340 OFFCURVE",
"188 310 CURVE",
"434 310 LINE",
"417 272 LINE",
"182 272 LINE",
"181 263 OFFCURVE",
"180 255 OFFCURVE",
"180 247 CURVE SMOOTH",
"180 139 OFFCURVE",
"266 35 OFFCURVE",
"374 35 CURVE SMOOTH",
"435 35 OFFCURVE",
"483 48 OFFCURVE",
"522 69 CURVE",
"542 44 LINE",
"491 15 OFFCURVE",
"432 0 OFFCURVE",
"374 0 CURVE SMOOTH"
);
}
);
userData = {
com.fontlab.hintData = {
hhints = (
{
position = 0;
width = 35;
},
{
position = 272;
width = 38;
},
{
position = 401;
width = 39;
},
{
position = 663;
width = 36;
}
);
vhints = (
{
position = 144;
width = 36;
}
);
};
};
width = 653;
}
);
unicode = 20AC;
},
{
glyphname = cent;
layers = (
{
layerId = master01;
paths = (
{
closed = 1;
nodes = (
"213 15 LINE",
"179 4 LINE",
"202 103 LINE",
"107 124 OFFCURVE",
"60 193 OFFCURVE",
"60 272 CURVE SMOOTH",
"60 391 OFFCURVE",
"171 558 OFFCURVE",
"320 601 CURVE",
"339 681 LINE",
"373 691 LINE",
"353 603 LINE",
"412 603 OFFCURVE",
"455 578 OFFCURVE",
"479 539 CURVE",
"447 513 LINE",
"429 546 OFFCURVE",
"393 571 OFFCURVE",
"344 571 CURVE",
"241 134 LINE",
"308 134 OFFCURVE",
"375 170 OFFCURVE",
"416 216 CURVE",
"436 191 LINE",
"387 136 OFFCURVE",
"318 104 OFFCURVE",
"233 101 CURVE"
);
},
{
closed = 1;
nodes = (
"312 568 LINE",
"150 511 OFFCURVE",
"96 333 OFFCURVE",
"96 278 CURVE SMOOTH",
"96 214 OFFCURVE",
"132 155 OFFCURVE",
"210 136 CURVE"
);
}
);
userData = {
com.fontlab.hintData = {
hhints = (
{
position = 103;
width = 33;
},
{
position = 513;
width = 21;
},
{
position = 571;
width = 32;
}
);
vhints = (
{
position = 60;
width = 36;
}
);
};
};
width = 496;
}
);
unicode = 00A2;
},
{
glyphname = currency;
layers = (
{
layerId = master01;
paths = (
{
closed = 1;
nodes = (
"406 235 OFFCURVE",
"383 191 OFFCURVE",
"349 154 CURVE",
"406 82 LINE",
"378 59 LINE",
"321 130 LINE",
"286 108 OFFCURVE",
"249 95 OFFCURVE",
"215 95 CURVE SMOOTH",
"180 95 OFFCURVE",
"147 108 OFFCURVE",
"122 130 CURVE",
"35 58 LINE",
"17 81 LINE",
"105 154 LINE",
"94 175 OFFCURVE",
"89 198 OFFCURVE",
"89 221 CURVE SMOOTH",
"89 265 OFFCURVE",
"112 310 OFFCURVE",
"148 350 CURVE",
"90 425 LINE",
"118 448 LINE",
"177 373 LINE",
"212 395 OFFCURVE",
"248 406 OFFCURVE",
"281 406 CURVE SMOOTH",
"315 406 OFFCURVE",
"345 395 OFFCURVE",
"371 373 CURVE",
"461 448 LINE",
"479 425 LINE",
"389 350 LINE",
"401 329 OFFCURVE",
"406 306 OFFCURVE",
"406 283 CURVE SMOOTH"
);
},
{
closed = 1;
nodes = (
"298 127 OFFCURVE",
"374 197 OFFCURVE",
"374 278 CURVE SMOOTH",
"374 334 OFFCURVE",
"334 374 OFFCURVE",
"274 374 CURVE SMOOTH",
"197 374 OFFCURVE",
"121 305 OFFCURVE",
"121 224 CURVE SMOOTH",
"121 168 OFFCURVE",
"161 127 OFFCURVE",
"221 127 CURVE SMOOTH"
);
}
);
userData = {
com.fontlab.hintData = {
hhints = (
{
position = 95;
width = 32;
},
{
position = 374;
width = 32;
}
);
vhints = (
{
position = 89;
width = 32;
},
{
position = 374;
width = 32;
}
);
};
};
width = 490;
}
);
unicode = 00A4;
},
{
glyphname = dollar;
layers = (
{
layerId = master01;
paths = (
{
closed = 1;
nodes = (
"354 381 LINE",
"471 345 OFFCURVE",
"531 290 OFFCURVE",
"531 218 CURVE SMOOTH",
"531 93 OFFCURVE",
"394 12 OFFCURVE",
"274 0 CURVE",
"259 -69 LINE",
"223 -76 LINE",
"239 -1 LINE",
"132 7 OFFCURVE",
"56 58 OFFCURVE",
"43 140 CURVE",
"89 147 LINE",
"105 81 OFFCURVE",
"172 40 OFFCURVE",
"247 38 CURVE",
"314 350 LINE",
"234 376 OFFCURVE",
"155 421 OFFCURVE",
"155 496 CURVE SMOOTH",
"155 630 OFFCURVE",
"305 681 OFFCURVE",
"385 685 CURVE",
"399 752 LINE",
"435 759 LINE",
"420 688 LINE",
"486 686 OFFCURVE",
"605 667 OFFCURVE",
"605 576 CURVE SMOOTH",
"605 568 OFFCURVE",
"604 560 OFFCURVE",
"602 551 CURVE SMOOTH",
"600 542 LINE",
"563 533 LINE",
"565 545 LINE SMOOTH",
"566 551 OFFCURVE",
"567 557 OFFCURVE",
"567 563 CURVE SMOOTH",
"567 622 OFFCURVE",
"492 646 OFFCURVE",
"411 647 CURVE"
);
},
{
closed = 1;
nodes = (
"302 636 OFFCURVE",
"202 594 OFFCURVE",
"202 501 CURVE SMOOTH",
"202 456 OFFCURVE",
"238 422 OFFCURVE",
"323 391 CURVE",
"377 645 LINE"
);
},
{
closed = 1;
nodes = (
"370 54 OFFCURVE",
"485 104 OFFCURVE",
"485 213 CURVE SMOOTH",
"485 283 OFFCURVE",
"417 313 OFFCURVE",
"346 340 CURVE",
"282 39 LINE"
);
}
);
userData = {
com.fontlab.hintData = {
hhints = (
{
position = -1;
width = 39;
},
{
position = 647;
width = 41;
}
);
vhints = (
{
position = 43;
width = 46;
},
{
position = 155;
width = 47;
},
{
position = 485;
width = 46;
},
{
position = 567;
width = 38;
}
);
};
};
width = 595;
}
);
unicode = 0024;
},
{
glyphname = sterling;
layers = (
{
layerId = master01;
paths = (
{
closed = 1;
nodes = (
"667 134 LINE",
"618 15 OFFCURVE",
"526 -10 OFFCURVE",
"484 -10 CURVE SMOOTH",
"434 -10 OFFCURVE",
"379 13 OFFCURVE",
"334 50 CURVE SMOOTH",
"315 66 OFFCURVE",
"296 74 OFFCURVE",
"269 74 CURVE SMOOTH",
"244 74 OFFCURVE",
"176 57 OFFCURVE",
"108 5 CURVE",
"90 30 LINE",
"178 99 OFFCURVE",
"223 159 OFFCURVE",
"223 276 CURVE SMOOTH",
"223 294 OFFCURVE",
"222 316 OFFCURVE",
"220 342 CURVE",
"93 342 LINE",
"107 376 LINE",
"218 376 LINE",
"218 606 OFFCURVE",
"329 735 OFFCURVE",
"516 735 CURVE SMOOTH",
"665 735 OFFCURVE",
"698 634 OFFCURVE",
"698 561 CURVE SMOOTH",
"698 553 OFFCURVE",
"698 545 OFFCURVE",
"697 538 CURVE",
"661 534 LINE",
"661 538 OFFCURVE",
"661 542 OFFCURVE",
"661 547 CURVE SMOOTH",
"661 639 OFFCURVE",
"618 700 OFFCURVE",
"503 700 CURVE SMOOTH",
"347 700 OFFCURVE",
"256 597 OFFCURVE",
"252 376 CURVE",
"520 376 LINE",
"506 342 LINE",
"252 342 LINE",
"254 307 OFFCURVE",
"255 280 OFFCURVE",
"255 259 CURVE SMOOTH",
"255 191 OFFCURVE",
"240 153 OFFCURVE",
"200 93 CURVE",
"237 105 OFFCURVE",
"260 109 OFFCURVE",
"277 109 CURVE SMOOTH",
"314 109 OFFCURVE",
"336 95 OFFCURVE",
"361 77 CURVE SMOOTH",
"402 47 OFFCURVE",
"446 25 OFFCURVE",
"490 25 CURVE SMOOTH",
"556 25 OFFCURVE",
"598 64 OFFCURVE",
"633 140 CURVE"
);
}
);
userData = {
com.fontlab.hintData = {
hhints = (
{
position = -10;
width = 35;
},
{
position = 74;
width = 35;
},
{
position = 342;
width = 34;
},
{
position = 700;
width = 35;
}
);
vhints = (
{
position = 223;
width = 32;
},
{
position = 661;
width = 37;
}
);
};
};
width = 754;
}
);
unicode = 00A3;
},
{
glyphname = yen;
layers = (
{
layerId = master01;
paths = (
{
closed = 1;
nodes = (
"121 300 LINE",
"135 334 LINE",
"258 334 LINE",
"164 697 LINE",
"204 697 LINE",
"300 328 LINE",
"564 697 LINE",
"604 697 LINE",
"342 334 LINE",
"471 334 LINE",
"456 300 LINE",
"310 300 LINE",
"284 175 LINE",
"438 175 LINE",
"422 140 LINE",
"276 140 LINE",
"248 9 LINE",
"212 2 LINE",
"241 140 LINE",
"87 140 LINE",
"102 175 LINE",
"249 175 LINE",
"275 300 LINE"
);
}
);
userData = {
com.fontlab.hintData = {
hhints = (
{
position = 140;
width = 35;
},
{
position = 300;
width = 34;
}
);
};
};
width = 575;
}
);
unicode = 00A5;
},
{
glyphname = plus;
layers = (
{
layerId = master01;
paths = (
{
closed = 1;
nodes = (
"367 233 LINE",
"231 233 LINE",
"202 98 LINE",
"166 91 LINE",
"196 233 LINE",
"53 233 LINE",
"68 269 LINE",
"204 269 LINE",
"231 399 LINE",
"268 407 LINE",
"239 269 LINE",
"383 269 LINE"
);
}
);
userData = {
com.fontlab.hintData = {
hhints = (
{
position = 233;
width = 36;
}
);
vhints = (
{
position = 53;
width = 330;
}
);
};
};
width = 431;
}
);
unicode = 002B;
},
{
glyphname = multiply;
layers = (
{
layerId = master01;
paths = (
{
closed = 1;
nodes = (
"268 165 LINE",
"238 141 LINE",
"170 228 LINE",
"60 139 LINE",
"41 162 LINE",
"151 253 LINE",
"87 334 LINE",
"116 358 LINE",
"180 277 LINE",
"287 366 LINE",
"306 342 LINE",
"199 253 LINE"
);
}
);
userData = {
com.fontlab.hintData = {
hhints = (
{
position = 141;
width = 225;
}
);
vhints = (
{
position = 41;
width = 265;
}
);
};
};
width = 344;
}
);
unicode = 00D7;
},
{
glyphname = divide;
layers = (
{
layerId = master01;
paths = (
{
closed = 1;
nodes = (
"243 337 LINE",
"203 331 LINE",
"217 376 LINE",
"256 382 LINE"
);
},
{
closed = 1;
nodes = (
"187 145 LINE",
"146 139 LINE",
"162 184 LINE",
"200 191 LINE"
);
},
{
closed = 1;
nodes = (
"70 277 LINE",
"349 277 LINE",
"335 244 LINE",
"56 244 LINE"
);
}
);
userData = {
com.fontlab.hintData = {
hhints = (
{
position = 244;
width = 33;
},
{
position = 337;
width = 39;
}
);
vhints = (
{
position = 56;
width = 293;
}
);
};
};
width = 397;
}
);
unicode = 00F7;
},
{
glyphname = equal;
layers = (
{
layerId = master01;
paths = (
{
closed = 1;
nodes = (
"93 311 LINE",
"108 347 LINE",
"443 347 LINE",
"429 311 LINE"
);
},
{
closed = 1;
nodes = (
"59 152 LINE",
"74 186 LINE",
"409 186 LINE",
"395 152 LINE"
);
}
);
userData = {
com.fontlab.hintData = {
hhints = (
{
position = 152;
width = 34;
},
{
position = 311;
width = 36;
}
);
};
};
width = 495;
}
);
unicode = 003D;
},
